<?xml version="1.0" standalone="no"?>
<!DOCTYPE svg PUBLIC "-//W3C//DTD SVG 1.1//EN" "http://www.w3.org/Graphics/SVG/1.1/DTD/svg11.dtd" >
<svg>
<metadata>
Created by FontForge 20090914 at Fri Mar 10 07:29:07 2017
 By www-data
Copyright (c) 2002, 2005 Parachute&#194;&#168;, www.parachute.gr.  All rights reserved.
</metadata>
<defs>
<font id="PFDinTextCondPro-Medium" horiz-adv-x="1818" >
  <font-face 
    font-family="PF Din Text Cond Pro Medium"
    font-weight="500"
    font-stretch="normal"
    units-per-em="1000"
    panose-1="2 0 5 0 0 0 0 2 0 4"
    ascent="750"
    descent="-250"
    x-height="494"
    cap-height="696"
    bbox="-184.999 -275.001 1760 944"
    underline-thickness="50"
    underline-position="-50"
    unicode-range="U+0020-U+FB05"
  />
<missing-glyph horiz-adv-x="445" 
d="M0 699h445v-699h-445v699zM344 66l-121 223l-123 -223h244zM344 633h-244l123 -222zM66 133l118 217l-118 217v-434zM379 133v434l-118 -218z" />
    <glyph glyph-name="fj" unicode="fj" horiz-adv-x="484" 
d="M70 495v75.998c0 29.333 4.83301 54.5 14.5 75.5s22.667 38 39 51s35.5 22.5 57.5 28.5s45 9 69 9c32 0 62 -4.5 90 -13.5s53.667 -24.833 77 -47.5l-62 -79c-14.667 13.333 -30.667 23 -48 29s-35 9 -53 9c-14.667 0 -26.667 -2 -36 -6s-16.833 -9.16699 -22.5 -15.5
s-9.5 -13.666 -11.5 -21.999s-3 -16.5 -3 -24.5v-70h245v-551c0 -44 -12.667 -78.833 -38 -104.5s-63 -38.5 -113 -38.5h-33v100h22c20.667 0.666992 34.5 6.33398 41.5 17.001s10.5 25.667 10.5 45v444h-135v-407h-111v407h-53v88h53z" />
    <glyph glyph-name="ffj" unicode="ffj" horiz-adv-x="731" 
d="M180 0l-110.999 0.00195312v407h-52v88h52v47c0 31.333 4.5 58.166 13.5 80.499s21.5 40.5 37.5 54.5s35 24.333 57 31s46 10 72 10c19.333 0 38.333 -1.83301 57 -5.5s36.334 -9.83398 53.001 -18.501c16.667 15.333 36.667 26.666 60 33.999s48.666 11 75.999 11
c34 0 65.167 -5.33301 93.5 -16s53.166 -27.667 74.499 -51c-2.66699 -3.33301 -7.16699 -8.66602 -13.5 -15.999l-19.5 -23l-19 -23l-13 -16c-12.667 13.333 -27.334 23.833 -44.001 31.5s-35.334 11.5 -56.001 11.5c-14 0 -25.833 -2 -35.5 -6
s-17.167 -9.16699 -22.5 -15.5s-9.16602 -13.666 -11.499 -21.999s-3.5 -16.5 -3.5 -24.5v-74h246v-551c0 -44.667 -12.667 -79.667 -38 -105s-64.666 -38 -117.999 -38h-29v100h22c20.667 0.666992 34.5 6.66699 41.5 18s10.5 27.666 10.5 48.999v439h-135v-407h-110v407
h-135v-407zM315.001 495.002v83.001v11.5c0 3.66699 0.666992 7.5 2 11.5c-20 10.667 -41.333 16 -64 16c-16 0 -28.833 -2.5 -38.5 -7.5s-17 -11.333 -22 -19s-8.33301 -16.334 -10 -26.001s-2.5 -19.167 -2.5 -28.5v-41h135z" />
    <glyph glyph-name="ff" unicode="ff" horiz-adv-x="527" 
d="M250 721c17.333 0 34.168 -1.5 50.501 -4.5s32.166 -7.83301 47.499 -14.5c12 12.667 26.5 22 43.5 28s35.167 9 54.5 9h69v-98h-47c-15.333 0 -26.333 -4.5 -33 -13.5s-10 -20.5 -10 -34.5v-99h87v-87h-87v-407h-111v407h-134v-407h-110v407h-53v87h53v52
c0 30 4.33301 56 13 78s21 40.167 37 54.5s35 25 57 32s46.333 10.5 73 10.5zM314.002 494l-0.000976562 73.002v20c0 6 0.333008 12.333 1 19c-17.333 8.66699 -37 13 -59 13c-17.333 0 -31 -2.33301 -41 -7s-17.667 -10.834 -23 -18.501
s-8.66602 -16.334 -9.99902 -26.001s-2 -19.167 -2 -28.5v-45h134z" />
    <glyph glyph-name="fi" unicode="fi" horiz-adv-x="484" 
d="M70 495v75.999c0 29.333 4.83301 54.5 14.5 75.5s22.667 38 39 51s35.5 22.5 57.5 28.5s45 9 69 9c32 0 62 -4.5 90 -13.5s53.667 -24.833 77 -47.5l-62 -79c-14.667 13.333 -30.667 23 -48 29s-35 9 -53 9c-14.667 0 -26.667 -2 -36 -6s-16.833 -9.16699 -22.5 -15.5
s-9.5 -13.666 -11.5 -21.999s-3 -16.5 -3 -24.5v-70h245v-495h-110v407h-135v-407h-111v407h-53v88h53z" />
    <glyph glyph-name="fl" unicode="fl" horiz-adv-x="508" 
d="M457 -3c-43.333 0 -77.3379 9.50195 -102.005 28.502s-37 54.167 -37 105.5v490c-14.667 5.33301 -27.167 8.66602 -37.5 9.99902s-19.166 2 -26.499 2c-15.333 0 -27.666 -2 -36.999 -6s-16.666 -9.33301 -21.999 -16s-9 -14.334 -11 -23.001s-3 -17.334 -3 -26.001v-67
h90v-88h-90v-407h-111v407h-53v88h53v74c0 29.333 4.33301 54.5 13 75.5s20.834 38.167 36.501 51.5s34 23 55 29s43.833 9 68.5 9c16.667 0 41.334 -2 74.001 -6s69.667 -14 111 -30v-550c0 -19.333 3.5 -32.666 10.5 -39.999s18.167 -11 33.5 -11h16v-100h-31z" />
    <glyph glyph-name="ffi" unicode="ffi" horiz-adv-x="728" 
d="M180 0l-109.998 0.000976562v407h-53v88h53v47c0 31.333 4.5 58.166 13.5 80.499s21.5 40.5 37.5 54.5s35 24.333 57 31s46 10 72 10c19.333 0 38.166 -1.83301 56.499 -5.5s36.166 -9.83398 53.499 -18.501c16.667 15.333 36.5 26.666 59.5 33.999s48.167 11 75.5 11
c34 0 65.333 -5.33301 94 -16s53.334 -27.667 74.001 -51l-13 -16l-19 -23l-19.5 -23c-6.33301 -7.33301 -10.833 -12.666 -13.5 -15.999c-12.667 13.333 -27.334 23.833 -44.001 31.5s-35 11.5 -55 11.5c-14.667 0 -26.667 -2 -36 -6s-16.833 -9.16699 -22.5 -15.5
s-9.5 -13.666 -11.5 -21.999s-3 -16.5 -3 -24.5v-74h245v-495h-110v407h-135v-407h-111v407h-135v-407zM315.002 495.001v83.001c0 4 0.166992 7.83301 0.5 11.5s0.833008 7.5 1.5 11.5c-20 10.667 -41 16 -63 16c-16 0 -29 -2.5 -39 -7.5s-17.5 -11.333 -22.5 -19
s-8.33301 -16.334 -10 -26.001s-2.5 -19.167 -2.5 -28.5v-41h135z" />
    <glyph glyph-name="ffl" unicode="ffl" horiz-adv-x="750" 
d="M314 494l0.00195312 75.998v18c0 4.66699 0.333008 9.33398 1 14.001c-7.33301 4 -16.333 7.33301 -27 10s-21.334 4 -32.001 4c-16 0 -29 -2.16699 -39 -6.5s-17.833 -10.166 -23.5 -17.499s-9.33398 -15.5 -11.001 -24.5s-2.5 -18.5 -2.5 -28.5v-45h134z
M498.002 636.998c-14.667 0 -26.6689 -1.99512 -36.002 -5.99512s-16.833 -9.33301 -22.5 -16s-9.5 -14.334 -11.5 -23.001s-3 -17.334 -3 -26.001v-72h88v-87h-88v-407h-111v407h-134v-407h-111v407h-52v87h52v47c0 31.333 4.5 58.166 13.5 80.499s21.5 40.5 37.5 54.5
s35 24.333 57 31s46 10 72 10c19.333 0 38.333 -1.83301 57 -5.5s36.334 -9.83398 53.001 -18.501c16.667 15.333 36.334 26.666 59.001 33.999s47 11 73 11c18.667 0 43.667 -2 75 -6s66 -13.667 104 -29v-556c0 -19.333 3.5 -32.666 10.5 -39.999s18.167 -11 33.5 -11h16
v-99h-31c-21.333 0 -40.666 2.16699 -57.999 6.5s-32 11.5 -44 21.5s-21.167 23.667 -27.5 41s-9.5 39 -9.5 65v494c-14.667 5.33301 -26.834 8.66602 -36.501 9.99902s-18.167 2 -25.5 2z" />
    <glyph glyph-name="ft" unicode="ft" horiz-adv-x="521" 
d="M424 407v-253.001c0 -18 3.33301 -31.667 10 -41s19 -14 37 -14h24v-99h-55c-42 0 -73.333 11.667 -94 35s-31 52.333 -31 87v285h-134v-407h-111v407h-53v88h53v100c0 22.667 3.33301 42.167 10 58.5s16 30 28 41s26 19.167 42 24.5s33.333 8 52 8h65v-98h-43
c-15.333 0 -26.333 -4.66699 -33 -14s-10 -20.666 -10 -33.999v-86h135v131h107v-131h68v-88h-67z" />
    <glyph glyph-name=".notdef" horiz-adv-x="445" 
d="M0 699h445v-699h-445v699zM344 66l-121 223l-123 -223h244zM344 633h-244l123 -222zM66 133l118 217l-118 217v-434zM379 133v434l-118 -218z" />
    <glyph glyph-name="space" unicode=" " horiz-adv-x="229" 
 />
    <glyph glyph-name="exclam" unicode="!" horiz-adv-x="260" 
d="M175 187h-89l-11 509h110zM75 0v111h112v-111h-112z" />
    <glyph glyph-name="quotedbl" unicode="&#x22;" horiz-adv-x="320" 
d="M185 485v211h85v-211h-85zM48 485v211h85v-211h-85z" />
    <glyph glyph-name="numbersign" unicode="#" horiz-adv-x="476" 
d="M12 288l85.998 -0.000976562c0.666992 4 1.83398 12 3.50098 24s3.66699 24.833 6 38.5l6.5 38.5l4 24h-73v76h85l33 207h83l-33 -207h88l7 41.5l10.5 62c3.66699 21.667 7 42.334 10 62.001s5.16699 33.5 6.5 41.5h83l-35 -207h77v-76h-89l-20 -125h77v-76h-89
c-1.33301 -8.66699 -3.66602 -23 -6.99902 -43l-10.5 -63c-3.66699 -22 -7 -43 -10 -63l-6.5 -43h-83c1.33301 8.66699 3.66602 23 6.99902 43l10.5 63c3.66699 22 7 43 10 63l6.5 43h-88c-1.33301 -8.66699 -3.66602 -23 -6.99902 -43l-10.5 -63
c-3.66699 -22 -7 -43 -10 -63l-6.5 -43h-84l35 212h-73v76zM179.998 287.999h89l4 24l6.5 38.5l6.5 38.5l4 24h-89z" />
    <glyph glyph-name="dollar" unicode="$" horiz-adv-x="465" 
d="M438 198c0 -60 -15.501 -107.672 -46.501 -143.005s-75.833 -55 -134.5 -59v-95h-45v95c-46 2.66699 -84.667 15.334 -116 38.001s-56.666 52 -75.999 88l91 58c12 -21.333 26.167 -38.833 42.5 -52.5s35.833 -22.167 58.5 -25.5v202
c-30 10.667 -55.833 22.167 -77.5 34.5s-39.667 26.333 -54 42s-25 33.334 -32 53.001s-10.5 42.5 -10.5 68.5c0 26.667 4.16699 51.5 12.5 74.5s20 43.167 35 60.5s33.167 31.333 54.5 42s45.333 17.334 72 20.001v72h45v-72c42.667 -3.33301 78.167 -15.166 106.5 -35.499
s49.833 -44.5 64.5 -72.5l-83 -62c-20.667 34.667 -50 55 -88 61v-181c34 -11.333 62.5 -23.666 85.5 -36.999s41.5 -28.333 55.5 -45s24.167 -35.667 30.5 -57s9.5 -45.333 9.5 -72zM323.999 193.995c0 25.333 -5.83301 44.833 -17.5 58.5s-28.167 25.167 -49.5 34.5v-184
c25.333 4 42.833 14.333 52.5 31s14.5 36.667 14.5 60zM149.999 504.995c0 -18 5.33301 -33.168 16 -45.501s26 -23.166 46 -32.499v164c-20 -4 -35.333 -13.833 -46 -29.5s-16 -34.5 -16 -56.5z" />
    <glyph glyph-name="percent" unicode="%" horiz-adv-x="720" 
d="M206 -17h-74l370 730h74zM293 387c0 -17.333 -3.33301 -32.833 -10 -46.5s-15.5 -25.334 -26.5 -35.001s-23.833 -17 -38.5 -22s-30.334 -7.5 -47.001 -7.5c-16 0 -31.333 2.5 -46 7.5s-27.5 12.333 -38.5 22s-19.833 21.334 -26.5 35.001s-10 29.167 -10 46.5v202
c0 17.333 3.16699 32.833 9.5 46.5s15 25.334 26 35.001s23.833 17 38.5 22s30.334 7.5 47.001 7.5c34 0 62.833 -9.83301 86.5 -29.5s35.5 -46.834 35.5 -81.501v-202zM209 588c0 11.333 -3.33203 20.5 -9.99902 27.5s-16 10.5 -28 10.5s-21.5 -3.5 -28.5 -10.5
s-10.5 -16.167 -10.5 -27.5v-200c0 -11.333 3.66699 -20.5 11 -27.5s16.666 -10.5 27.999 -10.5s20.5 3.5 27.5 10.5s10.5 16.167 10.5 27.5v200zM669.001 105c0 -17.333 -3.33398 -32.666 -10.001 -45.999s-15.5 -24.5 -26.5 -33.5s-24 -16 -39 -21s-30.5 -7.5 -46.5 -7.5
s-31.333 2.5 -46 7.5s-27.5 12 -38.5 21s-19.833 20.167 -26.5 33.5s-10 28.666 -10 45.999v207c0 16.667 3.33301 31.834 10 45.501s15.5 25.167 26.5 34.5s23.833 16.5 38.5 21.5s30 7.5 46 7.5c16.667 0 32.334 -2.5 47.001 -7.5s27.5 -12.167 38.5 -21.5
s19.833 -20.833 26.5 -34.5s10 -28.834 10 -45.501v-207zM585 310c0 11.333 -3.33203 20.166 -9.99902 26.499s-16 9.5 -28 9.5s-21.5 -3.16699 -28.5 -9.5s-10.5 -15.166 -10.5 -26.499v-203c0 -11.333 3.66699 -20.166 11 -26.499s16.666 -9.5 27.999 -9.5
s20.5 3.16699 27.5 9.5s10.5 15.166 10.5 26.499v203z" />
    <glyph glyph-name="ampersand" unicode="&#x26;" horiz-adv-x="565" 
d="M385 55c-22.667 -21.333 -47.0039 -36.835 -73.0039 -46.502s-53 -14.5 -81 -14.5c-28.667 0 -54 4.66699 -76 14s-40.5 22.166 -55.5 38.499s-26.333 35.5 -34 57.5s-11.5 45.667 -11.5 71c0 42 9.33301 79 28 111s47 63 85 93
c-17.333 26.667 -32.666 52.334 -45.999 77.001s-20 52.334 -20 83.001c0 23.333 3.66699 45 11 65s18.166 37.167 32.499 51.5s31.833 25.666 52.5 33.999s44.334 12.5 71.001 12.5c32 0 62.5 -6 91.5 -18s53.833 -32.333 74.5 -61l-37.5 -32l-37.5 -33
c-15.333 18 -29.833 30.167 -43.5 36.5s-28.834 9.5 -45.501 9.5c-21.333 0 -37.166 -6.66699 -47.499 -20s-15.5 -28 -15.5 -44c0 -16.667 6.5 -37.667 19.5 -63s28.833 -52.333 47.5 -81s38.5 -57.667 59.5 -87l55.5 -80c6.66699 14.667 11.834 30.334 15.501 47.001
s6.5 33.334 8.5 50.001l98 -11c-3.33301 -30 -9.66602 -60.833 -18.999 -92.5s-21.666 -60.167 -36.999 -85.5c4.66699 -8 11.167 -18.167 19.5 -30.5l26.5 -38.5l27 -38l21 -30h-125zM220.996 296.998c-20 -17.333 -35.5 -35.5 -46.5 -54.5s-16.5 -39.833 -16.5 -62.5
c0 -24 7 -44.5 21 -61.5s34.667 -25.5 62 -25.5c16.667 0 33.167 4 49.5 12s29.833 17.667 40.5 29z" />
    <glyph glyph-name="quotesingle" unicode="'" horiz-adv-x="219" 
d="M67 485v211h85v-211h-85z" />
    <glyph glyph-name="parenleft" unicode="(" horiz-adv-x="293" 
d="M221 -122c-23.333 28.667 -45.1689 59.332 -65.502 91.999s-38.166 67 -53.499 103s-27.5 73.5 -36.5 112.5s-13.5 79.167 -13.5 120.5c0 42 4.33301 82.5 13 121.5s20.5 76.333 35.5 112s32.5 69.334 52.5 101.001s41 61.5 63 89.5l64 -36
c-19.333 -28.667 -36.333 -58.834 -51 -90.501s-27.167 -64 -37.5 -97s-18.166 -66.167 -23.499 -99.5s-8 -65.666 -8 -96.999c0 -68.667 10.833 -137 32.5 -205s50.5 -129.667 86.5 -185z" />
    <glyph glyph-name="parenright" unicode=")" horiz-adv-x="293" 
d="M269 305c0 -41.333 -4.50293 -81.333 -13.5029 -120s-21.167 -76 -36.5 -112s-33.166 -70.333 -53.499 -103s-42.166 -63.334 -65.499 -92.001c-1.33301 1.33301 -4.83301 4 -10.5 8l-18.5 13l-18.5 13c-5.66699 4 -9.16699 6.66699 -10.5 8
c36.667 55.333 65.667 117 87 185s32 136.333 32 205c0 31.333 -2.66699 63.5 -8 96.5s-13.166 66 -23.499 99s-23 65.5 -38 97.5s-31.833 62.333 -50.5 91l64 36c22 -28 43 -58 63 -90s37.5 -65.667 52.5 -101s26.833 -72.666 35.5 -111.999s13 -80 13 -122z" />
    <glyph glyph-name="asterisk" unicode="*" horiz-adv-x="393" 
d="M324 423l-67 -49.0039l-61 103l-11.5 -18l-20.5 -33l-20 -33.5c-6 -10.333 -9.66699 -16.5 -11 -18.5l-67 48l79 93l-20.5 5c-11 2.66699 -23 5.83398 -36 9.50098s-25.167 6.83398 -36.5 9.50098s-18 4.33398 -20 5.00098l25 77l108 -45
c0 2.66699 -0.5 9.83398 -1.5 21.501s-2.16699 24.5 -3.5 38.5s-2.5 26.833 -3.5 38.5s-1.5 18.834 -1.5 21.501h82l-11 -120c2 0.666992 8.33301 3.16699 19 7.5l35 14.5l35 14.5c10.667 4.33301 17 7.16602 19 8.49902l26 -77l-115 -29z" />
    <glyph glyph-name="plus" unicode="+" horiz-adv-x="465" 
d="M277 252v-173h-89v173h-169v88h169v172h89v-172h169v-88h-169z" />
    <glyph glyph-name="comma" unicode="," horiz-adv-x="245" 
d="M56 -134l32 131h-29v132h124v-128l-66 -135h-61z" />
    <glyph glyph-name="hyphen" unicode="-" horiz-adv-x="391" 
d="M49 213v98h298v-98h-298z" />
    <glyph glyph-name="period" unicode="." horiz-adv-x="241" 
d="M58 0v130h124v-130h-124z" />
    <glyph glyph-name="slash" unicode="/" horiz-adv-x="308" 
d="M84 -42h-87l219 767h88z" />
    <glyph glyph-name="zero" unicode="0" horiz-adv-x="465" 
d="M416 169c0 -28 -4.83203 -52.667 -14.499 -74s-22.834 -39.5 -39.501 -54.5s-35.834 -26.333 -57.501 -34s-44.5 -11.5 -68.5 -11.5s-46.833 3.83301 -68.5 11.5s-40.667 19 -57 34s-29.333 33.167 -39 54.5s-14.5 46 -14.5 74v357c0 28 4.83301 52.833 14.5 74.5
s22.834 40 39.501 55s35.667 26.333 57 34s44 11.5 68 11.5s47 -3.83301 69 -11.5s41.167 -19 57.5 -34s29.333 -33.333 39 -55s14.5 -46.5 14.5 -74.5v-357zM305.001 526c0 22 -6.33301 39.167 -19 51.5s-29.334 18.5 -50.001 18.5s-37.334 -6.16699 -50.001 -18.5
s-19 -29.5 -19 -51.5v-356c0 -22.667 6.33301 -40 19 -52s29.334 -18 50.001 -18s37.334 6 50.001 18s19 29.333 19 52v356z" />
    <glyph glyph-name="one" unicode="1" horiz-adv-x="465" 
d="M217 0v572l-97 -72v119l103 77h104v-696h-110z" />
    <glyph glyph-name="two" unicode="2" horiz-adv-x="465" 
d="M44 513c4 60 23.001 106.333 57.001 139s76.667 49 128 49c57.333 0 102 -15 134 -45s48 -73.333 48 -130c0 -26.667 -3.83301 -52.167 -11.5 -76.5s-19.167 -48.5 -34.5 -72.5l-181 -271h221v-106h-359v99l225 335c9.33301 14 15.666 28.833 18.999 44.5
s5 30.167 5 43.5c0 18.667 -5 35.667 -15 51s-27.333 23 -52 23c-20 0 -36.667 -8 -50 -24s-21 -41 -23 -75z" />
    <glyph glyph-name="three" unicode="3" horiz-adv-x="465" 
d="M339 362c18 -8 32.1689 -17.5039 42.502 -28.5039s18.333 -23.5 24 -37.5s9.16699 -29 10.5 -45s2 -33 2 -51c0 -30 -3.83301 -57.5 -11.5 -82.5s-19.5 -46.667 -35.5 -65s-36 -32.5 -60 -42.5s-52.333 -15 -85 -15c-24 0 -46.5 3.33301 -67.5 10s-39.5 17 -55.5 31
s-29.167 31.667 -39.5 53s-16.833 46.666 -19.5 75.999l110 17c4 -55.333 28.333 -83 73 -83c24.667 0 43.5 9 56.5 27s19.5 43 19.5 75c0 38 -6.33301 66.333 -19 85s-34.334 28 -65.001 28h-43v93h44c29.333 0 50.166 8 62.499 24s18.5 39 18.5 69
c0 11.333 -1.16699 22.833 -3.5 34.5s-6.16602 22 -11.499 31s-12.5 16.333 -21.5 22s-20.167 8.5 -33.5 8.5c-22 0 -38.5 -7.16699 -49.5 -21.5s-18.167 -35.833 -21.5 -64.5c-6 0.666992 -13.833 1.83398 -23.5 3.50098s-20 3.33398 -31 5.00098
s-21.333 3.33398 -31 5.00098s-17.5 2.83398 -23.5 3.50098c6 52.667 25.333 94.834 58 126.501s74 47.5 124 47.5c36.667 0 66.667 -5.5 90 -16.5s41.833 -25.667 55.5 -44s23.167 -39.333 28.5 -63s8 -48.167 8 -73.5c0 -12.667 -1.16699 -26 -3.5 -40
s-6.5 -27.5 -12.5 -40.5s-13.833 -25 -23.5 -36s-21.834 -19.5 -36.501 -25.5z" />
    <glyph glyph-name="four" unicode="4" horiz-adv-x="465" 
d="M387 101v-101h-110v101h-251v97l194 498h116l-191 -491h132v176h110v-176h51v-104h-51z" />
    <glyph glyph-name="five" unicode="5" horiz-adv-x="465" 
d="M175 434c14.667 13.333 30.3301 21.999 46.9971 25.999s31.667 6 45 6c30.667 0 55.667 -5.66699 75 -17s34.5 -26.666 45.5 -45.999s18.5 -42.333 22.5 -69s6 -55.334 6 -86.001c0 -40 -3 -75.667 -9 -107s-16 -57.833 -30 -79.5s-32.667 -38.167 -56 -49.5
s-52.666 -17 -87.999 -17c-26 0 -49.833 3.16699 -71.5 9.5s-40.5 16.5 -56.5 30.5s-28.667 32.667 -38 56s-15 52 -17 86l111 7c1.33301 -30.667 8 -52.5 20 -65.5s29.333 -19.5 52 -19.5c16.667 0 29.667 4 39 12s16.333 18.833 21 32.5s7.66699 29 9 46s2 34.5 2 52.5
c0 16 -0.666992 31.5 -2 46.5s-4.33301 28.333 -9 40s-11.5 21 -20.5 28s-21.5 10.5 -37.5 10.5c-13.333 0 -26.166 -3.66699 -38.499 -11s-22.166 -19.666 -29.499 -36.999h-99v377h339v-103h-236l2 -159h2z" />
    <glyph glyph-name="six" unicode="6" horiz-adv-x="465" 
d="M231 400c6.66699 3.33301 14.501 5.83301 23.501 7.5s17.167 2.5 24.5 2.5c22 0 41.5 -4.66699 58.5 -14s31.5 -22.5 43.5 -39.5s21.167 -37.333 27.5 -61s9.5 -49.834 9.5 -78.501c0 -68 -14.833 -122 -44.5 -162s-76.834 -60 -141.501 -60
c-60 0 -104.333 16.833 -133 50.5s-43 85.834 -43 156.501c0 31.333 2.83301 60.5 8.5 87.5s13.5 51.833 23.5 74.5l17.5 40l28.5 63.5l33.5 74l32.5 71l25.5 55.5c7 15.333 11.167 24.666 12.5 27.999h121c-3.33301 -8 -8.5 -19.667 -15.5 -35l-23 -52l-26.5 -60.5
l-26.5 -60.5l-23 -52c-7 -15.333 -12.5 -26.666 -16.5 -33.999zM238.001 317c-14.667 0 -26.668 -3 -36.001 -9s-16.666 -14 -21.999 -24s-9 -21.833 -11 -35.5s-3 -28.167 -3 -43.5c0 -34.667 4.66699 -61 14 -79s27.333 -27 54 -27c25.333 0 43.5 9 54.5 27
s16.5 47 16.5 87c-0.666992 31.333 -5.5 56.5 -14.5 75.5s-26.5 28.5 -52.5 28.5z" />
    <glyph glyph-name="seven" unicode="7" horiz-adv-x="465" 
d="M204 0h-115l204 591h-135v-87h-105v192h361v-98z" />
    <glyph glyph-name="eight" unicode="8" horiz-adv-x="465" 
d="M422 200c0 -38 -5.16602 -70 -15.499 -96s-24.333 -47.167 -42 -63.5s-37.834 -28 -60.501 -35s-46 -10.5 -70 -10.5c-25.333 0 -49.166 3.5 -71.499 10.5s-42 18.667 -59 35s-30.5 37.5 -40.5 63.5s-15 58 -15 96c0 36 5.5 68.5 16.5 97.5s30.5 50.167 58.5 63.5v2
c-28 15.333 -46.333 35.166 -55 59.499s-13 52.166 -13 83.499c0 62.667 16.5 110.834 49.5 144.501s76.167 50.5 129.5 50.5c26.667 0 51.167 -3.83301 73.5 -11.5s41.5 -19.5 57.5 -35.5s28.333 -36.167 37 -60.5s13 -53.5 13 -87.5c0 -31.333 -4.66699 -59.333 -14 -84
s-26.666 -44.334 -51.999 -59.001v-2c14.667 -6.66699 26.667 -15.5 36 -26.5s16.666 -23.667 21.999 -38s9.16602 -29.666 11.499 -45.999s3.5 -33.166 3.5 -50.499zM235.001 596c-24 0 -41.499 -8.16699 -52.499 -24.5s-16.5 -39.5 -16.5 -69.5
c0 -34 5.66699 -58.333 17 -73s28.666 -22 51.999 -22c46.667 0 70 32.667 70 98c0 29.333 -5.5 51.833 -16.5 67.5s-28.833 23.5 -53.5 23.5zM235.002 315c-24 0 -42.668 -8.66797 -56.001 -26.001s-20 -44 -20 -80c0 -41.333 6.83301 -70.166 20.5 -86.499
s32.167 -24.5 55.5 -24.5c26.667 0 45.834 9.5 57.501 28.5s17.5 47.167 17.5 84.5c0 69.333 -25 104 -75 104z" />
    <glyph glyph-name="nine" unicode="9" horiz-adv-x="465" 
d="M239 296c-6 -3.33301 -13.166 -5.66602 -21.499 -6.99902s-16.166 -2 -23.499 -2c-23.333 0 -43.833 4.66699 -61.5 14s-32.334 22.5 -44.001 39.5s-20.334 37.167 -26.001 60.5s-8.5 49.333 -8.5 78c0 34 3.5 64.833 10.5 92.5s18 51 33 70s34.167 33.667 57.5 44
s51.333 15.5 84 15.5c64 0 109.667 -18 137 -54s41 -86.667 41 -152c0 -30.667 -3.16699 -60.334 -9.5 -89.001s-14.5 -53.667 -24.5 -75l-150 -331h-121l130 294zM237.001 379c25.333 0 42.8311 9.83301 52.498 29.5s14.834 46.5 15.501 80.5c0 34 -4.5 60.5 -13.5 79.5
s-26.833 28.5 -53.5 28.5c-25.333 0 -43.666 -8.83301 -54.999 -26.5s-17 -47.5 -17 -89.5c0 -30 4.83301 -54.5 14.5 -73.5s28.5 -28.5 56.5 -28.5z" />
    <glyph glyph-name="colon" unicode=":" horiz-adv-x="241" 
d="M57 0v130h124v-130h-124zM57 278v130h124v-130h-124z" />
    <glyph glyph-name="semicolon" unicode=";" horiz-adv-x="243" 
d="M59 278v130h124v-130h-124zM56 -134l32 131h-29v132h125v-128l-66 -135h-62z" />
    <glyph glyph-name="less" unicode="&#x3c;" horiz-adv-x="465" 
d="M22 257v80l418 200v-100l-306 -140l305 -139v-101z" />
    <glyph glyph-name="equal" unicode="=" horiz-adv-x="465" 
d="M18 347v89h428v-89h-428zM18 159v88h428v-88h-428z" />
    <glyph glyph-name="greater" unicode="&#x3e;" horiz-adv-x="465" 
d="M24 57v101l305 139l-306 140v100l418 -200v-80z" />
    <glyph glyph-name="question" unicode="?" horiz-adv-x="452" 
d="M420 517c0 -15.333 -1.00293 -29.168 -3.00293 -41.501s-5 -23.666 -9 -33.999s-8.83301 -20 -14.5 -29l-18.5 -28.5c-8 -12 -16.667 -23.833 -26 -35.5s-18.166 -23.667 -26.499 -36s-15.333 -25.333 -21 -39s-8.5 -27.834 -8.5 -42.501v-45h-112v40
c0 25.333 2.33301 47.333 7 66s13.667 37.334 27 56.001c10.667 16 21.167 31 31.5 45s19.333 27.333 27 40s14 25 19 37s7.5 24 7.5 36c0 9.33301 -0.833008 19.166 -2.5 29.499s-5.16699 19.833 -10.5 28.5s-12.833 15.834 -22.5 21.501s-22.5 8.5 -38.5 8.5
c-24 0 -43.167 -8.83301 -57.5 -26.5s-22.166 -41.167 -23.499 -70.5l-55 7.5c-18 2.33301 -36.667 4.5 -56 6.5c2.66699 31.333 9.83398 58.833 21.501 82.5s26.167 43.5 43.5 59.5s37.333 28 60 36s47 12 73 12c62 0 108.833 -16.667 140.5 -50s47.5 -78 47.5 -134z
M179.997 -0.00195312v111h112v-111h-112z" />
    <glyph glyph-name="at" unicode="@" horiz-adv-x="828" 
d="M548 392c0 -22 -0.160156 -44.001 -0.493164 -66.001s-0.5 -44 -0.5 -66c0 -15.333 4.16699 -27.666 12.5 -36.999s18.833 -14 31.5 -14c13.333 0 25.833 3 37.5 9s21.667 15.667 30 29s14.833 31.166 19.5 53.499s7 49.833 7 82.5c0 40 -6.5 75.833 -19.5 107.5
s-30.833 58.667 -53.5 81s-49.834 39.5 -81.501 51.5s-65.834 18 -102.501 18c-46 0 -86.833 -8 -122.5 -24s-65.834 -38 -90.501 -66s-43.5 -60.667 -56.5 -98s-19.5 -77 -19.5 -119c0 -47.333 6.83301 -90 20.5 -128s33.167 -70.5 58.5 -97.5s55.833 -47.833 91.5 -62.5
s75.834 -22 120.501 -22c18.667 0 36.334 0.833008 53.001 2.5s32.667 4.33398 48 8.00098s30.666 8.5 45.999 14.5s31.333 13.333 48 22c5.33301 -12 10.166 -24 14.499 -36s9.16602 -23.667 14.499 -35c-34.667 -15.333 -69.834 -27.333 -105.501 -36
s-73.5 -13 -113.5 -13c-55.333 0 -106.166 8.16699 -152.499 24.5s-86.166 40.666 -119.499 72.999s-59.333 72.5 -78 120.5s-28 103.333 -28 166c0 54.667 8.83301 105.167 26.5 151.5s42.5 86.5 74.5 120.5s70.667 60.5 116 79.5s96 28.5 152 28.5
c53.333 0 101.166 -8.33301 143.499 -25s78.166 -39.667 107.499 -69s51.833 -64.166 67.5 -104.499s23.5 -84.5 23.5 -132.5c0 -42 -4.66699 -78.833 -14 -110.5s-22.166 -58 -38.499 -79s-36 -36.667 -59 -47s-47.833 -15.5 -74.5 -15.5
c-6.66699 0 -14.834 1.16699 -24.501 3.5s-19.5 6 -29.5 11s-19.167 11.333 -27.5 19s-14.5 16.834 -18.5 27.501h-3c-9.33301 -15.333 -23.833 -28.166 -43.5 -38.499s-40.834 -15.5 -63.501 -15.5c-38 0 -67.333 11 -88 33s-31 51 -31 87c0 16 2.5 31.333 7.5 46
s12.833 27.667 23.5 39s24 20.333 40 27s35 10 57 10h79v35c0 13.333 -4.5 24.666 -13.5 33.999s-24.833 14 -47.5 14c-28.667 0 -51 -12.333 -67 -37l-33.5 20l-33.5 20c13.333 25.333 32.166 44.666 56.499 57.999s51.833 20 82.5 20c20.667 0 39.667 -2 57 -6
s32.5 -10.833 45.5 -20.5s23.167 -22.5 30.5 -38.5s11 -35.667 11 -59v-29zM340.007 263.999c0 -12 4.33301 -22.667 13 -32s23 -14 43 -14c19.333 0 34.833 4.83301 46.5 14.5s17.5 24.167 17.5 43.5v38h-63c-18 0 -32 -4 -42 -12s-15 -20.667 -15 -38z" />
    <glyph glyph-name="A" unicode="A" horiz-adv-x="526" 
d="M359 150h-193c-1.33301 -6 -4 -16 -8 -30l-12.5 -45l-12 -45c-3.66699 -14 -6.5 -24 -8.5 -30h-119l201 696h110l202 -696h-121zM227 392l-36 -140h142l-35 139l-6.5 30c-3 14 -6.33301 28.667 -10 44l-10.5 43.5c-3.33301 13.667 -5.33301 23.5 -6 29.5h-5z" />
    <glyph glyph-name="B" unicode="B" horiz-adv-x="524" 
d="M484 206c0 -66.667 -17.834 -117.667 -53.501 -153s-83.5 -53 -143.5 -53h-224v696h213c66 0 115.5 -17 148.5 -51s49.5 -80.333 49.5 -139c0 -29.333 -6.16699 -56.333 -18.5 -81s-34.5 -44.334 -66.5 -59.001v-5c16.667 -5.33301 31 -13.166 43 -23.499
s21.833 -22.5 29.5 -36.5s13.334 -29.167 17.001 -45.5s5.5 -32.833 5.5 -49.5zM361.999 502c0 28 -7.5 50 -22.5 66s-39.167 24 -72.5 24h-90v-182h91c32.667 0 56.5 8.5 71.5 25.5s22.5 39.167 22.5 66.5zM371.999 213c0 29.333 -7.33301 52.999 -22 70.999s-39 27 -73 27
h-100v-202h101c18 0 33 2.66699 45 8s21.667 12.833 29 22.5s12.5 20.834 15.5 33.501s4.5 26 4.5 40z" />
    <glyph glyph-name="C" unicode="C" horiz-adv-x="492" 
d="M466 148c-11.333 -48.667 -35.3359 -86.501 -72.0029 -113.501s-81 -40.5 -133 -40.5c-36 0 -67.333 5.66699 -94 17s-49 27 -67 47s-31.333 43.5 -40 70.5s-13 56.167 -13 87.5v270c0 27.333 4.33301 54 13 80s21.834 49 39.501 69s39.834 36 66.501 48
s58.334 18 95.001 18c56 0 101.5 -14.667 136.5 -44s58.167 -66 69.5 -110l-109 -36c-2 10 -5.33301 19.667 -10 29s-11 17.833 -19 25.5s-17.667 13.834 -29 18.501s-24.333 7 -39 7c-17.333 0 -32.166 -3 -44.499 -9s-22.5 -13.833 -30.5 -23.5s-14 -20.5 -18 -32.5
s-6 -24 -6 -36v-277c0 -14.667 2 -28.667 6 -42s10.167 -25 18.5 -35s18.666 -17.833 30.999 -23.5s26.833 -8.5 43.5 -8.5c24.667 0 45.667 7 63 21s28.333 33.333 33 58z" />
    <glyph glyph-name="D" unicode="D" horiz-adv-x="537" 
d="M372 437c0 47.333 -8.33203 84.667 -24.999 112s-46.334 41 -89.001 41h-81v-484h82c42.667 0 72.167 11.167 88.5 33.5s24.5 53.5 24.5 93.5v204zM275.001 696.001c46.667 0 86.6689 -8.66797 120.002 -26.001s57.666 -46 72.999 -86
c9.33301 -24.667 14.833 -55.167 16.5 -91.5s2.5 -77.5 2.5 -123.5c0 -56.667 -0.333008 -105.167 -1 -145.5s-6.33398 -74.833 -17.001 -103.5c-8.66699 -23.333 -20 -42.666 -34 -57.999s-30 -27.5 -48 -36.5s-37.667 -15.5 -59 -19.5s-43.333 -6 -66 -6h-200v696h213z
" />
    <glyph glyph-name="E" unicode="E" horiz-adv-x="473" 
d="M63 0v696h387v-106h-273v-186h235v-104h-235v-191h273v-109h-387z" />
    <glyph glyph-name="F" unicode="F" horiz-adv-x="463" 
d="M177 590v-189h235v-104h-235v-297h-114v696h387v-106h-273z" />
    <glyph glyph-name="G" unicode="G" horiz-adv-x="523" 
d="M263 701c28 0 53.5 -3.83398 76.5 -11.501s43.167 -18.5 60.5 -32.5s31.833 -30.5 43.5 -49.5s20.167 -39.5 25.5 -61.5l-109 -34c-2 10 -5.33301 19.667 -10 29s-11 17.666 -19 24.999s-17.667 13.333 -29 18s-24.333 7 -39 7c-17.333 0 -32.166 -3 -44.499 -9
s-22.5 -13.833 -30.5 -23.5s-14 -20.5 -18 -32.5s-6 -24 -6 -36v-278c0 -14.667 2 -28.667 6 -42s10.167 -25 18.5 -35s18.666 -18 30.999 -24s26.833 -9 43.5 -9c33.333 0 58.5 9.5 75.5 28.5s25.5 42.167 25.5 69.5v82h-104v99h218v-165c0 -33.333 -5 -63.666 -15 -90.999
s-24.167 -50.666 -42.5 -69.999s-40.833 -34.333 -67.5 -45s-56.667 -16 -90 -16c-36 0 -67.333 5.66699 -94 17s-48.834 27 -66.501 47s-30.834 43.5 -39.501 70.5s-13 56.167 -13 87.5v270c0 27.333 4.16699 54 12.5 80s21.333 49 39 69s39.834 36 66.501 48
s58.334 18 95.001 18z" />
    <glyph glyph-name="H" unicode="H" horiz-adv-x="550" 
d="M373 0v301h-196v-301h-115v696h115v-292h196v292h114v-696h-114z" />
    <glyph glyph-name="I" unicode="I" horiz-adv-x="243" 
d="M64 0v696h115v-696h-115z" />
    <glyph glyph-name="J" unicode="J" horiz-adv-x="421" 
d="M359 190c0 -34.667 -5.16797 -64.333 -15.501 -89s-24.5 -44.834 -42.5 -60.501s-39 -27.167 -63 -34.5s-49.333 -11 -76 -11c-34 0 -65.167 6.16699 -93.5 18.5s-52.833 32.5 -73.5 60.5l80 73c10.667 -15.333 23.834 -26.666 39.501 -33.999s30.5 -11 44.5 -11
c25.333 0 46 7.5 62 22.5s24 37.833 24 68.5v503h114v-506z" />
    <glyph glyph-name="K" unicode="K" horiz-adv-x="534" 
d="M407 0l-75.5 155.5l-75.5 155.5l-40 -60.5l-40 -59.5v-191h-114v696h114v-315h3l204 315h131l-186 -278l103 -209.5l104 -208.5h-128z" />
    <glyph glyph-name="L" unicode="L" horiz-adv-x="462" 
d="M63 0v696h114v-587h269v-109h-383z" />
    <glyph glyph-name="M" unicode="M" horiz-adv-x="669" 
d="M499 0v407h-4l-51 -130l-66 -152h-81l-68 157l-50 126l-4 -1v-407h-114v696h109l98 -228l68 -168h4l67 169l96 227h110v-696h-114z" />
    <glyph glyph-name="N" unicode="N" horiz-adv-x="579" 
d="M416 0l-164 299l-73 143l-3 -1v-441h-115v696h105l154 -284l82 -156l4 1v439h114v-696h-104z" />
    <glyph glyph-name="O" unicode="O" horiz-adv-x="516" 
d="M471 211c0 -33.333 -5.16895 -63.334 -15.502 -90.001s-25 -49.5 -44 -68.5s-41.5 -33.5 -67.5 -43.5s-54.667 -15 -86 -15c-38 0 -70.667 6.16699 -98 18.5s-49.5 29 -66.5 50s-29.5 45.333 -37.5 73s-12 56.834 -12 87.501v263c0 24.667 3.83301 49.667 11.5 75
s20 48.333 37 69s39 37.667 66 51s60.167 20 99.5 20c36.667 0 68.334 -6.33301 95.001 -19s48.834 -29.167 66.501 -49.5s30.667 -43.333 39 -69s12.5 -51.5 12.5 -77.5v-275zM354.998 487.999c0 8.66699 -1.50195 18.8301 -4.50195 30.4971s-8.16699 22.834 -15.5 33.501
s-17.166 19.834 -29.499 27.501s-28.166 11.5 -47.499 11.5s-35.5 -3.5 -48.5 -10.5s-23.333 -15.667 -31 -26s-13.167 -21.5 -16.5 -33.5s-5 -23.333 -5 -34l1 -266c0 -33.333 7.66699 -61.333 23 -84s41.333 -34 78 -34c26 0 48.5 8.83301 67.5 26.5
s28.5 41.834 28.5 72.501v286z" />
    <glyph glyph-name="P" unicode="P" horiz-adv-x="502" 
d="M486 481c0 -30 -4.33301 -57.999 -13 -83.999s-21.5 -48.667 -38.5 -68s-38.5 -34.5 -64.5 -45.5s-56.333 -16.5 -91 -16.5h-102v-267h-114v696h210c32.667 0 62 -4.33301 88 -13s48.333 -21.834 67 -39.501s33 -40 43 -67s15 -58.833 15 -95.5zM373 483.001
c0 34.667 -8.33301 61.167 -25 79.5s-42 27.5 -76 27.5h-95v-216h96c34 0 59.167 9.83301 75.5 29.5s24.5 46.167 24.5 79.5z" />
    <glyph glyph-name="Q" unicode="Q" horiz-adv-x="524" 
d="M478 211c0 -40 -7.66895 -76.0029 -23.002 -108.003l70 -57l-55 -65l-35 27.5l-35 27.5c-36 -28 -81 -42 -135 -42c-38 0 -70.667 6.16699 -98 18.5s-49.5 29 -66.5 50s-29.5 45.333 -37.5 73s-12 56.834 -12 87.501v263c0 24.667 3.83301 49.834 11.5 75.501
s20 48.834 37 69.501s39 37.5 66 50.5s60.167 19.5 99.5 19.5c36.667 0 68.334 -6.16699 95.001 -18.5s48.834 -28.666 66.501 -48.999s30.667 -43.333 39 -69s12.5 -51.834 12.5 -78.501v-275zM362.998 488.997c0 8.66699 -1.49707 18.832 -4.49707 30.499
s-8.16699 22.834 -15.5 33.501s-17.333 19.667 -30 27s-28.667 11 -48 11c-18.667 0 -34.334 -3.33301 -47.001 -10s-23 -15.167 -31 -25.5s-13.833 -21.5 -17.5 -33.5s-5.5 -23 -5.5 -33v-16c0 -23.333 -0.666992 -48.666 -2 -75.999s-2.16602 -54.666 -2.49902 -81.999
s0.666992 -53.833 3 -79.5s7.16602 -48.334 14.499 -68.001s18.166 -35.5 32.499 -47.5s33.166 -18 56.499 -18c7.33301 0 14.833 1.16699 22.5 3.5s14.167 5.16602 19.5 8.49902l-62 49l53 66l59 -46c1.33301 3.33301 2.33301 7 3 11l2 12v283z" />
    <glyph glyph-name="R" unicode="R" horiz-adv-x="528" 
d="M370 0l-104.001 290h-89v-290h-114v696h224c28.667 0 55.334 -4.16699 80.001 -12.5s45.834 -20.833 63.501 -37.5s31.5 -37.5 41.5 -62.5s15 -54.167 15 -87.5c0 -44 -9.33301 -82 -28 -114s-46.334 -56.333 -83.001 -73l119 -309h-125zM374.999 496
c0 32.667 -8.33301 56.833 -25 72.5s-40.667 23.5 -72 23.5h-101v-199h100c30 0 53.833 8.66699 71.5 26s26.5 43 26.5 77z" />
    <glyph glyph-name="S" unicode="S" horiz-adv-x="504" 
d="M474 198c0 -63.333 -19.333 -113.165 -58 -149.498s-93.334 -54.5 -164.001 -54.5c-56 0 -102.333 11.167 -139 33.5s-65.334 51.166 -86.001 86.499l94 68c15.333 -24 33.666 -43.167 54.999 -57.5s47.333 -21.5 78 -21.5c36.667 0 62.5 8.83301 77.5 26.5
s22.5 39.5 22.5 65.5c0 16 -3 29.667 -9 41s-14.333 21.166 -25 29.499s-23.667 15.5 -39 21.5s-32 11.667 -50 17c-33.333 10.667 -61.666 22 -84.999 34s-42.5 25.833 -57.5 41.5s-25.833 33.667 -32.5 54s-10 43.5 -10 69.5c0 28.667 5 55.167 15 79.5
s24.333 45.333 43 63s40.834 31.334 66.501 41.001s54.5 14.5 86.5 14.5c52 0 94.167 -8.66699 126.5 -26s58.166 -41 77.499 -71l-87 -73c-15.333 21.333 -32.666 37 -51.999 47s-41.666 15 -66.999 15c-30 0 -53 -8.16699 -69 -24.5s-24 -36.833 -24 -61.5
c0 -14 3.66699 -26.167 11 -36.5s17.333 -19.5 30 -27.5s27.667 -15.167 45 -21.5s35.666 -12.5 54.999 -18.5c32.667 -10 59.834 -21.5 81.501 -34.5s39.167 -27.833 52.5 -44.5s22.833 -35.334 28.5 -56.001s8.5 -44 8.5 -70z" />
    <glyph glyph-name="T" unicode="T" horiz-adv-x="431" 
d="M271 592v-592h-114v592h-153v104h421v-104h-154z" />
    <glyph glyph-name="U" unicode="U" horiz-adv-x="535" 
d="M482 696v-484.999c0 -33.333 -5.16699 -63.5 -15.5 -90.5s-25 -49.833 -44 -68.5s-41.5 -33 -67.5 -43s-54.667 -15 -86 -15c-36 0 -67.5 5.83301 -94.5 17.5s-49.333 27.5 -67 47.5s-31 43.5 -40 70.5s-13.5 55.833 -13.5 86.5v480h114v-483c0 -30 8.5 -55.667 25.5 -77
s42.167 -32 75.5 -32c28 0 51.167 9.16699 69.5 27.5s27.5 43.166 27.5 74.499v490h116z" />
    <glyph glyph-name="V" unicode="V" horiz-adv-x="498" 
d="M304 0h-111l-185 696h122l73 -307l45 -208h4l44 208l73 307h121z" />
    <glyph glyph-name="W" unicode="W" horiz-adv-x="725" 
d="M571 0l-101.998 0.000976562c-11.333 50 -23.333 100.167 -36 150.5s-24.667 100.833 -36 151.5l-33 145h-3l-16 -72l-16 -72c-11.333 -50.667 -23.5 -101.334 -36.5 -152.001s-25.167 -101 -36.5 -151h-102l-143 695h123c8 -48 16.333 -95.5 25 -142.5
s17 -94.5 25 -142.5c5.33301 -28 10 -56.167 14 -84.5s8.33301 -56.5 13 -84.5h4c4.66699 21.333 9.16699 43 13.5 65s9.16602 43.667 14.499 65l37 162l37 162h92l75 -326l13.5 -65c4.33301 -21.333 9.16602 -43 14.499 -65h4l25 166l26.5 157l22.5 133h123z" />
    <glyph glyph-name="X" unicode="X" horiz-adv-x="495" 
d="M131 0h-129l22.5 43.5l32.5 63.5l37.5 73l37 73l32 63.5l22.5 43.5l-172 336h130l102 -225l104 225h129l-173 -336l185 -360h-128l-116 247z" />
    <glyph glyph-name="Y" unicode="Y" horiz-adv-x="476" 
d="M241 404c7.33301 22.667 15.001 45.001 23.001 67.001l24 67l61 158h121l-176 -412v-284h-112v284l-176 413h124l30.5 -81c10.333 -26.667 20.166 -53.334 29.499 -80.001l22.5 -66l22.5 -66h6z" />
    <glyph glyph-name="Z" unicode="Z" horiz-adv-x="434" 
d="M26 0v102l253 490h-242v104h372v-97l-253 -491h253v-108h-383z" />
    <glyph glyph-name="bracketleft" unicode="[" horiz-adv-x="262" 
d="M66 -100v798h179v-78h-78v-643h78v-77h-179z" />
    <glyph glyph-name="backslash" unicode="\" horiz-adv-x="297" 
d="M1 720h87l204 -754h-86z" />
    <glyph glyph-name="bracketright" unicode="]" horiz-adv-x="262" 
d="M19 -101v77h77v644h-77v78h178v-799h-178z" />
    <glyph glyph-name="asciicircum" unicode="^" horiz-adv-x="465" 
d="M115 301h-100l179 394h80l22 -49l31 -69l36 -79l36.5 -79l31.5 -69l22 -49h-100l-119 276z" />
    <glyph glyph-name="underscore" unicode="_" horiz-adv-x="500" 
d="M0 -145v76h500v-76h-500z" />
    <glyph glyph-name="grave" unicode="`" horiz-adv-x="438" 
d="M262 543l-120 174l99 38l84 -181z" />
    <glyph glyph-name="a" unicode="a" horiz-adv-x="444" 
d="M290 0l0.00292969 38l-4 2c-12 -16 -28 -27.5 -48 -34.5s-40.333 -10.5 -61 -10.5c-48.667 0 -84.667 13.667 -108 41s-35 63.333 -35 108c0 21.333 3.33301 41.166 10 59.499s17 34.333 31 48s31.667 24.5 53 32.5s46.666 12 75.999 12h86v45
c0 16.667 -5.66699 30.834 -17 42.501s-30 17.5 -56 17.5c-18 0 -34.667 -3.16699 -50 -9.5s-27.333 -17.833 -36 -34.5c-2.66699 1.33301 -8 4.5 -16 9.5l-25.5 15.5c-9 5.33301 -17.333 10.5 -25 15.5s-12.834 8.5 -15.501 10.5c15.333 32 38 55.333 68 70s64 22 102 22
c26 0 50 -2.5 72 -7.5s41.167 -13.5 57.5 -25.5s29.166 -27.833 38.499 -47.5s14 -44.167 14 -73.5v-346h-111zM290.003 212l-78.999 -0.000976562c-22 0 -39.167 -5.16699 -51.5 -15.5s-18.5 -25.5 -18.5 -45.5c0 -15.333 5.5 -28.666 16.5 -39.999s29.167 -17 54.5 -17
c21.333 0 39.666 5.5 54.999 16.5s23 28.833 23 53.5v48z" />
    <glyph glyph-name="b" unicode="b" horiz-adv-x="450" 
d="M158 41v-40.998h-111v726h111v-276h3c12.667 16.667 28.5 29.167 47.5 37.5s36.833 12.5 53.5 12.5c34.667 0 62.167 -7.33301 82.5 -22s35.5 -33.834 45.5 -57.501s16.333 -50.334 19 -80.001s4 -59.5 4 -89.5c0 -30.667 -1.5 -61.334 -4.5 -92.001
s-9.83301 -58.167 -20.5 -82.5s-26 -44.166 -46 -59.499s-47.333 -23 -82 -23c-19.333 0 -37.5 4 -54.5 12s-32.167 20.333 -45.5 37zM228 395.002c-16.667 0 -29.6689 -4.50195 -39.002 -13.502s-16.333 -20.5 -21 -34.5s-7.66699 -29.333 -9 -46s-2 -33 -2 -49
c0 -19.333 0.333008 -38.166 1 -56.499s3.33398 -34.833 8.00098 -49.5s11.834 -26.334 21.501 -35.001s23.167 -13 40.5 -13c16 0 28.667 3.83301 38 11.5s16.5 18.334 21.5 32.001s8.33301 29.834 10 48.501s2.5 39 2.5 61c0 20 -0.833008 38.833 -2.5 56.5s-5 33 -10 46
s-12.333 23.167 -22 30.5s-22.167 11 -37.5 11z" />
    <glyph glyph-name="c" unicode="c" horiz-adv-x="404" 
d="M220 501c38.667 0 72.333 -9.00098 101 -27.001s49.667 -43.333 63 -76c-2.66699 -2 -8.5 -5.33301 -17.5 -10l-29 -14.5l-29 -14.5c-9 -4.66699 -14.833 -8 -17.5 -10c-14.667 32.667 -37 49 -67 49c-17.333 0 -31.5 -3.66699 -42.5 -11s-19.5 -17.5 -25.5 -30.5
s-10 -28.667 -12 -47s-3 -38.166 -3 -59.499c0 -22 1.16699 -42.5 3.5 -61.5s6.5 -35.167 12.5 -48.5s14.333 -23.833 25 -31.5s24.334 -11.5 41.001 -11.5c16 0 29.5 4.33301 40.5 13s20.167 20 27.5 34c2.66699 -2 8.5 -5.16699 17.5 -9.5l29 -14.5l29 -14.5
c9 -4.33301 15.167 -7.5 18.5 -9.5c-13.333 -32 -34.333 -56.833 -63 -74.5s-62.334 -26.5 -101.001 -26.5c-37.333 0 -68.333 6.33301 -93 19s-44.167 30.167 -58.5 52.5s-24.5 49.166 -30.5 80.499s-9 66 -9 104c0 36.667 3.5 70.334 10.5 101.001s18 57 33 79
s34.5 39.167 58.5 51.5s53.333 18.5 88 18.5z" />
    <glyph glyph-name="d" unicode="d" horiz-adv-x="450" 
d="M291 42c-13.333 -16.667 -28.6689 -28.667 -46.002 -36s-35.666 -11 -54.999 -11c-34.667 0 -62.167 7.16699 -82.5 21.5s-35.666 33.333 -45.999 57s-16.833 50.667 -19.5 81s-4 61.5 -4 93.5c0 30.667 1.83301 61 5.5 91s11 57 22 81s26.833 43.333 47.5 58
s48 22 82 22c16.667 0 33.667 -3.66699 51 -11s32 -18.333 44 -33h3v270h111v-726h-111v40zM222.997 395c-16 0 -28.833 -4 -38.5 -12s-17 -18.833 -22 -32.5s-8.16699 -29.167 -9.5 -46.5s-2 -35 -2 -53c0 -21.333 0.833008 -41.166 2.5 -59.499s5 -34.5 10 -48.5
s12.167 -25 21.5 -33s22 -12 38 -12c17.333 0 30.833 4.66699 40.5 14s16.667 21.5 21 36.5s7 31.5 8 49.5s1.5 36 1.5 54c0 16.667 -0.666992 33.667 -2 51s-4.5 32.666 -9.5 45.999s-12.167 24.333 -21.5 33s-22 13 -38 13z" />
    <glyph glyph-name="e" unicode="e" horiz-adv-x="444" 
d="M305 145l45.5 -23.999l45.5 -25c-15.333 -33.333 -38 -58.5 -68 -75.5s-63.333 -25.5 -100 -25.5c-70 0 -119.5 20.667 -148.5 62s-43.5 104.666 -43.5 189.999c0 35.333 2.83301 68.333 8.5 99s15.667 57.5 30 80.5s33.5 41.167 57.5 54.5s54.333 20 91 20
c34 0 62.667 -5.66699 86 -17s42.333 -27 57 -47s25.167 -43.667 31.5 -71s9.5 -57.333 9.5 -90v-58h-259c0 -16 1 -31.5 3 -46.5s6 -28.167 12 -39.5s14 -20.333 24 -27s23 -10 39 -10s30.667 4.5 44 13.5s25 21.167 35 36.5zM294 295.001c0 31.333 -5.5 56.5 -16.5 75.5
s-29.833 28.5 -56.5 28.5s-45 -10 -55 -30s-15.667 -44.667 -17 -74h145z" />
    <glyph glyph-name="f" unicode="f" horiz-adv-x="279" 
d="M180 407v-407.001h-111v407h-52v88h52v99c0 22.667 3.5 42.334 10.5 59.001s16.5 30.5 28.5 41.5s26 19.167 42 24.5s33.333 8 52 8h65v-98h-44c-14.667 0 -25.5 -4.5 -32.5 -13.5s-10.5 -20.5 -10.5 -34.5v-86h87v-88h-87z" />
    <glyph glyph-name="g" unicode="g" horiz-adv-x="454" 
d="M402 -6c0 -60 -15.666 -108.328 -46.999 -144.995s-79 -55 -143 -55c-34 0 -65 7 -93 21s-51 34.333 -69 61l16 12.5l25.5 20.5l25.5 20.5l16 12.5c9.33301 -14 20.833 -25.333 34.5 -34s29.167 -13 46.5 -13c24.667 0 43.667 7.5 57 22.5s20 35.167 20 60.5v71h-3
c-12.667 -16.667 -28.5 -29.167 -47.5 -37.5s-36.833 -12.5 -53.5 -12.5c-35.333 0 -63 7.33301 -83 22s-35.167 33.667 -45.5 57s-16.833 49.666 -19.5 78.999s-4 58.666 -4 87.999s1.33301 59.166 4 89.499s9.16699 57.666 19.5 81.999s25.666 44.333 45.999 60
s48.166 23.5 83.499 23.5c18.667 0 36.834 -3.83301 54.501 -11.5s33.167 -19.834 46.5 -36.501l2 2v41h111v-501zM219.001 105.005c16 0 28.6699 4.00391 38.0029 12.0039s16.666 18.667 21.999 32s8.83301 28.166 10.5 44.499s2.5 33.166 2.5 50.499
c0 19.333 -0.5 38.166 -1.5 56.499s-3.83301 34.5 -8.5 48.5s-11.834 25.333 -21.501 34s-23.167 13 -40.5 13c-16 0 -28.833 -4 -38.5 -12s-17 -18.667 -22 -32s-8.16699 -29.333 -9.5 -48s-2 -38.334 -2 -59.001c0 -20 0.833008 -38.5 2.5 -55.5s5 -31.833 10 -44.5
s12.167 -22.5 21.5 -29.5s21.666 -10.5 36.999 -10.5z" />
    <glyph glyph-name="h" unicode="h" horiz-adv-x="460" 
d="M301 0l-0.00390625 317.999c0 24.667 -6.16699 43.5 -18.5 56.5s-29.166 19.5 -50.499 19.5s-38.666 -6.66699 -51.999 -20s-20 -32.666 -20 -57.999v-316h-110v726h110v-278h4c12.667 15.333 28.334 27.833 47.001 37.5s38.334 14.5 59.001 14.5
c42.667 0 77 -13.667 103 -41s39 -64.333 39 -111v-348h-111z" />
    <glyph glyph-name="i" unicode="i" horiz-adv-x="225" 
d="M57 592v104h111v-104h-111zM57 0v495h111v-495h-111z" />
    <glyph glyph-name="j" unicode="j" horiz-adv-x="233" 
d="M173 -58c0 -44 -13.499 -78.833 -40.499 -104.5s-64.5 -38.5 -112.5 -38.5h-31v100h22c19.333 0.666992 32.666 7.5 39.999 20.5s11 29.5 11 49.5v527h111v-554zM62.001 592v104h111v-104h-111z" />
    <glyph glyph-name="k" unicode="k" horiz-adv-x="462" 
d="M167 304l140 190h136l-151 -192l169 -302h-129l-114 212l-54 -74v-138h-110v725h110v-421h3z" />
    <glyph glyph-name="l" unicode="l" horiz-adv-x="244" 
d="M190 -2c-43.333 0 -77 9.33203 -101 27.999s-36 52.334 -36 101.001v599h111v-577c0 -19.333 3.66699 -32.833 11 -40.5s19 -11.5 35 -11.5h16v-99h-36z" />
    <glyph glyph-name="m" unicode="m" horiz-adv-x="715" 
d="M662 0l-110.003 0.000976562v278c0 36 -4.33301 64.333 -13 85s-27 31 -55 31c-14.667 0 -26.5 -2.66699 -35.5 -8s-16.167 -13 -21.5 -23s-9 -22 -11 -36s-3 -30 -3 -48v-279h-111v278c0 36 -4.16699 64.333 -12.5 85s-26.833 31 -55.5 31s-47.667 -10.5 -57 -31.5
s-14 -49.833 -14 -86.5v-276h-110v494h110v-48c1.33301 0 2 -0.166992 2 -0.5s0.666992 -0.5 2 -0.5c12.667 17.333 28.334 30.833 47.001 40.5s38.334 14.5 59.001 14.5c28 0 51.833 -5.83301 71.5 -17.5s35.5 -27.167 47.5 -46.5h1c17.333 20.667 36.5 36.5 57.5 47.5
s44.167 16.5 69.5 16.5c24 0 45 -4.33301 63 -13s32.833 -20.334 44.5 -35.001s20.334 -32 26.001 -52s8.5 -41.333 8.5 -64v-336z" />
    <glyph glyph-name="n" unicode="n" horiz-adv-x="459" 
d="M300 0l-0.00292969 318.001c0 24.667 -6.66699 43.5 -20 56.5s-30 19.5 -50 19.5c-21.333 0 -38.666 -6.83301 -51.999 -20.5s-20 -32.834 -20 -57.501v-316h-110v495h111v-48h3c13.333 16 29.333 28.833 48 38.5s38.334 14.5 59.001 14.5
c44.667 0 79.334 -13.5 104.001 -40.5s37 -63.833 37 -110.5v-349h-110z" />
    <glyph glyph-name="o" unicode="o" horiz-adv-x="449" 
d="M228 502c42.667 0 76.3311 -8.5 100.998 -25.5s43.334 -38.167 56.001 -63.5c9.33301 -18.667 15.666 -43.167 18.999 -73.5s5 -61.5 5 -93.5c0 -26.667 -1.66699 -54.667 -5 -84s-8.66602 -53 -15.999 -71c-7.33301 -18.667 -16.833 -34.167 -28.5 -46.5
s-25 -22.333 -40 -30s-31.167 -13.167 -48.5 -16.5s-35 -5 -53 -5c-36 0 -66.167 6.66699 -90.5 20s-43.166 31 -56.499 53c-12 19.333 -20.5 44.333 -25.5 75s-7.5 65.334 -7.5 104.001c0 30 1.5 59.167 4.5 87.5s8.16699 51.166 15.5 68.499c13.333 31.333 34 56 62 74
s64 27 108 27zM225.997 400c-14.667 0 -27.999 -3.66992 -39.999 -11.0029s-20.667 -18.666 -26 -33.999c-4.66699 -12 -7.83398 -27.833 -9.50098 -47.5s-2.5 -42.167 -2.5 -67.5c0 -19.333 0.5 -37.666 1.5 -54.999s3.83301 -32.333 8.5 -45c11.333 -30 33 -45 65 -45
c15.333 0 29.333 3.83301 42 11.5s21.667 22.834 27 45.501c2.66699 9.33301 4.5 23 5.5 41s1.5 38.333 1.5 61c0 20 -0.666992 38.5 -2 55.5s-4 31.167 -8 42.5c-11.333 32 -32.333 48 -63 48z" />
    <glyph glyph-name="p" unicode="p" horiz-adv-x="450" 
d="M159 453c12.667 16.667 27.833 28.667 45.5 36s35.834 11 54.501 11c34.667 0 62 -7.5 82 -22.5s35.333 -34.667 46 -59s17.5 -51.666 20.5 -81.999s4.5 -60.5 4.5 -90.5s-1.83301 -60 -5.5 -90s-11 -57 -22 -81s-26.833 -43.333 -47.5 -58s-48 -22 -82 -22
c-16.667 0 -33.834 3.66699 -51.501 11s-32.5 18.666 -44.5 33.999c-0.666992 0 -1.16699 -0.166992 -1.5 -0.5s-0.833008 -0.5 -1.5 -0.5v-239h-110v695h110v-41c0.666992 0 1.16699 -0.166992 1.5 -0.5s0.833008 -0.5 1.5 -0.5zM226.999 100
c16 0 28.834 4.16699 38.501 12.5s17 19.5 22 33.5s8.33301 29.667 10 47s2.5 35 2.5 53c0 20.667 -0.833008 40.167 -2.5 58.5s-5 34.333 -10 48s-12.167 24.334 -21.5 32.001s-22 11.5 -38 11.5c-17.333 0 -30.833 -4.33301 -40.5 -13s-16.834 -20.334 -21.501 -35.001
s-7.5 -31.167 -8.5 -49.5s-1.5 -37.166 -1.5 -56.499c0 -16 0.666992 -32.333 2 -49s4.33301 -31.834 9 -45.501s11.667 -25 21 -34s22.333 -13.5 39 -13.5z" />
    <glyph glyph-name="q" unicode="q" horiz-adv-x="454" 
d="M297 453v40.999h111v-695h-111v245h-3c-12.667 -16.667 -28.5 -29.167 -47.5 -37.5s-36.833 -12.5 -53.5 -12.5c-34 0 -61.167 7 -81.5 21s-35.666 32.667 -45.999 56s-17.166 50 -20.499 80s-5 60.667 -5 92c0 30 1.66699 60.333 5 91s10.5 58.334 21.5 83.001
s26.5 44.667 46.5 60s47 23 81 23c19.333 0 37.666 -4 54.999 -12s32.666 -20.333 45.999 -37zM226 98.999c16 0 28.668 4.50098 38.001 13.501s16.5 20.5 21.5 34.5s8.33301 29.333 10 46s2.5 33 2.5 49c0 19.333 -0.5 38.166 -1.5 56.499s-3.83301 34.833 -8.5 49.5
s-11.834 26.334 -21.501 35.001s-23.167 13 -40.5 13c-15.333 0 -27.833 -4 -37.5 -12s-17 -19 -22 -33s-8.33301 -30.333 -10 -49s-2.5 -38.334 -2.5 -59.001c0 -18 0.666992 -35.667 2 -53s4.5 -32.833 9.5 -46.5s12.333 -24.5 22 -32.5s22.5 -12 38.5 -12z" />
    <glyph glyph-name="r" unicode="r" horiz-adv-x="338" 
d="M259 391c-28 0 -50.166 -7.50098 -66.499 -22.501s-24.5 -39.167 -24.5 -72.5v-297h-111v496h110v-57l3 -1c13.333 24 29.666 40.5 48.999 49.5s41 13.5 65 13.5c10 0 19.333 -0.833008 28 -2.5s16.667 -5.16699 24 -10.5l-22 -108
c-9.33301 4.66699 -18.5 7.83398 -27.5 9.50098s-18.167 2.5 -27.5 2.5z" />
    <glyph glyph-name="s" unicode="s" horiz-adv-x="424" 
d="M395 147c0 -46 -16.333 -83 -49 -111s-77.667 -42 -135 -42c-44 0 -81 7.83301 -111 23.5s-54.667 40.167 -74 73.5l82 60c22.667 -39.333 56.667 -59 102 -59c22.667 0 40.5 5 53.5 15s19.5 23.667 19.5 41c0 18 -6.16699 30.667 -18.5 38s-29.5 13.666 -51.5 18.999
c-23.333 5.33301 -45.5 11.5 -66.5 18.5s-39.5 16 -55.5 27s-28.833 24.833 -38.5 41.5s-14.5 37 -14.5 61c0 22.667 4.5 43.167 13.5 61.5s21.167 33.833 36.5 46.5s33.666 22.334 54.999 29.001s44.333 10 69 10c44.667 0 80.5 -7.5 107.5 -22.5s48.833 -35.5 65.5 -61.5
l-74 -64c-22 34 -54 51 -96 51c-24.667 0 -41.834 -5.16699 -51.501 -15.5s-14.5 -21.5 -14.5 -33.5c0 -8 2.5 -14.833 7.5 -20.5s11.833 -10.5 20.5 -14.5s18.334 -7.5 29.001 -10.5s21.667 -5.83301 33 -8.5c22.667 -5.33301 43.667 -11.5 63 -18.5
s35.833 -16.333 49.5 -28s24.334 -26.167 32.001 -43.5s11.5 -38.333 11.5 -63z" />
    <glyph glyph-name="t" unicode="t" horiz-adv-x="277" 
d="M196 0c-41.333 0 -72.332 11.667 -92.999 35s-31 52 -31 86v286h-52v88h52v130h108v-130h68v-88h-68v-253c0 -17.333 3.66699 -30.833 11 -40.5s19.666 -14.5 36.999 -14.5h24v-99h-56z" />
    <glyph glyph-name="u" unicode="u" horiz-adv-x="462" 
d="M301 0l0.00195312 45.999c-0.666992 0 -1.33398 0.166992 -2.00098 0.5s-1.33398 0.5 -2.00098 0.5c-12.667 -16.667 -28.5 -29.5 -47.5 -38.5s-38.5 -13.5 -58.5 -13.5c-45.333 0 -80.333 13.333 -105 40s-37 63.334 -37 110.001v349h110v-318
c0 -24.667 6.83301 -43.667 20.5 -57s30.167 -20 49.5 -20c26 0 44.5 9.5 55.5 28.5s16.5 44.5 16.5 76.5v290h110v-494h-110z" />
    <glyph glyph-name="v" unicode="v" horiz-adv-x="424" 
d="M216 154l7.50293 30.999l9.5 39.5l9.5 39.5c3 12.667 5.5 22.667 7.5 30c2.66699 12.667 6.16699 27.834 10.5 45.501l13.5 54.5l13.5 54.5l11.5 45.5h120c-2.66699 -6.66699 -7.83398 -22.5 -15.501 -47.5l-27.5 -89l-33.5 -110l-33.5 -110l-27.5 -89.5
c-7.66699 -25.333 -12.834 -41.333 -15.501 -48h-108l-35.5 112l-41.5 135.5l-41 135l-35 111.5h120l12 -44.5l14 -55l13.5 -55c4.33301 -17.667 8.16602 -32.5 11.499 -44.5l36 -141h4z" />
    <glyph glyph-name="w" unicode="w" horiz-adv-x="652" 
d="M642 495l-65.999 -247.498l-67 -247.5h-107l-30 115l-46 185h-3c-7.33301 -28 -14.333 -57 -21 -87s-13.667 -58.333 -21 -85l-18.5 -70.5l-14.5 -57.5h-108l-66 247.5l-67 247.5h118l32 -152l18 -87c6 -28.667 12.667 -57.667 20 -87h4
c7.33301 29.333 14.166 58 20.499 86l20.5 87l18 76.5c6 25.667 11.667 51.167 17 76.5h101l31 -138l46 -191h4c2 6.66699 3.83301 13.667 5.5 21l6.5 30l10 49l16 77c5.33301 25.333 10.333 50.666 15 75.999s10 50.666 16 75.999h116v0z" />
    <glyph glyph-name="x" unicode="x" horiz-adv-x="432" 
d="M298 0l-83 166l-83 -166h-126l149 253l-71.5 120.5l-71.5 121.5h127l76 -158h1l76 158h125l-143 -243l150 -252h-126z" />
    <glyph glyph-name="y" unicode="y" horiz-adv-x="413" 
d="M230 -93c-11.333 -37.333 -29.167 -64.667 -53.5 -82s-53.5 -26 -87.5 -26h-37v95h26c29.333 0 49.333 20.333 60 61l18 64l-155 476h118l48 -179l39 -152h4l38 152l48 179h116z" />
    <glyph glyph-name="z" unicode="z" horiz-adv-x="389" 
d="M28 0v96l203 302h-189v97h318v-92l-203 -301h203v-102h-332z" />
    <glyph glyph-name="braceleft" unicode="{" horiz-adv-x="267" 
d="M185 -100c-28.667 0 -52.8301 10.3301 -72.4971 30.9971s-29.5 48.334 -29.5 83.001v127c0 38 -4.83301 67.333 -14.5 88s-27.834 32 -54.501 34v72c23.333 2 40.666 12.833 51.999 32.5s17 45.167 17 76.5v137c0 36 10 64.167 30 84.5s44 30.5 72 30.5h70v-76h-31
c-14 0 -24.333 -7.16699 -31 -21.5s-10 -30.166 -10 -47.499v-126c0 -18 -2.16699 -34 -6.5 -48s-9.83301 -26 -16.5 -36s-14 -18.333 -22 -25s-15.667 -11.667 -23 -15v-2c8 -4 16 -9.33301 24 -16s15.167 -15 21.5 -25s11.666 -22 15.999 -36s6.5 -30 6.5 -48v-124
c0 -9.33301 0.5 -18.333 1.5 -27s3 -16.667 6 -24s7.16699 -13.166 12.5 -17.499s12.333 -6.5 21 -6.5h31v-75h-70z" />
    <glyph glyph-name="bar" unicode="|" horiz-adv-x="233" 
d="M71 -179v902h91v-902h-91z" />
    <glyph glyph-name="braceright" unicode="}" horiz-adv-x="267" 
d="M254 263c-26.667 -2 -44.832 -13.3311 -54.499 -33.998s-14.5 -50 -14.5 -88v-127c0 -35.333 -10 -63.166 -30 -83.499s-44 -30.5 -72 -30.5h-70v75h32c8.66699 0 15.667 2.16699 21 6.5s9.5 10.166 12.5 17.499s5 15.333 6 24s1.5 17.667 1.5 27v124
c0 18 2.16699 34 6.5 48s9.66602 26 15.999 36s13.5 18.333 21.5 25s16 12 24 16v2c-7.33301 3.33301 -15 8.33301 -23 15s-15.333 15 -22 25s-12.167 22 -16.5 36s-6.5 30 -6.5 48v126c0 17.333 -3 33.166 -9 47.499s-16.667 21.5 -32 21.5h-32v75h70
c30 0 54.5 -10.333 73.5 -31s28.5 -48.334 28.5 -83.001v-124c0 -36 5 -64.667 15 -86s28 -33.333 54 -36v-72v0z" />
    <glyph glyph-name="asciitilde" unicode="~" horiz-adv-x="465" 
d="M444 308c-17.333 -34 -36.165 -59.6689 -56.498 -77.002s-43.5 -26 -69.5 -26c-14 0 -28 2.83301 -42 8.5s-27.833 11.834 -41.5 18.501s-27 12.834 -40 18.501s-25.5 8.5 -37.5 8.5c-13.333 0 -25.5 -3.5 -36.5 -10.5s-23.833 -19.833 -38.5 -38.5l-61 39
c16.667 32 35.5 56.833 56.5 74.5s46.167 26.5 75.5 26.5c14.667 0 29.167 -2.83301 43.5 -8.5s28 -11.834 41 -18.501l37.5 -18.5c12 -5.66699 23.667 -8.5 35 -8.5c13.333 0 25.166 4.33301 35.499 13s22.166 21.667 35.499 39
c10.667 -7.33301 21.167 -14.166 31.5 -20.499z" />
    <glyph glyph-name="exclamdown" unicode="&#xa1;" horiz-adv-x="260" 
d="M85 408h91l9 -509h-109zM187 595v-111h-112v111h112z" />
    <glyph glyph-name="cent" unicode="&#xa2;" horiz-adv-x="465" 
d="M220 -107l-0.00292969 103c-32 2.66699 -58.667 10.834 -80 24.501s-38.166 31.667 -50.499 54s-21.166 48.5 -26.499 78.5s-8 62.667 -8 98c0 34.667 3 66.5 9 95.5s15.667 54.333 29 76s30.333 39.167 51 52.5s46 21.666 76 24.999v91h39v-91
c35.333 -2 65.833 -12 91.5 -30s44.834 -42 57.501 -72l-46 -25l-46 -24c-13.333 28.667 -32.333 44.667 -57 48v-301c13.333 2 24.5 7.16699 33.5 15.5s16.833 18.833 23.5 31.5l93 -47c-12.667 -30 -32 -53.667 -58 -71s-56.667 -27 -92 -29v-103h-39zM165.997 250
c0 -39.333 3.66895 -71.999 11.002 -97.999s21.666 -43 42.999 -51v293c-22.667 -8 -37.334 -24.833 -44.001 -50.5s-10 -56.834 -10 -93.501z" />
    <glyph glyph-name="sterling" unicode="&#xa3;" horiz-adv-x="465" 
d="M31 367l58.999 0.000976562c-3.33301 15.333 -7.16602 29.5 -11.499 42.5l-12.5 38.5c-4 12.667 -7.33301 25.334 -10 38.001s-4 26 -4 40c0 24.667 4.16699 47.667 12.5 69s20.333 39.833 36 55.5s34.834 28 57.501 37s48.334 13.5 77.001 13.5
c46.667 0 86.834 -10.667 120.501 -32s59.167 -57 76.5 -107l-99 -42c-12.667 29.333 -26.5 49.333 -41.5 60s-32.5 16 -52.5 16c-16 0 -31.5 -6.5 -46.5 -19.5s-22.5 -31.5 -22.5 -55.5c0 -11.333 1.5 -22.833 4.5 -34.5s6.5 -23.667 10.5 -36l12.5 -39
c4.33301 -13.667 8.16602 -28.5 11.499 -44.5h123v-84h-120c-1.33301 -36.667 -5.5 -69.334 -12.5 -98.001s-18.167 -57 -33.5 -85h252v-100h-386v88c16 24.667 29.667 49.167 41 73.5s18.666 51.833 21.999 82.5c1.33301 6 2.16602 12.167 2.49902 18.5
s0.833008 13.166 1.5 20.499h-68v84z" />
    <glyph glyph-name="currency" unicode="&#xa4;" horiz-adv-x="545" 
d="M33 497l62.001 63l67 -67c33.333 21.333 68.333 32 105 32c37.333 0 72.666 -10.333 105.999 -31l66 67c10 -11.333 20.167 -22 30.5 -32l31.5 -31l-67 -66c10 -16.667 17.833 -33.334 23.5 -50.001s8.5 -33.667 8.5 -51c0 -38.667 -10.667 -75.334 -32 -110.001
c11.333 -10 22.666 -20.667 33.999 -32l33 -32l-63 -64l-33 33.5l-32 33.5c-34.667 -21.333 -70.334 -32 -107.001 -32c-37.333 0 -72.666 10.667 -105.999 32l-66 -67c-20 21.333 -40.667 42 -62 62l67 66c-11.333 16.667 -19.166 33.834 -23.499 51.501
s-6.5 35.834 -6.5 54.501c0 34 10.333 68.667 31 104zM153.001 326c0 -15.333 2.83301 -29.667 8.5 -43s13.5 -25 23.5 -35s21.5 -18 34.5 -24s26.833 -9 41.5 -9c16.667 0 32.167 2.83301 46.5 8.5s26.833 13.5 37.5 23.5s19.167 21.833 25.5 35.5s9.5 28.5 9.5 44.5
s-3 31 -9 45s-14.167 26 -24.5 36s-22.333 17.833 -36 23.5s-28.5 8.5 -44.5 8.5c-15.333 0 -29.833 -3 -43.5 -9s-25.667 -14 -36 -24s-18.5 -22 -24.5 -36s-9 -29 -9 -45z" />
    <glyph glyph-name="yen" unicode="&#xa5;" horiz-adv-x="465" 
d="M316 353h97.001v-63h-121l-5 -13v-47h126v-64h-126v-166h-109v166h-123v64h123v47l-5 13h-118v63h93l-138 343h118l30.5 -83c10.333 -27.333 20.166 -55 29.499 -83l42 -128h5c7.33301 21.333 14.333 42.833 21 64.5s13.667 43.167 21 64.5l29.5 82.5l28.5 82.5h119z" />
    <glyph glyph-name="brokenbar" unicode="&#xa6;" horiz-adv-x="233" 
d="M71 301v420h91v-420h-91zM162 240v-421h-91v421h91z" />
    <glyph glyph-name="section" unicode="&#xa7;" horiz-adv-x="456" 
d="M424 293c0 -22.667 -4.99805 -43.335 -14.998 -62.002s-23.667 -34 -41 -46c27.333 -29.333 41 -62.666 41 -99.999c0 -24 -4.66699 -45.833 -14 -65.5s-22.333 -36.5 -39 -50.5s-36.834 -24.833 -60.501 -32.5s-49.5 -11.5 -77.5 -11.5c-34 0 -67 6.83301 -99 20.5
s-59.667 31.834 -83 54.501l62 70c20.667 -19.333 41.167 -33.166 61.5 -41.499s40.166 -12.5 59.499 -12.5c28 0 49.333 5.66699 64 17s22 27.333 22 48c0 19.333 -9.33301 36.333 -28 51s-48.667 30.667 -90 48c-22.667 10 -42.667 19.833 -60 29.5s-32 20.667 -44 33
s-21 26.333 -27 42s-9 34.167 -9 55.5s5.83301 41.5 17.5 60.5s26.167 34.167 43.5 45.5c-29.333 28 -44 61.333 -44 100c0 22.667 4.33301 43.667 13 63s20.834 35.666 36.501 48.999s34 23.833 55 31.5s44.167 11.5 69.5 11.5c34 0 65.333 -5 94 -15s56 -26 82 -48
l-29 -36.5l-31 -36.5c-22.667 18 -43.667 29.833 -63 35.5s-37.666 8.5 -54.999 8.5c-22 0 -39.167 -5.83301 -51.5 -17.5s-18.5 -24.167 -18.5 -37.5c0 -10 2.66699 -18.833 8 -26.5s12.5 -15 21.5 -22s19.333 -13.5 31 -19.5l35.5 -18l59 -29.5
c19.333 -9.66699 36.666 -21 51.999 -34s27.666 -28.333 36.999 -46s14 -39.5 14 -65.5zM146.002 344.999c0 -12 4.33301 -22.499 13 -31.499s20.167 -17.5 34.5 -25.5s30.5 -15.667 48.5 -23s36.333 -15.666 55 -24.999c18 10 27 28.667 27 56
c0 12 -3.16699 21.5 -9.5 28.5s-15.5 13.833 -27.5 20.5s-27 13.5 -45 20.5s-38.667 16.5 -62 28.5c-10.667 -4.66699 -19 -11.334 -25 -20.001s-9 -18.334 -9 -29.001z" />
    <glyph glyph-name="dieresis" unicode="&#xa8;" horiz-adv-x="429" 
d="M252 575v108h107v-108h-107zM71 575v108h106v-108h-106z" />
    <glyph glyph-name="copyright" unicode="&#xa9;" horiz-adv-x="758" 
d="M378 553c33.333 0 61.6689 -9.17188 85.002 -27.5049s38.666 -42.5 45.999 -72.5l-71 -24c-3.33301 14.667 -10.166 26.834 -20.499 36.501s-23.166 14.5 -38.499 14.5c-11.333 0 -21 -2 -29 -6s-14.333 -9.33301 -19 -16s-8 -14 -10 -22s-3 -16.333 -3 -25v-152
c0 -17.333 4.5 -33.333 13.5 -48s24.5 -22 46.5 -22c15.333 0 28.166 4.66699 38.499 14s17.166 22 20.499 38c4 -1.33301 9.16699 -3.16602 15.5 -5.49902s13.166 -4.66602 20.499 -6.99902s14.166 -4.66602 20.499 -6.99902s11.5 -3.83301 15.5 -4.5
c-7.33301 -31.333 -22.5 -55.833 -45.5 -73.5s-51.5 -26.5 -85.5 -26.5c-24 0 -44.5 3.83301 -61.5 11.5s-31 17.834 -42 30.501s-19 27.5 -24 44.5s-7.5 35.167 -7.5 54.5v151c0 20 2.83301 38.667 8.5 56s14.167 32.5 25.5 45.5s25.333 23.333 42 31
s36.334 11.5 59.001 11.5zM377.003 -10.0049c-50 0 -95.166 8.83496 -135.499 26.502s-74.833 42 -103.5 73s-50.667 68 -66 111s-23 89.833 -23 140.5s7.83301 97.667 23.5 141s37.667 80.666 66 111.999s62.666 56 102.999 74s85.5 27 135.5 27
c49.333 0 94.166 -8.83301 134.499 -26.5s74.833 -42.334 103.5 -74.001s50.834 -69.167 66.501 -112.5s23.5 -90.333 23.5 -141c0 -50 -7.83301 -96.5 -23.5 -139.5s-37.834 -80.167 -66.501 -111.5s-63.167 -55.833 -103.5 -73.5s-85.166 -26.5 -134.499 -26.5z
M377.004 626.997c-39.333 0 -74.665 -7.33594 -105.998 -22.0029s-58 -35 -80 -61s-38.833 -56.333 -50.5 -91s-17.5 -72 -17.5 -112c0 -39.333 6 -76.333 18 -111s29.167 -64.834 51.5 -90.501s49.166 -45.834 80.499 -60.501s66 -22 104 -22
c39.333 0 74.666 7.33301 105.999 22s58 34.834 80 60.501s38.833 55.834 50.5 90.501s17.5 71.667 17.5 111c0 40.667 -6 78.334 -18 113.001s-29 64.834 -51 90.501s-48.667 45.834 -80 60.501s-66.333 22 -105 22z" />
    <glyph glyph-name="ordfeminine" unicode="&#xaa;" horiz-adv-x="307" 
d="M194 279l-0.00195312 30c-9.33301 -11.333 -20.666 -19.833 -33.999 -25.5s-26.666 -8.5 -39.999 -8.5c-35.333 0 -60.833 9.33301 -76.5 28s-23.5 43.334 -23.5 74.001c0 13.333 2.16699 26 6.5 38s11 22.667 20 32s20.667 16.833 35 22.5s31.5 8.5 51.5 8.5h61v24
c0 9.33301 -3.5 17.166 -10.5 23.499s-18.167 9.5 -33.5 9.5c-11.333 0 -22 -2.16699 -32 -6.5s-18 -11.5 -24 -21.5l-63 38c12 22 28.5 38.5 49.5 49.5s45.167 16.5 72.5 16.5c38 0 68.667 -7.66699 92 -23s35 -43 35 -83v-226h-86zM193.998 416l-48 -0.000976562
c-13.333 0 -24 -2.83301 -32 -8.5s-12 -14.167 -12 -25.5c0 -9.33301 3.33301 -17.166 10 -23.499s17.667 -9.5 33 -9.5c13.333 0 24.833 3.16699 34.5 9.5s14.5 16.833 14.5 31.5v26z" />
    <glyph glyph-name="guillemotleft" unicode="&#xab;" horiz-adv-x="506" 
d="M361 37l-124 197l124 196h106l-121 -196l121 -197h-106zM169 37l-124 197l124 196h107l-122 -196l122 -197h-107z" />
    <glyph glyph-name="logicalnot" unicode="&#xac;" horiz-adv-x="465" 
d="M445 79h-90v173h-336v88h426v-261z" />
    <glyph glyph-name="sfthyphen" unicode="&#xad;" horiz-adv-x="391" 
d="M49 213v98h298v-98h-298z" />
    <glyph glyph-name="registered" unicode="&#xae;" horiz-adv-x="514" 
d="M258 265c-31.333 0 -59.832 5.5 -85.499 16.5s-47.5 26.167 -65.5 45.5s-31.833 42.5 -41.5 69.5s-14.5 56.167 -14.5 87.5s5 60.5 15 87.5s24 50.333 42 70s39.667 35 65 46s53.666 16.5 84.999 16.5c30.667 0 58.667 -5.5 84 -16.5s47 -26.333 65 -46s32 -43 42 -70
s15 -56.167 15 -87.5s-5 -60.5 -15 -87.5s-24 -50.167 -42 -69.5s-39.667 -34.5 -65 -45.5s-53.333 -16.5 -84 -16.5zM258.001 660c-24.667 0 -46.6689 -4.49902 -66.002 -13.499s-35.833 -21.333 -49.5 -37s-24.167 -34.167 -31.5 -55.5s-11 -44.333 -11 -69
c0 -25.333 3.83301 -48.5 11.5 -69.5s18.334 -39.333 32.001 -55s30.167 -27.834 49.5 -36.501s41 -13 65 -13c24.667 0 46.5 4.5 65.5 13.5s35.167 21.333 48.5 37s23.5 34 30.5 55s10.5 43.833 10.5 68.5s-3.66699 47.667 -11 69s-17.666 39.833 -30.999 55.5
s-29.5 28 -48.5 37s-40.5 13.5 -64.5 13.5zM296.999 356.001l-20.002 51.001l-21 51h-26v-102h-49v257h80c24 0 43.667 -6.16699 59 -18.5s23 -31.833 23 -58.5c0 -15.333 -3.16699 -29 -9.5 -41s-16.166 -21.667 -29.499 -29
c2.66699 -7.33301 6.33398 -15.833 11.001 -25.5s9.16699 -19.667 13.5 -30l13 -30c4.33301 -9.66699 7.83301 -17.834 10.5 -24.501h-55zM294.997 536.002c0 19.333 -10 30 -30 32h-35v-66h30c23.333 0 35 11.333 35 34z" />
    <glyph glyph-name="macron" unicode="&#xaf;" horiz-adv-x="438" 
d="M94 580v95h271v-95h-271z" />
    <glyph glyph-name="degree" unicode="&#xb0;" horiz-adv-x="363" 
d="M315 571c0 -18 -3.5 -34.833 -10.5 -50.5s-16.5 -29.334 -28.5 -41.001s-26 -20.834 -42 -27.501s-33 -10 -51 -10s-35.167 3.33301 -51.5 10s-30.5 15.834 -42.5 27.501s-21.5 25.334 -28.5 41.001s-10.5 32.5 -10.5 50.5s3.5 34.833 10.5 50.5s16.5 29.5 28.5 41.5
s26.167 21.333 42.5 28s33.5 10 51.5 10s35 -3.33301 51 -10s30 -16 42 -28s21.5 -25.833 28.5 -41.5s10.5 -32.5 10.5 -50.5zM245 571c0 17.333 -6 31.833 -18 43.5s-26.667 17.5 -44 17.5s-32 -5.83301 -44 -17.5s-18 -26.167 -18 -43.5s6 -32 18 -44s26.667 -18 44 -18
s32 6 44 18s18 26.667 18 44z" />
    <glyph glyph-name="plusminus" unicode="&#xb1;" horiz-adv-x="465" 
d="M278 288v-163h-89v163h-168v87h168v166h89v-166h168v-87h-168zM20 0v86h427v-86h-427z" />
    <glyph glyph-name="twosuperior" unicode="&#xb2;" horiz-adv-x="296" 
d="M23 670c3.33301 38.667 16.667 68.668 40 90.001s52.333 32 87 32c38 0 67.833 -9.5 89.5 -28.5s32.5 -45.833 32.5 -80.5c0 -30.667 -10.667 -60.667 -32 -90l-107 -146h135v-76h-243v67l145 195c10.667 14.667 16 30.667 16 48c0 9.33301 -2.83301 17.666 -8.5 24.999
s-15.167 11 -28.5 11c-11.333 0 -21 -4.66699 -29 -14s-12.667 -24 -14 -44z" />
    <glyph glyph-name="threesuperior" unicode="&#xb3;" horiz-adv-x="297" 
d="M151 790c22 0 40.832 -3.16797 56.499 -9.50098s28.167 -14.833 37.5 -25.5s16.166 -23.167 20.499 -37.5s6.5 -29.5 6.5 -45.5c0 -15.333 -2.66699 -31.166 -8 -47.499s-16.666 -29.166 -33.999 -38.499c18 -8 29.833 -20 35.5 -36s8.5 -34.333 8.5 -55
c0 -38.667 -10.333 -69.834 -31 -93.501s-52.334 -35.5 -95.001 -35.5c-33.333 0 -61.333 8.83301 -84 26.5s-36 45.5 -40 83.5c2.66699 0.666992 8 1.5 16 2.5l25 3l25 3c8 1 13.333 1.5 16 1.5c1.33301 -16.667 5.83301 -28.5 13.5 -35.5s16.834 -10.5 27.501 -10.5
c9.33301 0 16.666 1.83301 21.999 5.5s9.5 8.5 12.5 14.5s5 12.5 6 19.5s1.5 13.833 1.5 20.5c0 14.667 -3 27 -9 37s-17.667 15 -35 15h-35v66h32c18 0 30 4.83301 36 14.5s9 22.167 9 37.5c0 12 -2.66699 22.5 -8 31.5s-15.666 13.5 -30.999 13.5c-10 0 -19 -4 -27 -12
s-13 -20.667 -15 -38l-81 12c4.66699 34 18.334 61.333 41.001 82s51 31 85 31z" />
    <glyph glyph-name="acute" unicode="&#xb4;" horiz-adv-x="438" 
d="M160 571l82 184l98 -37l-116 -175z" />
    <glyph glyph-name="mu" unicode="&#xb5;" horiz-adv-x="468" 
d="M306 46h-2.99902c-13.333 -16 -29.333 -28.5 -48 -37.5s-38.334 -13.5 -59.001 -13.5c-9.33301 0 -19.666 2.33301 -30.999 7v-203h-111v695h111v-303c0 -28.667 6 -51 18 -67s29.333 -24 52 -24c15.333 0 27.666 3.16699 36.999 9.5s16.5 15 21.5 26
s8.33301 24.167 10 39.5s2.5 32.333 2.5 51v268h110v-494h-110v46z" />
    <glyph glyph-name="mu" unicode="&#x3bc;" horiz-adv-x="468" 
d="M306 46h-2.99902c-13.333 -16 -29.333 -28.5 -48 -37.5s-38.334 -13.5 -59.001 -13.5c-9.33301 0 -19.666 2.33301 -30.999 7v-203h-111v695h111v-303c0 -28.667 6 -51 18 -67s29.333 -24 52 -24c15.333 0 27.666 3.16699 36.999 9.5s16.5 15 21.5 26
s8.33301 24.167 10 39.5s2.5 32.333 2.5 51v268h110v-494h-110v46z" />
    <glyph glyph-name="paragraph" unicode="&#xb6;" horiz-adv-x="499" 
d="M191 315l-2 -0.00195312c-29.333 1.33301 -54.166 7.83301 -74.499 19.5s-36.833 26.334 -49.5 44.001s-21.834 37.334 -27.501 59.001s-8.5 43.5 -8.5 65.5c0 21.333 2.83301 43.666 8.5 66.999s15.5 44.833 29.5 64.5s32.667 35.834 56 48.501s52.333 19 87 19h51
c16.667 0 34.5 -0.166992 53.5 -0.5s40.167 -0.5 63.5 -0.5h81v-80h-40v-696h-82v696h-63v-696h-83v390z" />
    <glyph glyph-name="periodcentered" unicode="&#xb7;" horiz-adv-x="241" 
d="M58 214v129h124v-129h-124z" />
    <glyph glyph-name="cedilla" unicode="&#xb8;" horiz-adv-x="439" 
d="M189 35c9.33301 -0.666992 18.333 -1 27 -1h27l-25 -75c17.333 -2 31.833 -6 43.5 -12s21 -13 28 -21s12 -16.667 15 -26s4.5 -18 4.5 -26c0 -10 -1.83301 -20 -5.5 -30s-9.66699 -19 -18 -27s-18.833 -14.5 -31.5 -19.5s-28 -7.5 -46 -7.5
c-11.333 0 -26.5 1.16699 -45.5 3.5s-36.5 7.83301 -52.5 16.5c3.33301 8 6.5 16.167 9.5 24.5s6.16699 16.5 9.5 24.5c14 -7.33301 26.333 -11.666 37 -12.999s20.667 -2 30 -2c11.333 0 20.833 3.16699 28.5 9.5s11.5 14.166 11.5 23.499
c0 11.333 -3.83301 19.833 -11.5 25.5s-17.5 8.5 -29.5 8.5c-5.33301 0 -9.33301 -0.333008 -12 -1l-13.5 9.5l-13.5 9.5l33 106v0z" />
    <glyph glyph-name="onesuperior" unicode="&#xb9;" horiz-adv-x="248" 
d="M102 371v327l-62 -43v85l70 48h76v-417h-84z" />
    <glyph glyph-name="ordmasculine" unicode="&#xba;" horiz-adv-x="310" 
d="M156 535c-16.667 0 -28.998 -6.66797 -36.998 -20.001c-3.33301 -7.33301 -5.83301 -17.833 -7.5 -31.5s-2.5 -28.834 -2.5 -45.501c0 -12 0.166992 -23.167 0.5 -33.5s2.16602 -19.166 5.49902 -26.499c3.33301 -8.66699 8 -15.5 14 -20.5s14.667 -7.5 26 -7.5
c19.333 0 32.666 9 39.999 27c3.33301 7.33301 5.33301 16.833 6 28.5s1 25.834 1 42.501c0 25.333 -2 45 -6 59c-6 18.667 -19.333 28 -40 28zM159.002 610.999c30 0 53.832 -5.8291 71.499 -17.4961s31.167 -26.167 40.5 -43.5c6 -11.333 10.167 -26 12.5 -44
s3.5 -38.667 3.5 -62c0 -24.667 -1.16699 -46 -3.5 -64s-7.16602 -33.333 -14.499 -46c-12 -21.333 -28.167 -36.5 -48.5 -45.5s-42.833 -13.5 -67.5 -13.5c-27.333 0 -50 4.66699 -68 14s-31.667 22.666 -41 39.999c-7.33301 13.333 -12.5 29.666 -15.5 48.999
s-4.5 40.666 -4.5 63.999c0 17.333 0.833008 34.666 2.5 51.999s5.16699 32 10.5 44c9.33301 23.333 24 41.333 44 54s46 19 78 19z" />
    <glyph glyph-name="guillemotright" unicode="&#xbb;" horiz-adv-x="506" 
d="M46 37l121 197l-121 196h106l124 -196l-124 -197h-106zM238 37l122 197l-122 196h106l124 -196l-124 -197h-106z" />
    <glyph glyph-name="onequarter" unicode="&#xbc;" horiz-adv-x="720" 
d="M617 59v-60h-81v60h-161v64l123 293h87l-120 -285h71v97h81v-97h32v-72h-32zM185 -17h-74l370 730h74zM133 279v327l-62 -43v85l70 48h76v-417h-84z" />
    <glyph glyph-name="onehalf" unicode="&#xbd;" horiz-adv-x="720" 
d="M406 298c3.33301 38.667 16.667 68.667 40 90s52.333 32 87 32c38 0 67.833 -9.33301 89.5 -28s32.5 -45.334 32.5 -80.001c0 -31.333 -10.667 -61.666 -32 -90.999l-107 -146h135v-76h-243v67l145 195c10.667 15.333 16 31.333 16 48
c0 9.33301 -2.83301 17.833 -8.5 25.5s-15.167 11.5 -28.5 11.5c-11.333 0 -21 -4.83301 -29 -14.5s-12.667 -24.5 -14 -44.5zM181.001 -17h-74l370 730h74zM127.001 279v327l-62 -43v85l70 48h76v-417h-84z" />
    <glyph glyph-name="threequarters" unicode="&#xbe;" horiz-adv-x="720" 
d="M176 700c22 0 40.832 -3.16797 56.499 -9.50098s28.167 -14.833 37.5 -25.5s16.166 -23.167 20.499 -37.5s6.5 -29.5 6.5 -45.5c0 -15.333 -2.66699 -31.166 -8 -47.499s-16.666 -29.166 -33.999 -38.499c18 -8 29.833 -20 35.5 -36s8.5 -34.333 8.5 -55
c0 -38.667 -10.333 -69.834 -31 -93.501s-52.334 -35.5 -95.001 -35.5c-33.333 0 -61.333 8.83301 -84 26.5s-36 45.5 -40 83.5c2.66699 0.666992 8 1.5 16 2.5l25 3l25 3c8 1 13.333 1.5 16 1.5c1.33301 -16.667 5.83301 -28.5 13.5 -35.5s16.834 -10.5 27.501 -10.5
c9.33301 0 16.666 1.83301 21.999 5.5s9.5 8.5 12.5 14.5s5 12.5 6 19.5s1.5 13.833 1.5 20.5c0 14.667 -3 27 -9 37s-17.667 15 -35 15h-35v66h32c18 0 30 4.83301 36 14.5s9 22.167 9 37.5c0 12 -2.66699 22.5 -8 31.5s-15.666 13.5 -30.999 13.5c-10 0 -19 -4 -27 -12
s-13 -20.667 -15 -38l-81 12c4.66699 34 18.334 61.333 41.001 82s51 31 85 31zM638.999 58.999v-60h-81v60h-161v64l123 293h87l-120 -285h71v97h81v-97h32v-72h-32zM224.999 -17.001h-74l370 730h74z" />
    <glyph glyph-name="questiondown" unicode="&#xbf;" horiz-adv-x="445" 
d="M55 -24c0 30.667 3.99805 55.6709 11.998 75.0039s19 38.666 33 57.999c8 12 16.667 23.833 26 35.5s18.166 23.667 26.499 36s15.333 25.166 21 38.499s8.5 27.666 8.5 42.999v45h112v-47c0 -27.333 -4.5 -52.166 -13.5 -74.499s-20.833 -43.833 -35.5 -64.5
c-19.333 -26.667 -35.666 -50.334 -48.999 -71.001s-20.333 -41.334 -21 -62.001c0 -11.333 1.16699 -22.333 3.5 -33s6.33301 -20.167 12 -28.5s13.334 -15 23.001 -20s21.834 -7.5 36.501 -7.5c23.333 0 42.166 8.83301 56.499 26.5s22.166 41.167 23.499 70.5
c6 -0.666992 14 -1.66699 24 -3s20.5 -2.83301 31.5 -4.5s21.5 -3 31.5 -4s18 -1.83301 24 -2.5c-3.33301 -31.333 -10.666 -58.833 -21.999 -82.5s-25.666 -43.5 -42.999 -59.5s-37.333 -28 -60 -36s-47 -12 -73 -12c-62 0 -108.833 16.667 -140.5 50s-47.5 78 -47.5 134z
M294.998 493.004v-111h-112v111h112z" />
    <glyph glyph-name="Agrave" unicode="&#xc0;" horiz-adv-x="526" 
d="M359 150h-193c-1.33301 -6 -4 -16 -8 -30l-12.5 -45l-12 -45c-3.66699 -14 -6.5 -24 -8.5 -30h-119l201 696h110l202 -696h-121zM227 392l-36 -140h142l-35 139l-6.5 30c-3 14 -6.33301 28.667 -10 44l-10.5 43.5c-3.33301 13.667 -5.33301 23.5 -6 29.5h-5zM274 732
l-188 100l72 81l160 -126z" />
    <glyph glyph-name="Aacute" unicode="&#xc1;" horiz-adv-x="526" 
d="M359 150h-193c-1.33301 -6 -4 -16 -8 -30l-12.5 -45l-12 -45c-3.66699 -14 -6.5 -24 -8.5 -30h-119l201 696h110l202 -696h-121zM227 392l-36 -140h142l-35 139l-6.5 30c-3 14 -6.33301 28.667 -10 44l-10.5 43.5c-3.33301 13.667 -5.33301 23.5 -6 29.5h-5zM213 780
l159 124l69 -80l-185 -98z" />
    <glyph glyph-name="Acircumflex" unicode="&#xc2;" horiz-adv-x="526" 
d="M359 150h-193c-1.33301 -6 -4 -16 -8 -30l-12.5 -45l-12 -45c-3.66699 -14 -6.5 -24 -8.5 -30h-119l201 696h110l202 -696h-121zM262 808l-132 -80l-41 44l141 127h69l137 -126l-42 -45zM227 392l-36 -140h142l-35 139l-6.5 30c-3 14 -6.33301 28.667 -10 44l-10.5 43.5
c-3.33301 13.667 -5.33301 23.5 -6 29.5h-5z" />
    <glyph glyph-name="Atilde" unicode="&#xc3;" horiz-adv-x="526" 
d="M359 150h-193c-1.33301 -6 -4 -16 -8 -30l-12.5 -45l-12 -45c-3.66699 -14 -6.5 -24 -8.5 -30h-119l201 696h110l202 -696h-121zM193 864c11.333 0 22.3359 -2.16797 33.0029 -6.50098s21.167 -9.16602 31.5 -14.499s20.166 -10.166 29.499 -14.499s18 -6.5 26 -6.5
c10 0 19.5 3.33301 28.5 10s19.167 17.667 30.5 33l56 -33c-15.333 -32.667 -31.833 -56.334 -49.5 -71.001s-36.5 -22 -56.5 -22c-12 0 -23.5 2.16699 -34.5 6.5s-21.667 9 -32 14l-30 14c-9.66699 4.33301 -18.834 6.5 -27.501 6.5c-10 0 -19.833 -3 -29.5 -9
s-20.5 -16.667 -32.5 -32l-27 16l-27 16c13.333 30 29.666 53 48.999 69s40 24 62 24zM227.003 391.999l-36 -140h142l-35 139l-6.5 30c-3 14 -6.33301 28.667 -10 44l-10.5 43.5c-3.33301 13.667 -5.33301 23.5 -6 29.5h-5z" />
    <glyph glyph-name="Adieresis" unicode="&#xc4;" horiz-adv-x="526" 
d="M359 150h-193c-1.33301 -6 -4 -16 -8 -30l-12.5 -45l-12 -45c-3.66699 -14 -6.5 -24 -8.5 -30h-119l201 696h110l202 -696h-121zM227 392l-36 -140h142l-35 139l-6.5 30c-3 14 -6.33301 28.667 -10 44l-10.5 43.5c-3.33301 13.667 -5.33301 23.5 -6 29.5h-5zM117 742v108
h108v-108h-108zM299 742v108h106v-108h-106z" />
    <glyph glyph-name="Aring" unicode="&#xc5;" horiz-adv-x="526" 
d="M359 150h-193c-1.33301 -6 -4 -16 -8 -30l-12.5 -45l-12 -45c-3.66699 -14 -6.5 -24 -8.5 -30h-119l201 696h110l202 -696h-121zM162 801c0 13.333 2.66699 26 8 38s12.5 22.5 21.5 31.5s19.667 16 32 21s25.5 7.5 39.5 7.5c28 0 51.5 -9.5 70.5 -28.5
s28.5 -42.167 28.5 -69.5c0 -13.333 -2.5 -25.833 -7.5 -37.5s-12 -21.834 -21 -30.501s-19.5 -15.5 -31.5 -20.5s-25 -7.5 -39 -7.5s-27.167 2.5 -39.5 7.5s-23 11.833 -32 20.5s-16.167 18.834 -21.5 30.501s-8 24.167 -8 37.5zM227 392l-36 -140h142l-35 139l-6.5 30
c-3 14 -6.33301 28.667 -10 44l-10.5 43.5c-3.33301 13.667 -5.33301 23.5 -6 29.5h-5zM303 801c0 11.333 -3.83301 20.666 -11.5 27.999s-17.167 11 -28.5 11s-21 -3.66699 -29 -11s-12 -16.666 -12 -27.999c0 -10.667 4 -19.667 12 -27s17.667 -11 29 -11
s20.833 3.66699 28.5 11s11.5 16.333 11.5 27z" />
    <glyph glyph-name="AE" unicode="&#xc6;" horiz-adv-x="834" 
d="M797 696v-106h-274v-186h235v-104h-235v-191h274v-109h-388v171h-189l-17 -35.5l-22.5 -50l-22.5 -50l-17 -35.5h-124l40 84l57.5 122.5l66 141.5l66 141.5l57.5 122.5l40 84h453zM406 589c-7.33301 -14.667 -17.333 -36.5 -30 -65.5l-40.5 -91.5l-41 -91.5l-29.5 -65.5
h144v314h-3z" />
    <glyph glyph-name="Ccedilla" unicode="&#xc7;" horiz-adv-x="492" 
d="M466 148c-10.667 -46 -32.835 -82.333 -66.502 -109s-74.834 -41.334 -123.501 -44.001l-11 -36c17.333 -2 31.833 -6 43.5 -12s21 -13 28 -21s12 -16.667 15 -26s4.5 -18 4.5 -26c0 -10 -1.83301 -20 -5.5 -30s-9.66699 -19 -18 -27s-18.833 -14.5 -31.5 -19.5
s-28 -7.5 -46 -7.5c-11.333 0 -26.5 1.16699 -45.5 3.5s-36.5 7.83301 -52.5 16.5c3.33301 8 6.5 16.167 9.5 24.5s6.16699 16.5 9.5 24.5c14 -7.33301 26.333 -11.666 37 -12.999s20.667 -2 30 -2c11.333 0 20.833 3.16699 28.5 9.5s11.5 14.166 11.5 23.499
c0 11.333 -3.83301 19.833 -11.5 25.5s-17.5 8.5 -29.5 8.5c-5.33301 0 -9.33301 -0.333008 -12 -1l-13.5 9.5l-13.5 9.5l21 68c-30 4 -56 12.333 -78 25s-40.333 28.667 -55 48s-25.667 41.5 -33 66.5s-11 51.5 -11 79.5v270c0 27.333 4.33301 54 13 80
s21.834 49 39.501 69s39.834 36 66.501 48s58.334 18 95.001 18c56 0 101.5 -14.667 136.5 -44s58.167 -66 69.5 -110l-109 -36c-2 10 -5.33301 19.667 -10 29s-11 17.833 -19 25.5s-17.667 13.834 -29 18.501s-24.333 7 -39 7c-17.333 0 -32.166 -3 -44.499 -9
s-22.5 -13.833 -30.5 -23.5s-14 -20.5 -18 -32.5s-6 -24 -6 -36v-277c0 -14.667 2 -28.667 6 -42s10.167 -25 18.5 -35s18.666 -17.833 30.999 -23.5s26.833 -8.5 43.5 -8.5c24.667 0 45.667 7 63 21s28.333 33.333 33 58z" />
    <glyph glyph-name="Egrave" unicode="&#xc8;" horiz-adv-x="473" 
d="M63 0v696h387v-106h-273v-186h235v-104h-235v-191h273v-109h-387zM273 732l-188 100l72 81l160 -126z" />
    <glyph glyph-name="Eacute" unicode="&#xc9;" horiz-adv-x="473" 
d="M63 0v696h387v-106h-273v-186h235v-104h-235v-191h273v-109h-387zM173 780l159 124l69 -80l-185 -98z" />
    <glyph glyph-name="Ecircumflex" unicode="&#xca;" horiz-adv-x="473" 
d="M63 0v696h387v-106h-273v-186h235v-104h-235v-191h273v-109h-387zM255 808l-132 -80l-41 44l141 127h69l137 -126l-42 -45z" />
    <glyph glyph-name="Edieresis" unicode="&#xcb;" horiz-adv-x="473" 
d="M63 0v696h387v-106h-273v-186h235v-104h-235v-191h273v-109h-387zM289 745v108h107v-108h-107zM108 745v108h106v-108h-106z" />
    <glyph glyph-name="Igrave" unicode="&#xcc;" horiz-adv-x="243" 
d="M64 0v696h115v-696h-115zM134 732l-188 100l72 81l160 -126z" />
    <glyph glyph-name="Iacute" unicode="&#xcd;" horiz-adv-x="243" 
d="M64 0v696h115v-696h-115zM66 780l159 124l69 -80l-185 -98z" />
    <glyph glyph-name="Icircumflex" unicode="&#xce;" horiz-adv-x="243" 
d="M64 0v696h115v-696h-115zM121 808l-132 -80l-41 44l141 127h69l137 -126l-42 -45z" />
    <glyph glyph-name="Idieresis" unicode="&#xcf;" horiz-adv-x="243" 
d="M64 0v696h115v-696h-115zM157 745v108h107v-108h-107zM-24 745v108h106v-108h-106z" />
    <glyph glyph-name="Eth" unicode="&#xd0;" horiz-adv-x="537" 
d="M11 394l51.002 -0.000976562v302h213c46.667 0 86.667 -8.66699 120 -26s57.666 -46 72.999 -86c9.33301 -24.667 14.833 -55.167 16.5 -91.5s2.5 -77.5 2.5 -123.5c0 -56.667 -0.333008 -105.167 -1 -145.5s-6.33398 -74.833 -17.001 -103.5
c-8.66699 -23.333 -20 -42.666 -34 -57.999s-30 -27.5 -48 -36.5s-37.667 -15.5 -59 -19.5s-43.333 -6 -66 -6h-200v318h-51v76zM372.002 436.999c0 47.333 -8.33203 84.667 -24.999 112s-46.334 41 -89.001 41h-81v-196h107v-76h-107v-212h82
c42.667 0 72.167 11.167 88.5 33.5s24.5 53.5 24.5 93.5v204z" />
    <glyph glyph-name="Ntilde" unicode="&#xd1;" horiz-adv-x="579" 
d="M416 0l-164 299l-73 143l-3 -1v-441h-115v696h105l154 -284l82 -156l4 1v439h114v-696h-104zM222 862c11.333 0 22.3359 -2.16797 33.0029 -6.50098s21.167 -9.16602 31.5 -14.499s20.166 -10.166 29.499 -14.499s18 -6.5 26 -6.5c10 0 19.5 3.33301 28.5 10
s19.167 17.667 30.5 33l56 -33c-15.333 -32.667 -31.833 -56.334 -49.5 -71.001s-36.5 -22 -56.5 -22c-12 0 -23.5 2.16699 -34.5 6.5s-21.667 9 -32 14l-30 14c-9.66699 4.33301 -18.834 6.5 -27.501 6.5c-10 0 -19.833 -3 -29.5 -9s-20.5 -16.667 -32.5 -32l-27 16l-27 16
c13.333 30 29.666 53 48.999 69s40 24 62 24z" />
    <glyph glyph-name="Ograve" unicode="&#xd2;" horiz-adv-x="516" 
d="M471 211c0 -33.333 -5.16895 -63.334 -15.502 -90.001s-25 -49.5 -44 -68.5s-41.5 -33.5 -67.5 -43.5s-54.667 -15 -86 -15c-38 0 -70.667 6.16699 -98 18.5s-49.5 29 -66.5 50s-29.5 45.333 -37.5 73s-12 56.834 -12 87.501v263c0 24.667 3.83301 49.667 11.5 75
s20 48.333 37 69s39 37.667 66 51s60.167 20 99.5 20c36.667 0 68.334 -6.33301 95.001 -19s48.834 -29.167 66.501 -49.5s30.667 -43.333 39 -69s12.5 -51.5 12.5 -77.5v-275zM354.998 487.999c0 8.66699 -1.50195 18.8301 -4.50195 30.4971s-8.16699 22.834 -15.5 33.501
s-17.166 19.834 -29.499 27.501s-28.166 11.5 -47.499 11.5s-35.5 -3.5 -48.5 -10.5s-23.333 -15.667 -31 -26s-13.167 -21.5 -16.5 -33.5s-5 -23.333 -5 -34l1 -266c0 -33.333 7.66699 -61.333 23 -84s41.333 -34 78 -34c26 0 48.5 8.83301 67.5 26.5
s28.5 41.834 28.5 72.501v286zM298.996 731.995l-188 100l72 81l160 -126z" />
    <glyph glyph-name="Oacute" unicode="&#xd3;" horiz-adv-x="516" 
d="M471 211c0 -33.333 -5.16895 -63.334 -15.502 -90.001s-25 -49.5 -44 -68.5s-41.5 -33.5 -67.5 -43.5s-54.667 -15 -86 -15c-38 0 -70.667 6.16699 -98 18.5s-49.5 29 -66.5 50s-29.5 45.333 -37.5 73s-12 56.834 -12 87.501v263c0 24.667 3.83301 49.667 11.5 75
s20 48.333 37 69s39 37.667 66 51s60.167 20 99.5 20c36.667 0 68.334 -6.33301 95.001 -19s48.834 -29.167 66.501 -49.5s30.667 -43.333 39 -69s12.5 -51.5 12.5 -77.5v-275zM354.998 487.999c0 8.66699 -1.50195 18.8301 -4.50195 30.4971s-8.16699 22.834 -15.5 33.501
s-17.166 19.834 -29.499 27.501s-28.166 11.5 -47.499 11.5s-35.5 -3.5 -48.5 -10.5s-23.333 -15.667 -31 -26s-13.167 -21.5 -16.5 -33.5s-5 -23.333 -5 -34l1 -266c0 -33.333 7.66699 -61.333 23 -84s41.333 -34 78 -34c26 0 48.5 8.83301 67.5 26.5
s28.5 41.834 28.5 72.501v286zM185.996 779.995l159 124l69 -80l-185 -98z" />
    <glyph glyph-name="Ocircumflex" unicode="&#xd4;" horiz-adv-x="516" 
d="M471 211c0 -33.333 -5.16895 -63.334 -15.502 -90.001s-25 -49.5 -44 -68.5s-41.5 -33.5 -67.5 -43.5s-54.667 -15 -86 -15c-38 0 -70.667 6.16699 -98 18.5s-49.5 29 -66.5 50s-29.5 45.333 -37.5 73s-12 56.834 -12 87.501v263c0 24.667 3.83301 49.667 11.5 75
s20 48.333 37 69s39 37.667 66 51s60.167 20 99.5 20c36.667 0 68.334 -6.33301 95.001 -19s48.834 -29.167 66.501 -49.5s30.667 -43.333 39 -69s12.5 -51.5 12.5 -77.5v-275zM354.998 487.999c0 8.66699 -1.50195 18.8301 -4.50195 30.4971s-8.16699 22.834 -15.5 33.501
s-17.166 19.834 -29.499 27.501s-28.166 11.5 -47.499 11.5s-35.5 -3.5 -48.5 -10.5s-23.333 -15.667 -31 -26s-13.167 -21.5 -16.5 -33.5s-5 -23.333 -5 -34l1 -266c0 -33.333 7.66699 -61.333 23 -84s41.333 -34 78 -34c26 0 48.5 8.83301 67.5 26.5
s28.5 41.834 28.5 72.501v286zM254.996 807.995l-132 -80l-41 44l141 127h69l137 -126l-42 -45z" />
    <glyph glyph-name="Otilde" unicode="&#xd5;" horiz-adv-x="516" 
d="M471 211c0 -33.333 -5.16895 -63.334 -15.502 -90.001s-25 -49.5 -44 -68.5s-41.5 -33.5 -67.5 -43.5s-54.667 -15 -86 -15c-38 0 -70.667 6.16699 -98 18.5s-49.5 29 -66.5 50s-29.5 45.333 -37.5 73s-12 56.834 -12 87.501v263c0 24.667 3.83301 49.667 11.5 75
s20 48.333 37 69s39 37.667 66 51s60.167 20 99.5 20c36.667 0 68.334 -6.33301 95.001 -19s48.834 -29.167 66.501 -49.5s30.667 -43.333 39 -69s12.5 -51.5 12.5 -77.5v-275zM354.998 487.999c0 8.66699 -1.50195 18.8301 -4.50195 30.4971s-8.16699 22.834 -15.5 33.501
s-17.166 19.834 -29.499 27.501s-28.166 11.5 -47.499 11.5s-35.5 -3.5 -48.5 -10.5s-23.333 -15.667 -31 -26s-13.167 -21.5 -16.5 -33.5s-5 -23.333 -5 -34l1 -266c0 -33.333 7.66699 -61.333 23 -84s41.333 -34 78 -34c26 0 48.5 8.83301 67.5 26.5
s28.5 41.834 28.5 72.501v286zM193.996 863.995c11.333 0 22.3359 -2.16797 33.0029 -6.50098s21.167 -9.16602 31.5 -14.499s20.166 -10.166 29.499 -14.499s18 -6.5 26 -6.5c10 0 19.5 3.33301 28.5 10s19.167 17.667 30.5 33l56 -33
c-15.333 -32.667 -31.833 -56.334 -49.5 -71.001s-36.5 -22 -56.5 -22c-12 0 -23.5 2.16699 -34.5 6.5s-21.667 9 -32 14l-30 14c-9.66699 4.33301 -18.834 6.5 -27.501 6.5c-10 0 -19.833 -3 -29.5 -9s-20.5 -16.667 -32.5 -32l-27 16l-27 16
c13.333 30 29.666 53 48.999 69s40 24 62 24z" />
    <glyph glyph-name="Odieresis" unicode="&#xd6;" horiz-adv-x="516" 
d="M471 211c0 -33.333 -5.16895 -63.334 -15.502 -90.001s-25 -49.5 -44 -68.5s-41.5 -33.5 -67.5 -43.5s-54.667 -15 -86 -15c-38 0 -70.667 6.16699 -98 18.5s-49.5 29 -66.5 50s-29.5 45.333 -37.5 73s-12 56.834 -12 87.501v263c0 24.667 3.83301 49.667 11.5 75
s20 48.333 37 69s39 37.667 66 51s60.167 20 99.5 20c36.667 0 68.334 -6.33301 95.001 -19s48.834 -29.167 66.501 -49.5s30.667 -43.333 39 -69s12.5 -51.5 12.5 -77.5v-275zM354.998 487.999c0 8.66699 -1.50195 18.8301 -4.50195 30.4971s-8.16699 22.834 -15.5 33.501
s-17.166 19.834 -29.499 27.501s-28.166 11.5 -47.499 11.5s-35.5 -3.5 -48.5 -10.5s-23.333 -15.667 -31 -26s-13.167 -21.5 -16.5 -33.5s-5 -23.333 -5 -34l1 -266c0 -33.333 7.66699 -61.333 23 -84s41.333 -34 78 -34c26 0 48.5 8.83301 67.5 26.5
s28.5 41.834 28.5 72.501v286zM296.996 741.995v108h106v-108h-106zM114.996 741.995v108h108v-108h-108z" />
    <glyph glyph-name="multiply" unicode="&#xd7;" horiz-adv-x="487" 
d="M312 290l145 -147l-62 -61l-145 146l-147 -144l-30.5 31l-31.5 31l147 146l-146 146l31.5 31l30.5 31l145 -147l146 145l62 -64z" />
    <glyph glyph-name="Oslash" unicode="&#xd8;" horiz-adv-x="516" 
d="M471 211c0 -33.333 -5.16895 -63.333 -15.502 -90s-25 -49.5 -44 -68.5s-41.5 -33.5 -67.5 -43.5s-54.667 -15 -86 -15s-58.666 4 -81.999 12s-43.666 19.333 -60.999 34l-28 -50l-48 31l37 67c-11.333 19.333 -19.5 40.333 -24.5 63s-7.5 46.667 -7.5 72v263
c0 24.667 3.83301 49.667 11.5 75s20 48.333 37 69s39 37.667 66 51s60.167 20 99.5 20c28 0 53.167 -3.83301 75.5 -11.5s41.833 -18.167 58.5 -31.5l24 43l50 -30l-32 -57c12.667 -19.333 22 -40 28 -62s9 -44 9 -66v-275zM354.998 471l-181 -324.001
c8 -13.333 18.833 -24 32.5 -32s31.167 -12 52.5 -12c26 0 48.5 8.83301 67.5 26.5s28.5 41.834 28.5 72.501v269zM257.998 590.999c-19.333 0 -35.501 -3.5 -48.501 -10.5s-23.333 -15.667 -31 -26s-13.167 -21.5 -16.5 -33.5s-5 -23.333 -5 -34l1 -252l176 319
c-7.33301 10.667 -17.166 19.5 -29.499 26.5s-27.833 10.5 -46.5 10.5z" />
    <glyph glyph-name="Ugrave" unicode="&#xd9;" horiz-adv-x="535" 
d="M482 696v-484.999c0 -33.333 -5.16699 -63.5 -15.5 -90.5s-25 -49.833 -44 -68.5s-41.5 -33 -67.5 -43s-54.667 -15 -86 -15c-36 0 -67.5 5.83301 -94.5 17.5s-49.333 27.5 -67 47.5s-31 43.5 -40 70.5s-13.5 55.833 -13.5 86.5v480h114v-483c0 -30 8.5 -55.667 25.5 -77
s42.167 -32 75.5 -32c28 0 51.167 9.16699 69.5 27.5s27.5 43.166 27.5 74.499v490h116zM304 732.001l-188 100l72 81l160 -126z" />
    <glyph glyph-name="Uacute" unicode="&#xda;" horiz-adv-x="535" 
d="M482 696v-484.999c0 -33.333 -5.16699 -63.5 -15.5 -90.5s-25 -49.833 -44 -68.5s-41.5 -33 -67.5 -43s-54.667 -15 -86 -15c-36 0 -67.5 5.83301 -94.5 17.5s-49.333 27.5 -67 47.5s-31 43.5 -40 70.5s-13.5 55.833 -13.5 86.5v480h114v-483c0 -30 8.5 -55.667 25.5 -77
s42.167 -32 75.5 -32c28 0 51.167 9.16699 69.5 27.5s27.5 43.166 27.5 74.499v490h116zM183 780.001l159 124l69 -80l-185 -98z" />
    <glyph glyph-name="Ucircumflex" unicode="&#xdb;" horiz-adv-x="535" 
d="M482 696v-484.999c0 -33.333 -5.16699 -63.5 -15.5 -90.5s-25 -49.833 -44 -68.5s-41.5 -33 -67.5 -43s-54.667 -15 -86 -15c-36 0 -67.5 5.83301 -94.5 17.5s-49.333 27.5 -67 47.5s-31 43.5 -40 70.5s-13.5 55.833 -13.5 86.5v480h114v-483c0 -30 8.5 -55.667 25.5 -77
s42.167 -32 75.5 -32c28 0 51.167 9.16699 69.5 27.5s27.5 43.166 27.5 74.499v490h116zM261 808.001l-132 -80l-41 44l141 127h69l137 -126l-42 -45z" />
    <glyph glyph-name="Udieresis" unicode="&#xdc;" horiz-adv-x="535" 
d="M482 696v-484.999c0 -33.333 -5.16699 -63.5 -15.5 -90.5s-25 -49.833 -44 -68.5s-41.5 -33 -67.5 -43s-54.667 -15 -86 -15c-36 0 -67.5 5.83301 -94.5 17.5s-49.333 27.5 -67 47.5s-31 43.5 -40 70.5s-13.5 55.833 -13.5 86.5v480h114v-483c0 -30 8.5 -55.667 25.5 -77
s42.167 -32 75.5 -32c28 0 51.167 9.16699 69.5 27.5s27.5 43.166 27.5 74.499v490h116zM307 742.001v108h106v-108h-106zM125 742.001v108h108v-108h-108z" />
    <glyph glyph-name="Yacute" unicode="&#xdd;" horiz-adv-x="476" 
d="M241 404c7.33301 22.667 15.001 45.001 23.001 67.001l24 67l61 158h121l-176 -412v-284h-112v284l-176 413h124l30.5 -81c10.333 -26.667 20.166 -53.334 29.499 -80.001l22.5 -66l22.5 -66h6zM161.001 780.001l159 124l69 -80l-185 -98z" />
    <glyph glyph-name="Thorn" unicode="&#xde;" horiz-adv-x="502" 
d="M485 355c0 -30 -4.33301 -57.999 -13 -83.999s-21.5 -48.667 -38.5 -68s-38.5 -34.5 -64.5 -45.5s-56.333 -16.5 -91 -16.5h-102l1 -141h-114v711h114l-1 -141h96c32.667 0 62 -4.33301 88 -13s48.333 -21.834 67 -39.501s33 -40 43 -67s15 -58.833 15 -95.5z
M372 357.001c0 34.667 -8.33301 61.167 -25 79.5s-42 27.5 -76 27.5h-95v-216h96c34 0 59.167 9.83301 75.5 29.5s24.5 46.167 24.5 79.5z" />
    <glyph glyph-name="germandbls" unicode="&#xdf;" horiz-adv-x="472" 
d="M344 420c20 -8.66699 35.6689 -20.0029 47.002 -34.0029s19.666 -29.5 24.999 -46.5s8.5 -34.667 9.5 -53s1.5 -36.166 1.5 -53.499c0 -30 -2 -59.333 -6 -88s-12.333 -54.167 -25 -76.5s-30.667 -40.166 -54 -53.499s-54 -20 -92 -20h-13.5
c-4.33301 0 -8.83301 0.333008 -13.5 1v92h10c19.333 0 34.5 4.5 45.5 13.5s19 20.833 24 35.5s8 31.667 9 51s1.5 39.666 1.5 60.999c0 14 -0.833008 28.333 -2.5 43s-5 27.834 -10 39.501s-12 21.334 -21 29.001s-21.167 11.5 -36.5 11.5h-8v87h6
c22.667 0 37.834 8.33301 45.501 25s11.5 35.334 11.5 56.001c0 7.33301 -0.833008 16 -2.5 26s-4.83398 19.5 -9.50098 28.5s-11.334 16.667 -20.001 23s-20 9.5 -34 9.5c-15.333 0 -27.5 -2.83301 -36.5 -8.5s-16 -13.167 -21 -22.5s-8.16699 -19.833 -9.5 -31.5
s-2 -23.5 -2 -35.5v-529h-111v526c0 61.333 14.5 110 43.5 146s74.5 54 136.5 54c30 0 55.833 -4.33301 77.5 -13s39.667 -20.5 54 -35.5s25 -33 32 -54s10.5 -43.5 10.5 -67.5c0 -28.667 -4.66699 -55.334 -14 -80.001s-25.333 -42.667 -48 -54v-2v0z" />
    <glyph glyph-name="agrave" unicode="&#xe0;" horiz-adv-x="444" 
d="M290 0l0.00292969 38l-4 2c-12 -16 -28 -27.5 -48 -34.5s-40.333 -10.5 -61 -10.5c-48.667 0 -84.667 13.667 -108 41s-35 63.333 -35 108c0 21.333 3.33301 41.166 10 59.499s17 34.333 31 48s31.667 24.5 53 32.5s46.666 12 75.999 12h86v45
c0 16.667 -5.66699 30.834 -17 42.501s-30 17.5 -56 17.5c-18 0 -34.667 -3.16699 -50 -9.5s-27.333 -17.833 -36 -34.5c-2.66699 1.33301 -8 4.5 -16 9.5l-25.5 15.5c-9 5.33301 -17.333 10.5 -25 15.5s-12.834 8.5 -15.501 10.5c15.333 32 38 55.333 68 70s64 22 102 22
c26 0 50 -2.5 72 -7.5s41.167 -13.5 57.5 -25.5s29.166 -27.833 38.499 -47.5s14 -44.167 14 -73.5v-346h-111zM290.003 212l-78.999 -0.000976562c-22 0 -39.167 -5.16699 -51.5 -15.5s-18.5 -25.5 -18.5 -45.5c0 -15.333 5.5 -28.666 16.5 -39.999s29.167 -17 54.5 -17
c21.333 0 39.666 5.5 54.999 16.5s23 28.833 23 53.5v48zM227.004 542.999l-120 174l99 38l84 -181z" />
    <glyph glyph-name="aacute" unicode="&#xe1;" horiz-adv-x="444" 
d="M290 0l0.00292969 38l-4 2c-12 -16 -28 -27.5 -48 -34.5s-40.333 -10.5 -61 -10.5c-48.667 0 -84.667 13.667 -108 41s-35 63.333 -35 108c0 21.333 3.33301 41.166 10 59.499s17 34.333 31 48s31.667 24.5 53 32.5s46.666 12 75.999 12h86v45
c0 16.667 -5.66699 30.834 -17 42.501s-30 17.5 -56 17.5c-18 0 -34.667 -3.16699 -50 -9.5s-27.333 -17.833 -36 -34.5c-2.66699 1.33301 -8 4.5 -16 9.5l-25.5 15.5c-9 5.33301 -17.333 10.5 -25 15.5s-12.834 8.5 -15.501 10.5c15.333 32 38 55.333 68 70s64 22 102 22
c26 0 50 -2.5 72 -7.5s41.167 -13.5 57.5 -25.5s29.166 -27.833 38.499 -47.5s14 -44.167 14 -73.5v-346h-111zM290.003 212l-78.999 -0.000976562c-22 0 -39.167 -5.16699 -51.5 -15.5s-18.5 -25.5 -18.5 -45.5c0 -15.333 5.5 -28.666 16.5 -39.999s29.167 -17 54.5 -17
c21.333 0 39.666 5.5 54.999 16.5s23 28.833 23 53.5v48zM190.004 570.999l82 184l98 -37l-116 -175z" />
    <glyph glyph-name="acircumflex" unicode="&#xe2;" horiz-adv-x="444" 
d="M290 0l0.00292969 38l-4 2c-12 -16 -28 -27.5 -48 -34.5s-40.333 -10.5 -61 -10.5c-48.667 0 -84.667 13.667 -108 41s-35 63.333 -35 108c0 21.333 3.33301 41.166 10 59.499s17 34.333 31 48s31.667 24.5 53 32.5s46.666 12 75.999 12h86v45
c0 16.667 -5.66699 30.834 -17 42.501s-30 17.5 -56 17.5c-18 0 -34.667 -3.16699 -50 -9.5s-27.333 -17.833 -36 -34.5c-2.66699 1.33301 -8 4.5 -16 9.5l-25.5 15.5c-9 5.33301 -17.333 10.5 -25 15.5s-12.834 8.5 -15.501 10.5c15.333 32 38 55.333 68 70s64 22 102 22
c26 0 50 -2.5 72 -7.5s41.167 -13.5 57.5 -25.5s29.166 -27.833 38.499 -47.5s14 -44.167 14 -73.5v-346h-111zM290.003 212l-78.999 -0.000976562c-22 0 -39.167 -5.16699 -51.5 -15.5s-18.5 -25.5 -18.5 -45.5c0 -15.333 5.5 -28.666 16.5 -39.999s29.167 -17 54.5 -17
c21.333 0 39.666 5.5 54.999 16.5s23 28.833 23 53.5v48zM228.004 634.999c-3.33301 -2 -11.167 -8 -23.5 -18l-40.5 -32.5l-41 -32l-23 -17.5l-45 40l141 152h71l135 -150l-46 -42z" />
    <glyph glyph-name="atilde" unicode="&#xe3;" horiz-adv-x="444" 
d="M290 0l0.00292969 38l-4 2c-12 -16 -28 -27.5 -48 -34.5s-40.333 -10.5 -61 -10.5c-48.667 0 -84.667 13.667 -108 41s-35 63.333 -35 108c0 21.333 3.33301 41.166 10 59.499s17 34.333 31 48s31.667 24.5 53 32.5s46.666 12 75.999 12h86v45
c0 16.667 -5.66699 30.834 -17 42.501s-30 17.5 -56 17.5c-18 0 -34.667 -3.16699 -50 -9.5s-27.333 -17.833 -36 -34.5c-2.66699 1.33301 -8 4.5 -16 9.5l-25.5 15.5c-9 5.33301 -17.333 10.5 -25 15.5s-12.834 8.5 -15.501 10.5c15.333 32 38 55.333 68 70s64 22 102 22
c26 0 50 -2.5 72 -7.5s41.167 -13.5 57.5 -25.5s29.166 -27.833 38.499 -47.5s14 -44.167 14 -73.5v-346h-111zM168.003 694c11.333 0 22.3359 -2.16797 33.0029 -6.50098s21.167 -9.16602 31.5 -14.499s20.166 -10.166 29.499 -14.499s18 -6.5 26 -6.5
c10 0 19.5 3.33301 28.5 10s19.167 17.667 30.5 33l56 -33c-15.333 -32.667 -31.833 -56.334 -49.5 -71.001s-36.5 -22 -56.5 -22c-12 0 -23.5 2.16699 -34.5 6.5s-21.667 9 -32 14l-30 14c-9.66699 4.33301 -18.834 6.5 -27.501 6.5c-10 0 -19.833 -3 -29.5 -9
s-20.5 -16.667 -32.5 -32l-27 16l-27 16c13.333 30 29.666 53 48.999 69s40 24 62 24zM290.006 211.999l-78.999 -0.000976562c-22 0 -39.167 -5.16699 -51.5 -15.5s-18.5 -25.5 -18.5 -45.5c0 -15.333 5.5 -28.666 16.5 -39.999s29.167 -17 54.5 -17
c21.333 0 39.666 5.5 54.999 16.5s23 28.833 23 53.5v48z" />
    <glyph glyph-name="adieresis" unicode="&#xe4;" horiz-adv-x="444" 
d="M290 0l0.00292969 38l-4 2c-12 -16 -28 -27.5 -48 -34.5s-40.333 -10.5 -61 -10.5c-48.667 0 -84.667 13.667 -108 41s-35 63.333 -35 108c0 21.333 3.33301 41.166 10 59.499s17 34.333 31 48s31.667 24.5 53 32.5s46.666 12 75.999 12h86v45
c0 16.667 -5.66699 30.834 -17 42.501s-30 17.5 -56 17.5c-18 0 -34.667 -3.16699 -50 -9.5s-27.333 -17.833 -36 -34.5c-2.66699 1.33301 -8 4.5 -16 9.5l-25.5 15.5c-9 5.33301 -17.333 10.5 -25 15.5s-12.834 8.5 -15.501 10.5c15.333 32 38 55.333 68 70s64 22 102 22
c26 0 50 -2.5 72 -7.5s41.167 -13.5 57.5 -25.5s29.166 -27.833 38.499 -47.5s14 -44.167 14 -73.5v-346h-111zM290.003 212l-78.999 -0.000976562c-22 0 -39.167 -5.16699 -51.5 -15.5s-18.5 -25.5 -18.5 -45.5c0 -15.333 5.5 -28.666 16.5 -39.999s29.167 -17 54.5 -17
c21.333 0 39.666 5.5 54.999 16.5s23 28.833 23 53.5v48zM267.004 574.999v108h107v-108h-107zM86.0039 574.999v108h106v-108h-106z" />
    <glyph glyph-name="aring" unicode="&#xe5;" horiz-adv-x="444" 
d="M290 0l0.00292969 38l-4 2c-12 -16 -28 -27.5 -48 -34.5s-40.333 -10.5 -61 -10.5c-48.667 0 -84.667 13.667 -108 41s-35 63.333 -35 108c0 21.333 3.33301 41.166 10 59.499s17 34.333 31 48s31.667 24.5 53 32.5s46.666 12 75.999 12h86v45
c0 16.667 -5.66699 30.834 -17 42.501s-30 17.5 -56 17.5c-18 0 -34.667 -3.16699 -50 -9.5s-27.333 -17.833 -36 -34.5c-2.66699 1.33301 -8 4.5 -16 9.5l-25.5 15.5c-9 5.33301 -17.333 10.5 -25 15.5s-12.834 8.5 -15.501 10.5c15.333 32 38 55.333 68 70s64 22 102 22
c26 0 50 -2.5 72 -7.5s41.167 -13.5 57.5 -25.5s29.166 -27.833 38.499 -47.5s14 -44.167 14 -73.5v-346h-111zM290.003 212l-78.999 -0.000976562c-22 0 -39.167 -5.16699 -51.5 -15.5s-18.5 -25.5 -18.5 -45.5c0 -15.333 5.5 -28.666 16.5 -39.999s29.167 -17 54.5 -17
c21.333 0 39.666 5.5 54.999 16.5s23 28.833 23 53.5v48zM270.004 632.999c0 11.333 -3.83301 20.666 -11.5 27.999s-17.167 11 -28.5 11s-21 -3.66699 -29 -11s-12 -16.666 -12 -27.999c0 -10.667 4 -19.667 12 -27s17.667 -11 29 -11s20.833 3.66699 28.5 11
s11.5 16.333 11.5 27zM129.004 632.999c0 13.333 2.66699 26 8 38s12.5 22.5 21.5 31.5s19.667 16 32 21s25.5 7.5 39.5 7.5c28 0 51.5 -9.5 70.5 -28.5s28.5 -42.167 28.5 -69.5c0 -13.333 -2.5 -25.833 -7.5 -37.5s-12 -21.834 -21 -30.501s-19.5 -15.5 -31.5 -20.5
s-25 -7.5 -39 -7.5s-27.167 2.5 -39.5 7.5s-23 11.833 -32 20.5s-16.167 18.834 -21.5 30.501s-8 24.167 -8 37.5z" />
    <glyph glyph-name="ae" unicode="&#xe6;" horiz-adv-x="699" 
d="M652 92c-15.333 -33.333 -37.665 -57.8359 -66.998 -73.5029s-62.333 -23.5 -99 -23.5c-70 0 -120 21 -150 63c-15.333 -16 -30.833 -28.167 -46.5 -36.5s-30.5 -14.5 -44.5 -18.5s-26.833 -6.33301 -38.5 -7s-21.5 -1 -29.5 -1c-48.667 0 -84.667 13.667 -108 41
s-35 63 -35 107c0 21.333 3.33301 41.333 10 60s17 34.834 31 48.501s31.667 24.5 53 32.5s46.666 12 75.999 12h86v40c0 17.333 -6.16699 31.833 -18.5 43.5s-30.833 17.5 -55.5 17.5c-16.667 0 -33.167 -2.66699 -49.5 -8s-28.166 -16 -35.499 -32
c-14 8 -27.833 16.333 -41.5 25l-40.5 26c15.333 32 37.833 55.333 67.5 70s63.5 22 101.5 22c28.667 0 55.167 -3.16699 79.5 -9.5s44.166 -19.166 59.499 -38.499c26.667 32.667 67 49 121 49c36 0 66 -6.16699 90 -18.5s43 -29.333 57 -51s23.833 -47.334 29.5 -77.001
s8.5 -62.167 8.5 -97.5v-44h-259c0 -17.333 1 -33.166 3 -47.499s5.83301 -26.666 11.5 -36.999s13.667 -18.5 24 -24.5s23.5 -9 39.5 -9c33.333 0 59.666 15.667 78.999 47zM290.001 211.997h-79c-22.667 0 -40.167 -5.16699 -52.5 -15.5s-18.5 -25.5 -18.5 -45.5
c0 -16 5.5 -29.667 16.5 -41s29.167 -17 54.5 -17c22 0 40.667 5.5 56 16.5s23 28.833 23 53.5v49zM551.001 294.997c0 31.333 -5.66699 56.5 -17 75.5s-30.333 28.5 -57 28.5c-13.333 0 -24.5 -2.66699 -33.5 -8s-16.333 -12.666 -22 -21.999s-9.66699 -20.333 -12 -33
s-3.83301 -26.334 -4.5 -41.001h146z" />
    <glyph glyph-name="ccedilla" unicode="&#xe7;" horiz-adv-x="404" 
d="M220 501c38.667 0 72.333 -9.00293 101 -27.0029s49.667 -43.333 63 -76c-2.66699 -2 -8.5 -5.33301 -17.5 -10l-29 -14.5l-29 -14.5c-9 -4.66699 -14.833 -8 -17.5 -10c-14.667 32.667 -37 49 -67 49c-17.333 0 -31.5 -3.66699 -42.5 -11s-19.5 -17.5 -25.5 -30.5
s-10 -28.667 -12 -47s-3 -38.166 -3 -59.499c0 -22 1.16699 -42.5 3.5 -61.5s6.5 -35.167 12.5 -48.5s14.333 -23.833 25 -31.5s24.334 -11.5 41.001 -11.5c16 0 29.5 4.33301 40.5 13s20.167 20 27.5 34c2.66699 -2 8.5 -5.16699 17.5 -9.5l29 -14.5l29 -14.5
c9 -4.33301 15.167 -7.5 18.5 -9.5c-13.333 -30.667 -33 -54.667 -59 -72s-57 -26.666 -93 -27.999l-12 -37c17.333 -2 31.833 -6 43.5 -12s21 -13 28 -21s12 -16.667 15 -26s4.5 -18 4.5 -26c0 -10 -1.83301 -20 -5.5 -30s-9.66699 -19 -18 -27s-18.833 -14.5 -31.5 -19.5
s-28 -7.5 -46 -7.5c-11.333 0 -26.5 1.16699 -45.5 3.5s-36.5 7.83301 -52.5 16.5c3.33301 8 6.5 16.167 9.5 24.5s6.16699 16.5 9.5 24.5c14 -7.33301 26.333 -11.666 37 -12.999s20.667 -2 30 -2c11.333 0 20.833 3.16699 28.5 9.5s11.5 14.166 11.5 23.499
c0 11.333 -3.83301 19.833 -11.5 25.5s-17.5 8.5 -29.5 8.5c-5.33301 0 -9.33301 -0.333008 -12 -1l-13.5 9.5l-13.5 9.5l21 69c-29.333 4.66699 -53.5 14 -72.5 28s-34.333 32 -46 54s-19.834 47.5 -24.501 76.5s-7 60.5 -7 94.5c0 36.667 3.5 70.334 10.5 101.001
s18 57 33 79s34.5 39.167 58.5 51.5s53.333 18.5 88 18.5z" />
    <glyph glyph-name="egrave" unicode="&#xe8;" horiz-adv-x="444" 
d="M305 145l45.5 -23.999l45.5 -25c-15.333 -33.333 -38 -58.5 -68 -75.5s-63.333 -25.5 -100 -25.5c-70 0 -119.5 20.667 -148.5 62s-43.5 104.666 -43.5 189.999c0 35.333 2.83301 68.333 8.5 99s15.667 57.5 30 80.5s33.5 41.167 57.5 54.5s54.333 20 91 20
c34 0 62.667 -5.66699 86 -17s42.333 -27 57 -47s25.167 -43.667 31.5 -71s9.5 -57.333 9.5 -90v-58h-259c0 -16 1 -31.5 3 -46.5s6 -28.167 12 -39.5s14 -20.333 24 -27s23 -10 39 -10s30.667 4.5 44 13.5s25 21.167 35 36.5zM294 295.001c0 31.333 -5.5 56.5 -16.5 75.5
s-29.833 28.5 -56.5 28.5s-45 -10 -55 -30s-15.667 -44.667 -17 -74h145zM206 543.001l-120 174l99 38l84 -181z" />
    <glyph glyph-name="eacute" unicode="&#xe9;" horiz-adv-x="444" 
d="M305 145l45.5 -23.999l45.5 -25c-15.333 -33.333 -38 -58.5 -68 -75.5s-63.333 -25.5 -100 -25.5c-70 0 -119.5 20.667 -148.5 62s-43.5 104.666 -43.5 189.999c0 35.333 2.83301 68.333 8.5 99s15.667 57.5 30 80.5s33.5 41.167 57.5 54.5s54.333 20 91 20
c34 0 62.667 -5.66699 86 -17s42.333 -27 57 -47s25.167 -43.667 31.5 -71s9.5 -57.333 9.5 -90v-58h-259c0 -16 1 -31.5 3 -46.5s6 -28.167 12 -39.5s14 -20.333 24 -27s23 -10 39 -10s30.667 4.5 44 13.5s25 21.167 35 36.5zM294 295.001c0 31.333 -5.5 56.5 -16.5 75.5
s-29.833 28.5 -56.5 28.5s-45 -10 -55 -30s-15.667 -44.667 -17 -74h145zM169 571.001l82 184l98 -37l-116 -175z" />
    <glyph glyph-name="ecircumflex" unicode="&#xea;" horiz-adv-x="444" 
d="M305 145l45.5 -23.999l45.5 -25c-15.333 -33.333 -38 -58.5 -68 -75.5s-63.333 -25.5 -100 -25.5c-70 0 -119.5 20.667 -148.5 62s-43.5 104.666 -43.5 189.999c0 35.333 2.83301 68.333 8.5 99s15.667 57.5 30 80.5s33.5 41.167 57.5 54.5s54.333 20 91 20
c34 0 62.667 -5.66699 86 -17s42.333 -27 57 -47s25.167 -43.667 31.5 -71s9.5 -57.333 9.5 -90v-58h-259c0 -16 1 -31.5 3 -46.5s6 -28.167 12 -39.5s14 -20.333 24 -27s23 -10 39 -10s30.667 4.5 44 13.5s25 21.167 35 36.5zM294 295.001c0 31.333 -5.5 56.5 -16.5 75.5
s-29.833 28.5 -56.5 28.5s-45 -10 -55 -30s-15.667 -44.667 -17 -74h145zM222 635.001c-3.33301 -2 -11.167 -8 -23.5 -18l-40.5 -32.5l-41 -32l-23 -17.5l-45 40l141 152h71l135 -150l-46 -42z" />
    <glyph glyph-name="edieresis" unicode="&#xeb;" horiz-adv-x="444" 
d="M305 145l45.5 -23.999l45.5 -25c-15.333 -33.333 -38 -58.5 -68 -75.5s-63.333 -25.5 -100 -25.5c-70 0 -119.5 20.667 -148.5 62s-43.5 104.666 -43.5 189.999c0 35.333 2.83301 68.333 8.5 99s15.667 57.5 30 80.5s33.5 41.167 57.5 54.5s54.333 20 91 20
c34 0 62.667 -5.66699 86 -17s42.333 -27 57 -47s25.167 -43.667 31.5 -71s9.5 -57.333 9.5 -90v-58h-259c0 -16 1 -31.5 3 -46.5s6 -28.167 12 -39.5s14 -20.333 24 -27s23 -10 39 -10s30.667 4.5 44 13.5s25 21.167 35 36.5zM294 295.001c0 31.333 -5.5 56.5 -16.5 75.5
s-29.833 28.5 -56.5 28.5s-45 -10 -55 -30s-15.667 -44.667 -17 -74h145zM261 575.001v108h107v-108h-107zM80 575.001v108h106v-108h-106z" />
    <glyph glyph-name="igrave" unicode="&#xec;" horiz-adv-x="225" 
d="M57 0v495h111v-495h-111zM87 543l-120 174l99 38l84 -181z" />
    <glyph glyph-name="iacute" unicode="&#xed;" horiz-adv-x="225" 
d="M57 0v495h111v-495h-111zM63 571l82 184l98 -37l-116 -175z" />
    <glyph glyph-name="icircumflex" unicode="&#xee;" horiz-adv-x="297" 
d="M92 0v495h111v-495h-111zM148 635c-3.33301 -2 -11.167 -8 -23.5 -18l-40.5 -32.5l-41 -32l-23 -17.5l-45 40l141 152h71l135 -150l-46 -42z" />
    <glyph glyph-name="idieresis" unicode="&#xef;" horiz-adv-x="268" 
d="M78 0v495h111v-495h-111zM171 575v108h107v-108h-107zM-10 575v108h106v-108h-106z" />
    <glyph glyph-name="eth" unicode="&#xf0;" horiz-adv-x="455" 
d="M210 477c6.66699 0 14.8359 -0.832031 24.5029 -2.49902s19.5 -4.5 29.5 -8.5s19.667 -9.16699 29 -15.5s17 -13.833 23 -22.5h3c-1.33301 23.333 -3.33301 46 -6 68s-9.33398 42.667 -20.001 62l-57 -44l-16 21l-16 21l57 43c-13.333 13.333 -30.333 24.166 -51 32.499
s-44.334 14.5 -71.001 18.5l12 81c50 -4 89.5 -13.167 118.5 -27.5s51.167 -29.5 66.5 -45.5l64 50l35 -40l-33 -25.5c-10.667 -8.33301 -21.667 -16.5 -33 -24.5c10 -14.667 18 -33 24 -55s10.833 -46.333 14.5 -73s6 -55.334 7 -86.001s1.5 -61.667 1.5 -93
c0 -23.333 -0.666992 -46.5 -2 -69.5s-4 -45.333 -8 -67s-9.5 -42.167 -16.5 -61.5s-15.833 -36.666 -26.5 -51.999c-15.333 -21.333 -34.833 -37.833 -58.5 -49.5s-53.5 -17.5 -89.5 -17.5s-65.833 5.83301 -89.5 17.5s-42.334 28 -56.001 49s-23.167 45.833 -28.5 74.5
s-8 60 -8 94c0 24.667 1.5 49.5 4.5 74.5s8.16699 47.167 15.5 66.5c11.333 32 29.833 57.833 55.5 77.5s59.5 29.5 101.5 29.5zM220.002 376.001c-10.667 0 -20.5 -1.83105 -29.5 -5.49805s-17 -10.834 -24 -21.501s-12.5 -25.5 -16.5 -44.5s-6 -43.833 -6 -74.5
c0 -20.667 1.16699 -39.334 3.5 -56.001s6.33301 -31 12 -43s13.334 -21.167 23.001 -27.5s21.834 -9.5 36.501 -9.5c12 0 22.833 2.5 32.5 7.5s17.667 13.167 24 24.5s11.166 26.333 14.499 45s5 41.667 5 69c0 48 -5.83301 82.667 -17.5 104s-30.834 32 -57.501 32z" />
    <glyph glyph-name="ntilde" unicode="&#xf1;" horiz-adv-x="459" 
d="M300 0l-0.00292969 318.001c0 24.667 -6.66699 43.5 -20 56.5s-30 19.5 -50 19.5c-21.333 0 -38.666 -6.83301 -51.999 -20.5s-20 -32.834 -20 -57.501v-316h-110v495h111v-48h3c13.333 16 29.333 28.833 48 38.5s38.334 14.5 59.001 14.5
c44.667 0 79.334 -13.5 104.001 -40.5s37 -63.833 37 -110.5v-349h-110zM150.997 694.001c11.333 0 22.3359 -2.16797 33.0029 -6.50098s21.167 -9.16602 31.5 -14.499s20.166 -10.166 29.499 -14.499s18 -6.5 26 -6.5c10 0 19.5 3.33301 28.5 10s19.167 17.667 30.5 33
l56 -33c-15.333 -32.667 -31.833 -56.334 -49.5 -71.001s-36.5 -22 -56.5 -22c-12 0 -23.5 2.16699 -34.5 6.5s-21.667 9 -32 14l-30 14c-9.66699 4.33301 -18.834 6.5 -27.501 6.5c-10 0 -19.833 -3 -29.5 -9s-20.5 -16.667 -32.5 -32l-27 16l-27 16
c13.333 30 29.666 53 48.999 69s40 24 62 24z" />
    <glyph glyph-name="ograve" unicode="&#xf2;" horiz-adv-x="449" 
d="M228 502c42.667 0 76.3311 -8.5 100.998 -25.5s43.334 -38.167 56.001 -63.5c9.33301 -18.667 15.666 -43.167 18.999 -73.5s5 -61.5 5 -93.5c0 -26.667 -1.66699 -54.667 -5 -84s-8.66602 -53 -15.999 -71c-7.33301 -18.667 -16.833 -34.167 -28.5 -46.5
s-25 -22.333 -40 -30s-31.167 -13.167 -48.5 -16.5s-35 -5 -53 -5c-36 0 -66.167 6.66699 -90.5 20s-43.166 31 -56.499 53c-12 19.333 -20.5 44.333 -25.5 75s-7.5 65.334 -7.5 104.001c0 30 1.5 59.167 4.5 87.5s8.16699 51.166 15.5 68.499c13.333 31.333 34 56 62 74
s64 27 108 27zM225.997 400c-14.667 0 -27.999 -3.66992 -39.999 -11.0029s-20.667 -18.666 -26 -33.999c-4.66699 -12 -7.83398 -27.833 -9.50098 -47.5s-2.5 -42.167 -2.5 -67.5c0 -19.333 0.5 -37.666 1.5 -54.999s3.83301 -32.333 8.5 -45c11.333 -30 33 -45 65 -45
c15.333 0 29.333 3.83301 42 11.5s21.667 22.834 27 45.501c2.66699 9.33301 4.5 23 5.5 41s1.5 38.333 1.5 61c0 20 -0.666992 38.5 -2 55.5s-4 31.167 -8 42.5c-11.333 32 -32.333 48 -63 48zM209.998 542.997l-120 174l99 38l84 -181z" />
    <glyph glyph-name="oacute" unicode="&#xf3;" horiz-adv-x="449" 
d="M228 502c42.667 0 76.3311 -8.5 100.998 -25.5s43.334 -38.167 56.001 -63.5c9.33301 -18.667 15.666 -43.167 18.999 -73.5s5 -61.5 5 -93.5c0 -26.667 -1.66699 -54.667 -5 -84s-8.66602 -53 -15.999 -71c-7.33301 -18.667 -16.833 -34.167 -28.5 -46.5
s-25 -22.333 -40 -30s-31.167 -13.167 -48.5 -16.5s-35 -5 -53 -5c-36 0 -66.167 6.66699 -90.5 20s-43.166 31 -56.499 53c-12 19.333 -20.5 44.333 -25.5 75s-7.5 65.334 -7.5 104.001c0 30 1.5 59.167 4.5 87.5s8.16699 51.166 15.5 68.499c13.333 31.333 34 56 62 74
s64 27 108 27zM225.997 400c-14.667 0 -27.999 -3.66992 -39.999 -11.0029s-20.667 -18.666 -26 -33.999c-4.66699 -12 -7.83398 -27.833 -9.50098 -47.5s-2.5 -42.167 -2.5 -67.5c0 -19.333 0.5 -37.666 1.5 -54.999s3.83301 -32.333 8.5 -45c11.333 -30 33 -45 65 -45
c15.333 0 29.333 3.83301 42 11.5s21.667 22.834 27 45.501c2.66699 9.33301 4.5 23 5.5 41s1.5 38.333 1.5 61c0 20 -0.666992 38.5 -2 55.5s-4 31.167 -8 42.5c-11.333 32 -32.333 48 -63 48zM166.998 570.997l82 184l98 -37l-116 -175z" />
    <glyph glyph-name="ocircumflex" unicode="&#xf4;" horiz-adv-x="449" 
d="M228 502c42.667 0 76.3311 -8.5 100.998 -25.5s43.334 -38.167 56.001 -63.5c9.33301 -18.667 15.666 -43.167 18.999 -73.5s5 -61.5 5 -93.5c0 -26.667 -1.66699 -54.667 -5 -84s-8.66602 -53 -15.999 -71c-7.33301 -18.667 -16.833 -34.167 -28.5 -46.5
s-25 -22.333 -40 -30s-31.167 -13.167 -48.5 -16.5s-35 -5 -53 -5c-36 0 -66.167 6.66699 -90.5 20s-43.166 31 -56.499 53c-12 19.333 -20.5 44.333 -25.5 75s-7.5 65.334 -7.5 104.001c0 30 1.5 59.167 4.5 87.5s8.16699 51.166 15.5 68.499c13.333 31.333 34 56 62 74
s64 27 108 27zM225.997 400c-14.667 0 -27.999 -3.66992 -39.999 -11.0029s-20.667 -18.666 -26 -33.999c-4.66699 -12 -7.83398 -27.833 -9.50098 -47.5s-2.5 -42.167 -2.5 -67.5c0 -19.333 0.5 -37.666 1.5 -54.999s3.83301 -32.333 8.5 -45c11.333 -30 33 -45 65 -45
c15.333 0 29.333 3.83301 42 11.5s21.667 22.834 27 45.501c2.66699 9.33301 4.5 23 5.5 41s1.5 38.333 1.5 61c0 20 -0.666992 38.5 -2 55.5s-4 31.167 -8 42.5c-11.333 32 -32.333 48 -63 48zM221.998 634.997c-3.33301 -2 -11.167 -8 -23.5 -18l-40.5 -32.5l-41 -32
l-23 -17.5l-45 40l141 152h71l135 -150l-46 -42z" />
    <glyph glyph-name="otilde" unicode="&#xf5;" horiz-adv-x="449" 
d="M228 502c42.667 0 76.3311 -8.5 100.998 -25.5s43.334 -38.167 56.001 -63.5c9.33301 -18.667 15.666 -43.167 18.999 -73.5s5 -61.5 5 -93.5c0 -26.667 -1.66699 -54.667 -5 -84s-8.66602 -53 -15.999 -71c-7.33301 -18.667 -16.833 -34.167 -28.5 -46.5
s-25 -22.333 -40 -30s-31.167 -13.167 -48.5 -16.5s-35 -5 -53 -5c-36 0 -66.167 6.66699 -90.5 20s-43.166 31 -56.499 53c-12 19.333 -20.5 44.333 -25.5 75s-7.5 65.334 -7.5 104.001c0 30 1.5 59.167 4.5 87.5s8.16699 51.166 15.5 68.499c13.333 31.333 34 56 62 74
s64 27 108 27zM225.997 400c-14.667 0 -27.999 -3.66992 -39.999 -11.0029s-20.667 -18.666 -26 -33.999c-4.66699 -12 -7.83398 -27.833 -9.50098 -47.5s-2.5 -42.167 -2.5 -67.5c0 -19.333 0.5 -37.666 1.5 -54.999s3.83301 -32.333 8.5 -45c11.333 -30 33 -45 65 -45
c15.333 0 29.333 3.83301 42 11.5s21.667 22.834 27 45.501c2.66699 9.33301 4.5 23 5.5 41s1.5 38.333 1.5 61c0 20 -0.666992 38.5 -2 55.5s-4 31.167 -8 42.5c-11.333 32 -32.333 48 -63 48zM160.998 693.997c11.333 0 22.3359 -2.16797 33.0029 -6.50098
s21.167 -9.16602 31.5 -14.499s20.166 -10.166 29.499 -14.499s18 -6.5 26 -6.5c10 0 19.5 3.33301 28.5 10s19.167 17.667 30.5 33l56 -33c-15.333 -32.667 -31.833 -56.334 -49.5 -71.001s-36.5 -22 -56.5 -22c-12 0 -23.5 2.16699 -34.5 6.5s-21.667 9 -32 14l-30 14
c-9.66699 4.33301 -18.834 6.5 -27.501 6.5c-10 0 -19.833 -3 -29.5 -9s-20.5 -16.667 -32.5 -32l-27 16l-27 16c13.333 30 29.666 53 48.999 69s40 24 62 24z" />
    <glyph glyph-name="odieresis" unicode="&#xf6;" horiz-adv-x="449" 
d="M228 502c42.667 0 76.3311 -8.5 100.998 -25.5s43.334 -38.167 56.001 -63.5c9.33301 -18.667 15.666 -43.167 18.999 -73.5s5 -61.5 5 -93.5c0 -26.667 -1.66699 -54.667 -5 -84s-8.66602 -53 -15.999 -71c-7.33301 -18.667 -16.833 -34.167 -28.5 -46.5
s-25 -22.333 -40 -30s-31.167 -13.167 -48.5 -16.5s-35 -5 -53 -5c-36 0 -66.167 6.66699 -90.5 20s-43.166 31 -56.499 53c-12 19.333 -20.5 44.333 -25.5 75s-7.5 65.334 -7.5 104.001c0 30 1.5 59.167 4.5 87.5s8.16699 51.166 15.5 68.499c13.333 31.333 34 56 62 74
s64 27 108 27zM225.997 400c-14.667 0 -27.999 -3.66992 -39.999 -11.0029s-20.667 -18.666 -26 -33.999c-4.66699 -12 -7.83398 -27.833 -9.50098 -47.5s-2.5 -42.167 -2.5 -67.5c0 -19.333 0.5 -37.666 1.5 -54.999s3.83301 -32.333 8.5 -45c11.333 -30 33 -45 65 -45
c15.333 0 29.333 3.83301 42 11.5s21.667 22.834 27 45.501c2.66699 9.33301 4.5 23 5.5 41s1.5 38.333 1.5 61c0 20 -0.666992 38.5 -2 55.5s-4 31.167 -8 42.5c-11.333 32 -32.333 48 -63 48zM258.998 574.997v108h107v-108h-107zM77.998 574.997v108h106v-108h-106z" />
    <glyph glyph-name="divide" unicode="&#xf7;" horiz-adv-x="465" 
d="M302 474c0 -18 -6.5 -33.667 -19.5 -47s-28.833 -20 -47.5 -20c-19.333 0 -35.666 6.66699 -48.999 20s-20 29 -20 47c0 18.667 6.66699 34.5 20 47.5s29.666 19.5 48.999 19.5c18.667 0 34.5 -6.5 47.5 -19.5s19.5 -28.833 19.5 -47.5zM18 251v87h430v-87h-430zM302 113
c0 -19.333 -6.5 -35.5 -19.5 -48.5s-28.833 -19.5 -47.5 -19.5c-19.333 0 -35.666 6.5 -48.999 19.5s-20 29.167 -20 48.5c0 18 6.66699 33.667 20 47s29.666 20 48.999 20c18.667 0 34.5 -6.66699 47.5 -20s19.5 -29 19.5 -47z" />
    <glyph glyph-name="oslash" unicode="&#xf8;" horiz-adv-x="449" 
d="M228 502c22 0 41.3311 -2.33301 57.998 -7s31.667 -11.334 45 -20.001l21 35l40 -22l-27 -45c4 -4.66699 7.5 -9.5 10.5 -14.5l9.5 -15.5c9.33301 -18.667 15.666 -43.167 18.999 -73.5s5 -61.5 5 -93.5c0 -26.667 -1.66699 -54.667 -5 -84s-8.66602 -53 -15.999 -71
c-7.33301 -18.667 -16.833 -34.167 -28.5 -46.5s-25 -22.333 -40 -30s-31.167 -13.167 -48.5 -16.5s-35 -5 -53 -5c-21.333 0 -40.666 2.33301 -57.999 7s-32.666 11.334 -45.999 20.001l-18 -31l-38 22l23 40l-5.5 7.5c-1.66699 2.33301 -3.16699 4.83301 -4.5 7.5
c-12 19.333 -20.5 44.333 -25.5 75s-7.5 65.334 -7.5 104.001c0 30 1.5 59.167 4.5 87.5s8.16699 51.166 15.5 68.499c13.333 31.333 34 56 62 74s64 27 108 27zM298.998 254c0 13.333 -0.333008 25.999 -1 37.999s-1.66699 23 -3 33l-124 -209c12 -14 29.333 -21 52 -21
c15.333 0 29.333 3.83301 42 11.5s21.667 22.834 27 45.501c2.66699 9.33301 4.5 23 5.5 41s1.5 38.333 1.5 61zM225.998 399.999c-14.667 0 -27.998 -3.66699 -39.998 -11s-20.667 -18.666 -26 -33.999c-4.66699 -12 -7.83398 -27.833 -9.50098 -47.5
s-2.5 -42.167 -2.5 -67.5c0 -13.333 0.166992 -25.833 0.5 -37.5s1.16602 -22.834 2.49902 -33.501l123 209c-12 14.667 -28 22 -48 22z" />
    <glyph glyph-name="ugrave" unicode="&#xf9;" horiz-adv-x="462" 
d="M301 0l0.00195312 45.999c-0.666992 0 -1.33398 0.166992 -2.00098 0.5s-1.33398 0.5 -2.00098 0.5c-12.667 -16.667 -28.5 -29.5 -47.5 -38.5s-38.5 -13.5 -58.5 -13.5c-45.333 0 -80.333 13.333 -105 40s-37 63.334 -37 110.001v349h110v-318
c0 -24.667 6.83301 -43.667 20.5 -57s30.167 -20 49.5 -20c26 0 44.5 9.5 55.5 28.5s16.5 44.5 16.5 76.5v290h110v-494h-110zM223.002 542.999l-120 174l99 38l84 -181z" />
    <glyph glyph-name="uacute" unicode="&#xfa;" horiz-adv-x="462" 
d="M301 0l0.00195312 45.999c-0.666992 0 -1.33398 0.166992 -2.00098 0.5s-1.33398 0.5 -2.00098 0.5c-12.667 -16.667 -28.5 -29.5 -47.5 -38.5s-38.5 -13.5 -58.5 -13.5c-45.333 0 -80.333 13.333 -105 40s-37 63.334 -37 110.001v349h110v-318
c0 -24.667 6.83301 -43.667 20.5 -57s30.167 -20 49.5 -20c26 0 44.5 9.5 55.5 28.5s16.5 44.5 16.5 76.5v290h110v-494h-110zM172.002 570.999l82 184l98 -37l-116 -175z" />
    <glyph glyph-name="ucircumflex" unicode="&#xfb;" horiz-adv-x="462" 
d="M301 0l0.00195312 45.999c-0.666992 0 -1.33398 0.166992 -2.00098 0.5s-1.33398 0.5 -2.00098 0.5c-12.667 -16.667 -28.5 -29.5 -47.5 -38.5s-38.5 -13.5 -58.5 -13.5c-45.333 0 -80.333 13.333 -105 40s-37 63.334 -37 110.001v349h110v-318
c0 -24.667 6.83301 -43.667 20.5 -57s30.167 -20 49.5 -20c26 0 44.5 9.5 55.5 28.5s16.5 44.5 16.5 76.5v290h110v-494h-110zM231.002 634.999c-3.33301 -2 -11.167 -8 -23.5 -18l-40.5 -32.5l-41 -32l-23 -17.5l-45 40l141 152h71l135 -150l-46 -42z" />
    <glyph glyph-name="udieresis" unicode="&#xfc;" horiz-adv-x="462" 
d="M301 0l0.00195312 45.999c-0.666992 0 -1.33398 0.166992 -2.00098 0.5s-1.33398 0.5 -2.00098 0.5c-12.667 -16.667 -28.5 -29.5 -47.5 -38.5s-38.5 -13.5 -58.5 -13.5c-45.333 0 -80.333 13.333 -105 40s-37 63.334 -37 110.001v349h110v-318
c0 -24.667 6.83301 -43.667 20.5 -57s30.167 -20 49.5 -20c26 0 44.5 9.5 55.5 28.5s16.5 44.5 16.5 76.5v290h110v-494h-110zM265.002 574.999v108h107v-108h-107zM84.002 574.999v108h106v-108h-106z" />
    <glyph glyph-name="yacute" unicode="&#xfd;" horiz-adv-x="413" 
d="M230 -93c-11.333 -37.333 -29.167 -64.667 -53.5 -82s-53.5 -26 -87.5 -26h-37v95h26c29.333 0 49.333 20.333 60 61l18 64l-155 476h118l48 -179l39 -152h4l38 152l48 179h116zM161.999 570.999l82 184l98 -37l-116 -175z" />
    <glyph glyph-name="thorn" unicode="&#xfe;" horiz-adv-x="450" 
d="M159 453c12.667 16.667 27.833 28.667 45.5 36s35.834 11 54.501 11c34.667 0 62 -7.5 82 -22.5s35.333 -34.667 46 -59s17.5 -51.666 20.5 -81.999s4.5 -60.5 4.5 -90.5s-1.83301 -60 -5.5 -90s-11 -57 -22 -81s-26.833 -43.333 -47.5 -58s-48 -22 -82 -22
c-16.667 0 -33.834 3.66699 -51.501 11s-32.5 18.666 -44.5 33.999c-0.666992 0 -1.16699 -0.166992 -1.5 -0.5s-0.833008 -0.5 -1.5 -0.5v-239h-110v906h110v-252c0.666992 0 1.16699 -0.166992 1.5 -0.5s0.833008 -0.5 1.5 -0.5zM226.999 100
c16 0 28.834 4.16699 38.501 12.5s17 19.5 22 33.5s8.33301 29.667 10 47s2.5 35 2.5 53c0 20.667 -0.833008 40.167 -2.5 58.5s-5 34.333 -10 48s-12.167 24.334 -21.5 32.001s-22 11.5 -38 11.5c-17.333 0 -30.833 -4.33301 -40.5 -13s-16.834 -20.334 -21.501 -35.001
s-7.5 -31.167 -8.5 -49.5s-1.5 -37.166 -1.5 -56.499c0 -16 0.666992 -32.333 2 -49s4.33301 -31.834 9 -45.501s11.667 -25 21 -34s22.333 -13.5 39 -13.5z" />
    <glyph glyph-name="ydieresis" unicode="&#xff;" horiz-adv-x="413" 
d="M230 -93c-11.333 -37.333 -29.167 -64.667 -53.5 -82s-53.5 -26 -87.5 -26h-37v95h26c29.333 0 49.333 20.333 60 61l18 64l-155 476h118l48 -179l39 -152h4l38 152l48 179h116zM242.999 574.999v108h107v-108h-107zM61.999 574.999v108h106v-108h-106z" />
    <glyph glyph-name="Amacron" unicode="&#x100;" horiz-adv-x="526" 
d="M359 150h-193c-1.33301 -6 -4 -16 -8 -30l-12.5 -45l-12 -45c-3.66699 -14 -6.5 -24 -8.5 -30h-119l201 696h110l202 -696h-121zM127 757v95h270v-95h-270zM227 392l-36 -140h142l-35 139l-6.5 30c-3 14 -6.33301 28.667 -10 44l-10.5 43.5
c-3.33301 13.667 -5.33301 23.5 -6 29.5h-5z" />
    <glyph glyph-name="amacron" unicode="&#x101;" horiz-adv-x="444" 
d="M290 0l0.00292969 38l-4 2c-12 -16 -28 -27.5 -48 -34.5s-40.333 -10.5 -61 -10.5c-48.667 0 -84.667 13.667 -108 41s-35 63.333 -35 108c0 21.333 3.33301 41.166 10 59.499s17 34.333 31 48s31.667 24.5 53 32.5s46.666 12 75.999 12h86v45
c0 16.667 -5.66699 30.834 -17 42.501s-30 17.5 -56 17.5c-18 0 -34.667 -3.16699 -50 -9.5s-27.333 -17.833 -36 -34.5c-2.66699 1.33301 -8 4.5 -16 9.5l-25.5 15.5c-9 5.33301 -17.333 10.5 -25 15.5s-12.834 8.5 -15.501 10.5c15.333 32 38 55.333 68 70s64 22 102 22
c26 0 50 -2.5 72 -7.5s41.167 -13.5 57.5 -25.5s29.166 -27.833 38.499 -47.5s14 -44.167 14 -73.5v-346h-111zM290.003 212l-78.999 -0.000976562c-22 0 -39.167 -5.16699 -51.5 -15.5s-18.5 -25.5 -18.5 -45.5c0 -15.333 5.5 -28.666 16.5 -39.999s29.167 -17 54.5 -17
c21.333 0 39.666 5.5 54.999 16.5s23 28.833 23 53.5v48zM94.0039 579.999v95h271v-95h-271z" />
    <glyph glyph-name="Abreve" unicode="&#x102;" horiz-adv-x="526" 
d="M359 150h-193c-1.33301 -6 -4 -16 -8 -30l-12.5 -45l-12 -45c-3.66699 -14 -6.5 -24 -8.5 -30h-119l201 696h110l202 -696h-121zM264 739c-28 0 -51.5 4.83301 -70.5 14.5s-34.333 21.834 -46 36.501s-20.167 30.5 -25.5 47.5s-8.33301 32.833 -9 47.5h86
c0.666992 -6.66699 2.5 -14 5.5 -22s7.33301 -15.333 13 -22s12.334 -12.167 20.001 -16.5s16.5 -6.5 26.5 -6.5c10.667 0 20 2.16699 28 6.5s14.667 9.83301 20 16.5s9.33301 14 12 22s4 15.333 4 22h85c-1.33301 -14.667 -4.83301 -30.5 -10.5 -47.5
s-14.167 -32.833 -25.5 -47.5s-26.333 -26.834 -45 -36.501s-41.334 -14.5 -68.001 -14.5zM227 392l-36 -140h142l-35 139l-6.5 30c-3 14 -6.33301 28.667 -10 44l-10.5 43.5c-3.33301 13.667 -5.33301 23.5 -6 29.5h-5z" />
    <glyph glyph-name="abreve" unicode="&#x103;" horiz-adv-x="444" 
d="M290 0l0.00292969 38l-4 2c-12 -16 -28 -27.5 -48 -34.5s-40.333 -10.5 -61 -10.5c-48.667 0 -84.667 13.667 -108 41s-35 63.333 -35 108c0 21.333 3.33301 41.166 10 59.499s17 34.333 31 48s31.667 24.5 53 32.5s46.666 12 75.999 12h86v45
c0 16.667 -5.66699 30.834 -17 42.501s-30 17.5 -56 17.5c-18 0 -34.667 -3.16699 -50 -9.5s-27.333 -17.833 -36 -34.5c-2.66699 1.33301 -8 4.5 -16 9.5l-25.5 15.5c-9 5.33301 -17.333 10.5 -25 15.5s-12.834 8.5 -15.501 10.5c15.333 32 38 55.333 68 70s64 22 102 22
c26 0 50 -2.5 72 -7.5s41.167 -13.5 57.5 -25.5s29.166 -27.833 38.499 -47.5s14 -44.167 14 -73.5v-346h-111zM290.003 212l-78.999 -0.000976562c-22 0 -39.167 -5.16699 -51.5 -15.5s-18.5 -25.5 -18.5 -45.5c0 -15.333 5.5 -28.666 16.5 -39.999s29.167 -17 54.5 -17
c21.333 0 39.666 5.5 54.999 16.5s23 28.833 23 53.5v48zM227.004 556.999c-28 0 -51.5 5 -70.5 15s-34.333 22.333 -46 37s-20.167 30.667 -25.5 48s-8.33301 33.333 -9 48h86c0.666992 -7.33301 2.5 -14.833 5.5 -22.5s7.33301 -14.834 13 -21.501
s12.334 -12.167 20.001 -16.5s16.5 -6.5 26.5 -6.5c10.667 0 20 2.16699 28 6.5s14.667 9.83301 20 16.5s9.33301 13.834 12 21.501s4 15.167 4 22.5h85c-1.33301 -14.667 -4.83301 -30.667 -10.5 -48s-14.167 -33.333 -25.5 -48s-26.333 -27 -45 -37
s-41.334 -15 -68.001 -15z" />
    <glyph glyph-name="Aogonek" unicode="&#x104;" horiz-adv-x="526" 
d="M359 150l-192.998 0.000976562c-1.33301 -6 -4 -16 -8 -30l-12.5 -45l-12 -45c-3.66699 -14 -6.5 -24 -8.5 -30h-119l201 696h110l202 -696h-49c-22.667 -34 -34 -60.333 -34 -79c0 -15.333 3.16699 -26.833 9.5 -34.5s17.166 -11.5 32.499 -11.5
c7.33301 0 15.666 1.16699 24.999 3.5s20.333 6.16602 33 11.499l22 -57c-14.667 -8 -30.5 -14.5 -47.5 -19.5s-33.833 -7.5 -50.5 -7.5c-29.333 0 -53.333 9 -72 27s-28 40.333 -28 67c0 13.333 3 28.333 9 45s15.667 35 29 55zM227.002 392.001l-36 -140h142l-35 139
l-6.5 30c-3 14 -6.33301 28.667 -10 44l-10.5 43.5c-3.33301 13.667 -5.33301 23.5 -6 29.5h-5z" />
    <glyph glyph-name="aogonek" unicode="&#x105;" horiz-adv-x="444" 
d="M250 -100c0 14 3.00488 29.333 9.00488 46s16.333 35.334 31 56.001v36l-4 2c-12 -16 -28 -27.5 -48 -34.5s-40.333 -10.5 -61 -10.5c-48.667 0 -84.667 13.667 -108 41s-35 63.333 -35 108c0 21.333 3.33301 41.166 10 59.499s17 34.333 31 48s31.667 24.5 53 32.5
s46.666 12 75.999 12h86v45c0 16.667 -5.66699 30.834 -17 42.501s-30 17.5 -56 17.5c-18 0 -34.667 -3.16699 -50 -9.5s-27.333 -17.833 -36 -34.5c-2.66699 1.33301 -8 4.5 -16 9.5l-25.5 15.5c-9 5.33301 -17.333 10.5 -25 15.5s-12.834 8.5 -15.501 10.5
c15.333 32 38 55.333 68 70s64 22 102 22c26 0 50 -2.5 72 -7.5s41.167 -13.5 57.5 -25.5s29.166 -27.833 38.499 -47.5s14 -44.167 14 -73.5v-346h-41c-22.667 -34 -34 -60.333 -34 -79c0 -15.333 3.16699 -26.833 9.5 -34.5s17.166 -11.5 32.499 -11.5
c7.33301 0 15.666 1.16699 24.999 3.5s20.333 6.16602 33 11.499l22 -57c-14.667 -8 -30.5 -14.5 -47.5 -19.5s-33.833 -7.5 -50.5 -7.5c-29.333 0 -53.333 9 -72 27s-28 40.333 -28 67zM290.005 212l-78.999 -0.000976562c-22 0 -39.167 -5.16699 -51.5 -15.5
s-18.5 -25.5 -18.5 -45.5c0 -15.333 5.5 -28.666 16.5 -39.999s29.167 -17 54.5 -17c21.333 0 39.666 5.5 54.999 16.5s23 28.833 23 53.5v48z" />
    <glyph glyph-name="Cacute" unicode="&#x106;" horiz-adv-x="492" 
d="M466 148c-11.333 -48.667 -35.3359 -86.501 -72.0029 -113.501s-81 -40.5 -133 -40.5c-36 0 -67.333 5.66699 -94 17s-49 27 -67 47s-31.333 43.5 -40 70.5s-13 56.167 -13 87.5v270c0 27.333 4.33301 54 13 80s21.834 49 39.501 69s39.834 36 66.501 48
s58.334 18 95.001 18c56 0 101.5 -14.667 136.5 -44s58.167 -66 69.5 -110l-109 -36c-2 10 -5.33301 19.667 -10 29s-11 17.833 -19 25.5s-17.667 13.834 -29 18.501s-24.333 7 -39 7c-17.333 0 -32.166 -3 -44.499 -9s-22.5 -13.833 -30.5 -23.5s-14 -20.5 -18 -32.5
s-6 -24 -6 -36v-277c0 -14.667 2 -28.667 6 -42s10.167 -25 18.5 -35s18.666 -17.833 30.999 -23.5s26.833 -8.5 43.5 -8.5c24.667 0 45.667 7 63 21s28.333 33.333 33 58zM174.997 779.999l159 124l69 -80l-185 -98z" />
    <glyph glyph-name="cacute" unicode="&#x107;" horiz-adv-x="404" 
d="M220 501c38.667 0 72.333 -9.00098 101 -27.001s49.667 -43.333 63 -76c-2.66699 -2 -8.5 -5.33301 -17.5 -10l-29 -14.5l-29 -14.5c-9 -4.66699 -14.833 -8 -17.5 -10c-14.667 32.667 -37 49 -67 49c-17.333 0 -31.5 -3.66699 -42.5 -11s-19.5 -17.5 -25.5 -30.5
s-10 -28.667 -12 -47s-3 -38.166 -3 -59.499c0 -22 1.16699 -42.5 3.5 -61.5s6.5 -35.167 12.5 -48.5s14.333 -23.833 25 -31.5s24.334 -11.5 41.001 -11.5c16 0 29.5 4.33301 40.5 13s20.167 20 27.5 34c2.66699 -2 8.5 -5.16699 17.5 -9.5l29 -14.5l29 -14.5
c9 -4.33301 15.167 -7.5 18.5 -9.5c-13.333 -32 -34.333 -56.833 -63 -74.5s-62.334 -26.5 -101.001 -26.5c-37.333 0 -68.333 6.33301 -93 19s-44.167 30.167 -58.5 52.5s-24.5 49.166 -30.5 80.499s-9 66 -9 104c0 36.667 3.5 70.334 10.5 101.001s18 57 33 79
s34.5 39.167 58.5 51.5s53.333 18.5 88 18.5zM159.999 570.999l82 184l98 -37l-116 -175z" />
    <glyph glyph-name="Ccircumflex" unicode="&#x108;" horiz-adv-x="492" 
d="M466 148c-11.333 -48.667 -35.3359 -86.501 -72.0029 -113.501s-81 -40.5 -133 -40.5c-36 0 -67.333 5.66699 -94 17s-49 27 -67 47s-31.333 43.5 -40 70.5s-13 56.167 -13 87.5v270c0 27.333 4.33301 54 13 80s21.834 49 39.501 69s39.834 36 66.501 48
s58.334 18 95.001 18c56 0 101.5 -14.667 136.5 -44s58.167 -66 69.5 -110l-109 -36c-2 10 -5.33301 19.667 -10 29s-11 17.833 -19 25.5s-17.667 13.834 -29 18.501s-24.333 7 -39 7c-17.333 0 -32.166 -3 -44.499 -9s-22.5 -13.833 -30.5 -23.5s-14 -20.5 -18 -32.5
s-6 -24 -6 -36v-277c0 -14.667 2 -28.667 6 -42s10.167 -25 18.5 -35s18.666 -17.833 30.999 -23.5s26.833 -8.5 43.5 -8.5c24.667 0 45.667 7 63 21s28.333 33.333 33 58zM257.997 807.999l-132 -80l-41 44l141 127h69l137 -126l-42 -45z" />
    <glyph glyph-name="ccircumflex" unicode="&#x109;" horiz-adv-x="404" 
d="M220 501c38.667 0 72.333 -9.00098 101 -27.001s49.667 -43.333 63 -76c-2.66699 -2 -8.5 -5.33301 -17.5 -10l-29 -14.5l-29 -14.5c-9 -4.66699 -14.833 -8 -17.5 -10c-14.667 32.667 -37 49 -67 49c-17.333 0 -31.5 -3.66699 -42.5 -11s-19.5 -17.5 -25.5 -30.5
s-10 -28.667 -12 -47s-3 -38.166 -3 -59.499c0 -22 1.16699 -42.5 3.5 -61.5s6.5 -35.167 12.5 -48.5s14.333 -23.833 25 -31.5s24.334 -11.5 41.001 -11.5c16 0 29.5 4.33301 40.5 13s20.167 20 27.5 34c2.66699 -2 8.5 -5.16699 17.5 -9.5l29 -14.5l29 -14.5
c9 -4.33301 15.167 -7.5 18.5 -9.5c-13.333 -32 -34.333 -56.833 -63 -74.5s-62.334 -26.5 -101.001 -26.5c-37.333 0 -68.333 6.33301 -93 19s-44.167 30.167 -58.5 52.5s-24.5 49.166 -30.5 80.499s-9 66 -9 104c0 36.667 3.5 70.334 10.5 101.001s18 57 33 79
s34.5 39.167 58.5 51.5s53.333 18.5 88 18.5zM220.999 634.999c-3.33301 -2 -11.167 -8 -23.5 -18l-40.5 -32.5l-41 -32l-23 -17.5l-45 40l141 152h71l135 -150l-46 -42z" />
    <glyph glyph-name="Cdotaccent" unicode="&#x10a;" horiz-adv-x="492" 
d="M466 148c-11.333 -48.667 -35.3359 -86.501 -72.0029 -113.501s-81 -40.5 -133 -40.5c-36 0 -67.333 5.66699 -94 17s-49 27 -67 47s-31.333 43.5 -40 70.5s-13 56.167 -13 87.5v270c0 27.333 4.33301 54 13 80s21.834 49 39.501 69s39.834 36 66.501 48
s58.334 18 95.001 18c56 0 101.5 -14.667 136.5 -44s58.167 -66 69.5 -110l-109 -36c-2 10 -5.33301 19.667 -10 29s-11 17.833 -19 25.5s-17.667 13.834 -29 18.501s-24.333 7 -39 7c-17.333 0 -32.166 -3 -44.499 -9s-22.5 -13.833 -30.5 -23.5s-14 -20.5 -18 -32.5
s-6 -24 -6 -36v-277c0 -14.667 2 -28.667 6 -42s10.167 -25 18.5 -35s18.666 -17.833 30.999 -23.5s26.833 -8.5 43.5 -8.5c24.667 0 45.667 7 63 21s28.333 33.333 33 58zM204.997 751.999v108h106v-108h-106z" />
    <glyph glyph-name="cdotaccent" unicode="&#x10b;" horiz-adv-x="404" 
d="M220 501c38.667 0 72.333 -9.00098 101 -27.001s49.667 -43.333 63 -76c-2.66699 -2 -8.5 -5.33301 -17.5 -10l-29 -14.5l-29 -14.5c-9 -4.66699 -14.833 -8 -17.5 -10c-14.667 32.667 -37 49 -67 49c-17.333 0 -31.5 -3.66699 -42.5 -11s-19.5 -17.5 -25.5 -30.5
s-10 -28.667 -12 -47s-3 -38.166 -3 -59.499c0 -22 1.16699 -42.5 3.5 -61.5s6.5 -35.167 12.5 -48.5s14.333 -23.833 25 -31.5s24.334 -11.5 41.001 -11.5c16 0 29.5 4.33301 40.5 13s20.167 20 27.5 34c2.66699 -2 8.5 -5.16699 17.5 -9.5l29 -14.5l29 -14.5
c9 -4.33301 15.167 -7.5 18.5 -9.5c-13.333 -32 -34.333 -56.833 -63 -74.5s-62.334 -26.5 -101.001 -26.5c-37.333 0 -68.333 6.33301 -93 19s-44.167 30.167 -58.5 52.5s-24.5 49.166 -30.5 80.499s-9 66 -9 104c0 36.667 3.5 70.334 10.5 101.001s18 57 33 79
s34.5 39.167 58.5 51.5s53.333 18.5 88 18.5zM160.999 575.999v108h106v-108h-106z" />
    <glyph glyph-name="Ccaron" unicode="&#x10c;" horiz-adv-x="492" 
d="M466 148c-11.333 -48.667 -35.3359 -86.501 -72.0029 -113.501s-81 -40.5 -133 -40.5c-36 0 -67.333 5.66699 -94 17s-49 27 -67 47s-31.333 43.5 -40 70.5s-13 56.167 -13 87.5v270c0 27.333 4.33301 54 13 80s21.834 49 39.501 69s39.834 36 66.501 48
s58.334 18 95.001 18c56 0 101.5 -14.667 136.5 -44s58.167 -66 69.5 -110l-109 -36c-2 10 -5.33301 19.667 -10 29s-11 17.833 -19 25.5s-17.667 13.834 -29 18.501s-24.333 7 -39 7c-17.333 0 -32.166 -3 -44.499 -9s-22.5 -13.833 -30.5 -23.5s-14 -20.5 -18 -32.5
s-6 -24 -6 -36v-277c0 -14.667 2 -28.667 6 -42s10.167 -25 18.5 -35s18.666 -17.833 30.999 -23.5s26.833 -8.5 43.5 -8.5c24.667 0 45.667 7 63 21s28.333 33.333 33 58zM392.997 900.999l42 -44l-137 -126h-70l-140 127l41 43l132 -80z" />
    <glyph glyph-name="ccaron" unicode="&#x10d;" horiz-adv-x="404" 
d="M220 501c38.667 0 72.333 -9.00098 101 -27.001s49.667 -43.333 63 -76c-2.66699 -2 -8.5 -5.33301 -17.5 -10l-29 -14.5l-29 -14.5c-9 -4.66699 -14.833 -8 -17.5 -10c-14.667 32.667 -37 49 -67 49c-17.333 0 -31.5 -3.66699 -42.5 -11s-19.5 -17.5 -25.5 -30.5
s-10 -28.667 -12 -47s-3 -38.166 -3 -59.499c0 -22 1.16699 -42.5 3.5 -61.5s6.5 -35.167 12.5 -48.5s14.333 -23.833 25 -31.5s24.334 -11.5 41.001 -11.5c16 0 29.5 4.33301 40.5 13s20.167 20 27.5 34c2.66699 -2 8.5 -5.16699 17.5 -9.5l29 -14.5l29 -14.5
c9 -4.33301 15.167 -7.5 18.5 -9.5c-13.333 -32 -34.333 -56.833 -63 -74.5s-62.334 -26.5 -101.001 -26.5c-37.333 0 -68.333 6.33301 -93 19s-44.167 30.167 -58.5 52.5s-24.5 49.166 -30.5 80.499s-9 66 -9 104c0 36.667 3.5 70.334 10.5 101.001s18 57 33 79
s34.5 39.167 58.5 51.5s53.333 18.5 88 18.5zM344.999 727.999l46 -41l-136 -151h-71l-141 152l46 40l23 -17.5l40.5 -31.5l40.5 -32c12.667 -10 20.667 -16 24 -18z" />
    <glyph glyph-name="Dcaron" unicode="&#x10e;" horiz-adv-x="537" 
d="M372 437c0 47.333 -8.33203 84.667 -24.999 112s-46.334 41 -89.001 41h-81v-484h82c42.667 0 72.167 11.167 88.5 33.5s24.5 53.5 24.5 93.5v204zM275.001 696.001c46.667 0 86.6689 -8.66797 120.002 -26.001s57.666 -46 72.999 -86
c9.33301 -24.667 14.833 -55.167 16.5 -91.5s2.5 -77.5 2.5 -123.5c0 -56.667 -0.333008 -105.167 -1 -145.5s-6.33398 -74.833 -17.001 -103.5c-8.66699 -23.333 -20 -42.666 -34 -57.999s-30 -27.5 -48 -36.5s-37.667 -15.5 -59 -19.5s-43.333 -6 -66 -6h-200v696h213z
M373.003 901l42 -44l-137 -126h-70l-140 127l41 43l132 -80z" />
    <glyph glyph-name="dcaron" unicode="&#x10f;" horiz-adv-x="566" 
d="M448 507l32 99h-29v117h116v-114l-62 -102h-57zM291 42c-13.333 -16.667 -28.6689 -28.667 -46.002 -36s-35.666 -11 -54.999 -11c-34.667 0 -62.167 7.16699 -82.5 21.5s-35.666 33.333 -45.999 57s-16.833 50.667 -19.5 81s-4 61.5 -4 93.5c0 30.667 1.83301 61 5.5 91
s11 57 22 81s26.833 43.333 47.5 58s48 22 82 22c16.667 0 33.667 -3.66699 51 -11s32 -18.333 44 -33h3v270h111v-726h-111v40zM222.997 395c-16 0 -28.833 -4 -38.5 -12s-17 -18.833 -22 -32.5s-8.16699 -29.167 -9.5 -46.5s-2 -35 -2 -53
c0 -21.333 0.833008 -41.166 2.5 -59.499s5 -34.5 10 -48.5s12.167 -25 21.5 -33s22 -12 38 -12c17.333 0 30.833 4.66699 40.5 14s16.667 21.5 21 36.5s7 31.5 8 49.5s1.5 36 1.5 54c0 16.667 -0.666992 33.667 -2 51s-4.5 32.666 -9.5 45.999s-12.167 24.333 -21.5 33
s-22 13 -38 13z" />
    <glyph glyph-name="Dcroat" unicode="&#x110;" horiz-adv-x="537" 
d="M14 395l48.002 -0.000976562v301h213c46.667 0 86.667 -8.66699 120 -26s57.666 -46 72.999 -86c9.33301 -24.667 14.833 -55.167 16.5 -91.5s2.5 -77.5 2.5 -123.5c0 -56.667 -0.333008 -105.167 -1 -145.5s-6.33398 -74.833 -17.001 -103.5
c-8.66699 -23.333 -20 -42.666 -34 -57.999s-30 -27.5 -48 -36.5s-37.667 -15.5 -59 -19.5s-43.333 -6 -66 -6h-200v319h-48v76zM372.002 436.999c0 47.333 -8.33203 84.667 -24.999 112s-46.334 41 -89.001 41h-81v-195h85v-76h-85v-213h82
c42.667 0 72.167 11.167 88.5 33.5s24.5 53.5 24.5 93.5v204z" />
    <glyph glyph-name="dcroat" unicode="&#x111;" horiz-adv-x="456" 
d="M177 631h115.997v95h111v-95h45v-69h-45v-562h-111v40l-2 2c-13.333 -16.667 -28.666 -28.667 -45.999 -36s-35.666 -11 -54.999 -11c-34.667 0 -62.167 7.16699 -82.5 21.5s-35.666 33.333 -45.999 57s-16.833 50.667 -19.5 81s-4 61.5 -4 93.5
c0 30.667 1.83301 61 5.5 91s11 57 22 81s26.833 43.333 47.5 58s48 22 82 22c16.667 0 33.667 -3.66699 51 -11s32 -18.333 44 -33h3v106h-116v69zM222.997 395c-16 0 -28.833 -4 -38.5 -12s-17 -18.833 -22 -32.5s-8.16699 -29.167 -9.5 -46.5s-2 -35 -2 -53
c0 -21.333 0.833008 -41.166 2.5 -59.499s5 -34.5 10 -48.5s12.167 -25 21.5 -33s22 -12 38 -12c17.333 0 30.833 4.66699 40.5 14s16.667 21.5 21 36.5s7 31.5 8 49.5s1.5 36 1.5 54c0 16.667 -0.666992 33.667 -2 51s-4.5 32.666 -9.5 45.999s-12.167 24.333 -21.5 33
s-22 13 -38 13z" />
    <glyph glyph-name="Emacron" unicode="&#x112;" horiz-adv-x="473" 
d="M63 0v696h387v-106h-273v-186h235v-104h-235v-191h273v-109h-387zM118 757v95h270v-95h-270z" />
    <glyph glyph-name="emacron" unicode="&#x113;" horiz-adv-x="444" 
d="M305 145l45.5 -23.999l45.5 -25c-15.333 -33.333 -38 -58.5 -68 -75.5s-63.333 -25.5 -100 -25.5c-70 0 -119.5 20.667 -148.5 62s-43.5 104.666 -43.5 189.999c0 35.333 2.83301 68.333 8.5 99s15.667 57.5 30 80.5s33.5 41.167 57.5 54.5s54.333 20 91 20
c34 0 62.667 -5.66699 86 -17s42.333 -27 57 -47s25.167 -43.667 31.5 -71s9.5 -57.333 9.5 -90v-58h-259c0 -16 1 -31.5 3 -46.5s6 -28.167 12 -39.5s14 -20.333 24 -27s23 -10 39 -10s30.667 4.5 44 13.5s25 21.167 35 36.5zM294 295.001c0 31.333 -5.5 56.5 -16.5 75.5
s-29.833 28.5 -56.5 28.5s-45 -10 -55 -30s-15.667 -44.667 -17 -74h145zM94 580.001v95h271v-95h-271z" />
    <glyph glyph-name="Ebreve" unicode="&#x114;" horiz-adv-x="473" 
d="M63 0v696h387v-106h-273v-186h235v-104h-235v-191h273v-109h-387zM257 738c-28 0 -51.5 4.83301 -70.5 14.5s-34.333 21.834 -46 36.501s-20.167 30.5 -25.5 47.5s-8.33301 32.833 -9 47.5h86c0.666992 -6.66699 2.5 -14 5.5 -22s7.33301 -15.333 13 -22
s12.334 -12.167 20.001 -16.5s16.5 -6.5 26.5 -6.5c10.667 0 20 2.16699 28 6.5s14.667 9.83301 20 16.5s9.33301 14 12 22s4 15.333 4 22h85c-1.33301 -14.667 -4.83301 -30.5 -10.5 -47.5s-14.167 -32.833 -25.5 -47.5s-26.333 -26.834 -45 -36.501
s-41.334 -14.5 -68.001 -14.5z" />
    <glyph glyph-name="ebreve" unicode="&#x115;" horiz-adv-x="444" 
d="M305 145l45.5 -23.999l45.5 -25c-15.333 -33.333 -38 -58.5 -68 -75.5s-63.333 -25.5 -100 -25.5c-70 0 -119.5 20.667 -148.5 62s-43.5 104.666 -43.5 189.999c0 35.333 2.83301 68.333 8.5 99s15.667 57.5 30 80.5s33.5 41.167 57.5 54.5s54.333 20 91 20
c34 0 62.667 -5.66699 86 -17s42.333 -27 57 -47s25.167 -43.667 31.5 -71s9.5 -57.333 9.5 -90v-58h-259c0 -16 1 -31.5 3 -46.5s6 -28.167 12 -39.5s14 -20.333 24 -27s23 -10 39 -10s30.667 4.5 44 13.5s25 21.167 35 36.5zM294 295.001c0 31.333 -5.5 56.5 -16.5 75.5
s-29.833 28.5 -56.5 28.5s-45 -10 -55 -30s-15.667 -44.667 -17 -74h145zM227 557.001c-28 0 -51.5 5 -70.5 15s-34.333 22.333 -46 37s-20.167 30.667 -25.5 48s-8.33301 33.333 -9 48h86c0.666992 -7.33301 2.5 -14.833 5.5 -22.5s7.33301 -14.834 13 -21.501
s12.334 -12.167 20.001 -16.5s16.5 -6.5 26.5 -6.5c10.667 0 20 2.16699 28 6.5s14.667 9.83301 20 16.5s9.33301 13.834 12 21.501s4 15.167 4 22.5h85c-1.33301 -14.667 -4.83301 -30.667 -10.5 -48s-14.167 -33.333 -25.5 -48s-26.333 -27 -45 -37
s-41.334 -15 -68.001 -15z" />
    <glyph glyph-name="Edotaccent" unicode="&#x116;" horiz-adv-x="473" 
d="M63 0v696h387v-106h-273v-186h235v-104h-235v-191h273v-109h-387zM198 750v108h106v-108h-106z" />
    <glyph glyph-name="edotaccent" unicode="&#x117;" horiz-adv-x="444" 
d="M305 145l45.5 -23.999l45.5 -25c-15.333 -33.333 -38 -58.5 -68 -75.5s-63.333 -25.5 -100 -25.5c-70 0 -119.5 20.667 -148.5 62s-43.5 104.666 -43.5 189.999c0 35.333 2.83301 68.333 8.5 99s15.667 57.5 30 80.5s33.5 41.167 57.5 54.5s54.333 20 91 20
c34 0 62.667 -5.66699 86 -17s42.333 -27 57 -47s25.167 -43.667 31.5 -71s9.5 -57.333 9.5 -90v-58h-259c0 -16 1 -31.5 3 -46.5s6 -28.167 12 -39.5s14 -20.333 24 -27s23 -10 39 -10s30.667 4.5 44 13.5s25 21.167 35 36.5zM294 295.001c0 31.333 -5.5 56.5 -16.5 75.5
s-29.833 28.5 -56.5 28.5s-45 -10 -55 -30s-15.667 -44.667 -17 -74h145zM172 575.001v108h106v-108h-106z" />
    <glyph glyph-name="Eogonek" unicode="&#x118;" horiz-adv-x="473" 
d="M338 -100c0 13.333 3.00195 28.335 9.00195 45.002s15.667 35 29 55h-313v696h387v-106h-273v-186h235v-104h-235v-191h273v-104c0 -0.666992 0.333008 -1 1 -1c-0.666992 -0.666992 -1 -1.33398 -1 -2.00098v-2h-2c-22.667 -34 -34 -60.333 -34 -79
c0 -15.333 3.16699 -26.833 9.5 -34.5s17.166 -11.5 32.499 -11.5c7.33301 0 15.666 1.16699 24.999 3.5s20.333 6.16602 33 11.499l22 -57c-14.667 -8 -30.5 -14.5 -47.5 -19.5s-33.833 -7.5 -50.5 -7.5c-29.333 0 -53.333 9 -72 27s-28 40.333 -28 67z" />
    <glyph glyph-name="eogonek" unicode="&#x119;" horiz-adv-x="444" 
d="M245 -56c0 8 0.833008 16.334 2.5 25.001s4.83398 18 9.50098 28c-5.33301 -0.666992 -10.166 -1.16699 -14.499 -1.5s-9.16602 -0.5 -14.499 -0.5c-70 0 -119.5 20.667 -148.5 62s-43.5 104.666 -43.5 189.999c0 35.333 2.83301 68.333 8.5 99s15.667 57.5 30 80.5
s33.5 41.167 57.5 54.5s54.333 20 91 20c34 0 62.667 -5.66699 86 -17s42.333 -27 57 -47s25.167 -43.667 31.5 -71s9.5 -57.333 9.5 -90v-58h-259c0 -16 1 -31.5 3 -46.5s6 -28.167 12 -39.5s14 -20.333 24 -27s23 -10 39 -10s30.667 4.5 44 13.5s25 21.167 35 36.5
l45.5 -24l45.5 -25c-10.667 -24 -26.334 -44.333 -47.001 -61c-9.33301 -14.667 -16.333 -27.667 -21 -39s-7 -21.666 -7 -30.999c0 -15.333 3.16699 -26.833 9.5 -34.5s17.166 -11.5 32.499 -11.5c7.33301 0 15.666 1.16699 24.999 3.5s20.333 6.16602 33 11.499l22 -57
c-14.667 -8 -30.5 -14.5 -47.5 -19.5s-33.833 -7.5 -50.5 -7.5c-29.333 0 -53.333 9 -72 27s-28 40.333 -28 67zM294 295.001c0 31.333 -5.5 56.5 -16.5 75.5s-29.833 28.5 -56.5 28.5s-45 -10 -55 -30s-15.667 -44.667 -17 -74h145z" />
    <glyph glyph-name="Ecaron" unicode="&#x11a;" horiz-adv-x="473" 
d="M63 0v696h387v-106h-273v-186h235v-104h-235v-191h273v-109h-387zM384 901l42 -44l-137 -126h-70l-140 127l41 43l132 -80z" />
    <glyph glyph-name="ecaron" unicode="&#x11b;" horiz-adv-x="444" 
d="M305 145l45.5 -23.999l45.5 -25c-15.333 -33.333 -38 -58.5 -68 -75.5s-63.333 -25.5 -100 -25.5c-70 0 -119.5 20.667 -148.5 62s-43.5 104.666 -43.5 189.999c0 35.333 2.83301 68.333 8.5 99s15.667 57.5 30 80.5s33.5 41.167 57.5 54.5s54.333 20 91 20
c34 0 62.667 -5.66699 86 -17s42.333 -27 57 -47s25.167 -43.667 31.5 -71s9.5 -57.333 9.5 -90v-58h-259c0 -16 1 -31.5 3 -46.5s6 -28.167 12 -39.5s14 -20.333 24 -27s23 -10 39 -10s30.667 4.5 44 13.5s25 21.167 35 36.5zM294 295.001c0 31.333 -5.5 56.5 -16.5 75.5
s-29.833 28.5 -56.5 28.5s-45 -10 -55 -30s-15.667 -44.667 -17 -74h145zM354 727.001l46 -41l-136 -151h-71l-141 152l46 40l23 -17.5l40.5 -31.5l40.5 -32c12.667 -10 20.667 -16 24 -18z" />
    <glyph glyph-name="Gcircumflex" unicode="&#x11c;" horiz-adv-x="523" 
d="M263 701c28 0 53.5 -3.83398 76.5 -11.501s43.167 -18.5 60.5 -32.5s31.833 -30.5 43.5 -49.5s20.167 -39.5 25.5 -61.5l-109 -34c-2 10 -5.33301 19.667 -10 29s-11 17.666 -19 24.999s-17.667 13.333 -29 18s-24.333 7 -39 7c-17.333 0 -32.166 -3 -44.499 -9
s-22.5 -13.833 -30.5 -23.5s-14 -20.5 -18 -32.5s-6 -24 -6 -36v-278c0 -14.667 2 -28.667 6 -42s10.167 -25 18.5 -35s18.666 -18 30.999 -24s26.833 -9 43.5 -9c33.333 0 58.5 9.5 75.5 28.5s25.5 42.167 25.5 69.5v82h-104v99h218v-165c0 -33.333 -5 -63.666 -15 -90.999
s-24.167 -50.666 -42.5 -69.999s-40.833 -34.333 -67.5 -45s-56.667 -16 -90 -16c-36 0 -67.333 5.66699 -94 17s-48.834 27 -66.501 47s-30.834 43.5 -39.501 70.5s-13 56.167 -13 87.5v270c0 27.333 4.16699 54 12.5 80s21.333 49 39 69s39.834 36 66.501 48
s58.334 18 95.001 18zM258 807.999l-132 -80l-41 44l141 127h69l137 -126l-42 -45z" />
    <glyph glyph-name="gcircumflex" unicode="&#x11d;" horiz-adv-x="454" 
d="M402 -6c0 -60 -15.666 -108.328 -46.999 -144.995s-79 -55 -143 -55c-34 0 -65 7 -93 21s-51 34.333 -69 61l16 12.5l25.5 20.5l25.5 20.5l16 12.5c9.33301 -14 20.833 -25.333 34.5 -34s29.167 -13 46.5 -13c24.667 0 43.667 7.5 57 22.5s20 35.167 20 60.5v71h-3
c-12.667 -16.667 -28.5 -29.167 -47.5 -37.5s-36.833 -12.5 -53.5 -12.5c-35.333 0 -63 7.33301 -83 22s-35.167 33.667 -45.5 57s-16.833 49.666 -19.5 78.999s-4 58.666 -4 87.999s1.33301 59.166 4 89.499s9.16699 57.666 19.5 81.999s25.666 44.333 45.999 60
s48.166 23.5 83.499 23.5c18.667 0 36.834 -3.83301 54.501 -11.5s33.167 -19.834 46.5 -36.501l2 2v41h111v-501zM219.001 105.005c16 0 28.6699 4.00391 38.0029 12.0039s16.666 18.667 21.999 32s8.83301 28.166 10.5 44.499s2.5 33.166 2.5 50.499
c0 19.333 -0.5 38.166 -1.5 56.499s-3.83301 34.5 -8.5 48.5s-11.834 25.333 -21.501 34s-23.167 13 -40.5 13c-16 0 -28.833 -4 -38.5 -12s-17 -18.667 -22 -32s-8.16699 -29.333 -9.5 -48s-2 -38.334 -2 -59.001c0 -20 0.833008 -38.5 2.5 -55.5s5 -31.833 10 -44.5
s12.167 -22.5 21.5 -29.5s21.666 -10.5 36.999 -10.5zM231.004 635.009c-3.33301 -2 -11.167 -8 -23.5 -18l-40.5 -32.5l-41 -32l-23 -17.5l-45 40l141 152h71l135 -150l-46 -42z" />
    <glyph glyph-name="Gbreve" unicode="&#x11e;" horiz-adv-x="523" 
d="M263 701c28 0 53.5 -3.83398 76.5 -11.501s43.167 -18.5 60.5 -32.5s31.833 -30.5 43.5 -49.5s20.167 -39.5 25.5 -61.5l-109 -34c-2 10 -5.33301 19.667 -10 29s-11 17.666 -19 24.999s-17.667 13.333 -29 18s-24.333 7 -39 7c-17.333 0 -32.166 -3 -44.499 -9
s-22.5 -13.833 -30.5 -23.5s-14 -20.5 -18 -32.5s-6 -24 -6 -36v-278c0 -14.667 2 -28.667 6 -42s10.167 -25 18.5 -35s18.666 -18 30.999 -24s26.833 -9 43.5 -9c33.333 0 58.5 9.5 75.5 28.5s25.5 42.167 25.5 69.5v82h-104v99h218v-165c0 -33.333 -5 -63.666 -15 -90.999
s-24.167 -50.666 -42.5 -69.999s-40.833 -34.333 -67.5 -45s-56.667 -16 -90 -16c-36 0 -67.333 5.66699 -94 17s-48.834 27 -66.501 47s-30.834 43.5 -39.501 70.5s-13 56.167 -13 87.5v270c0 27.333 4.16699 54 12.5 80s21.333 49 39 69s39.834 36 66.501 48
s58.334 18 95.001 18zM261 738.999c-28 0 -51.5 4.83301 -70.5 14.5s-34.333 21.834 -46 36.501s-20.167 30.5 -25.5 47.5s-8.33301 32.833 -9 47.5h86c0.666992 -6.66699 2.5 -14 5.5 -22s7.33301 -15.333 13 -22s12.334 -12.167 20.001 -16.5s16.5 -6.5 26.5 -6.5
c10.667 0 20 2.16699 28 6.5s14.667 9.83301 20 16.5s9.33301 14 12 22s4 15.333 4 22h85c-1.33301 -14.667 -4.83301 -30.5 -10.5 -47.5s-14.167 -32.833 -25.5 -47.5s-26.333 -26.834 -45 -36.501s-41.334 -14.5 -68.001 -14.5z" />
    <glyph glyph-name="gbreve" unicode="&#x11f;" horiz-adv-x="454" 
d="M402 -6c0 -60 -15.666 -108.328 -46.999 -144.995s-79 -55 -143 -55c-34 0 -65 7 -93 21s-51 34.333 -69 61l16 12.5l25.5 20.5l25.5 20.5l16 12.5c9.33301 -14 20.833 -25.333 34.5 -34s29.167 -13 46.5 -13c24.667 0 43.667 7.5 57 22.5s20 35.167 20 60.5v71h-3
c-12.667 -16.667 -28.5 -29.167 -47.5 -37.5s-36.833 -12.5 -53.5 -12.5c-35.333 0 -63 7.33301 -83 22s-35.167 33.667 -45.5 57s-16.833 49.666 -19.5 78.999s-4 58.666 -4 87.999s1.33301 59.166 4 89.499s9.16699 57.666 19.5 81.999s25.666 44.333 45.999 60
s48.166 23.5 83.499 23.5c18.667 0 36.834 -3.83301 54.501 -11.5s33.167 -19.834 46.5 -36.501l2 2v41h111v-501zM219.001 105.005c16 0 28.6699 4.00391 38.0029 12.0039s16.666 18.667 21.999 32s8.83301 28.166 10.5 44.499s2.5 33.166 2.5 50.499
c0 19.333 -0.5 38.166 -1.5 56.499s-3.83301 34.5 -8.5 48.5s-11.834 25.333 -21.501 34s-23.167 13 -40.5 13c-16 0 -28.833 -4 -38.5 -12s-17 -18.667 -22 -32s-8.16699 -29.333 -9.5 -48s-2 -38.334 -2 -59.001c0 -20 0.833008 -38.5 2.5 -55.5s5 -31.833 10 -44.5
s12.167 -22.5 21.5 -29.5s21.666 -10.5 36.999 -10.5zM234.004 557.009c-28 0 -51.5 5 -70.5 15s-34.333 22.333 -46 37s-20.167 30.667 -25.5 48s-8.33301 33.333 -9 48h86c0.666992 -7.33301 2.5 -14.833 5.5 -22.5s7.33301 -14.834 13 -21.501
s12.334 -12.167 20.001 -16.5s16.5 -6.5 26.5 -6.5c10.667 0 20 2.16699 28 6.5s14.667 9.83301 20 16.5s9.33301 13.834 12 21.501s4 15.167 4 22.5h85c-1.33301 -14.667 -4.83301 -30.667 -10.5 -48s-14.167 -33.333 -25.5 -48s-26.333 -27 -45 -37
s-41.334 -15 -68.001 -15z" />
    <glyph glyph-name="Gdotaccent" unicode="&#x120;" horiz-adv-x="523" 
d="M263 701c28 0 53.5 -3.83398 76.5 -11.501s43.167 -18.5 60.5 -32.5s31.833 -30.5 43.5 -49.5s20.167 -39.5 25.5 -61.5l-109 -34c-2 10 -5.33301 19.667 -10 29s-11 17.666 -19 24.999s-17.667 13.333 -29 18s-24.333 7 -39 7c-17.333 0 -32.166 -3 -44.499 -9
s-22.5 -13.833 -30.5 -23.5s-14 -20.5 -18 -32.5s-6 -24 -6 -36v-278c0 -14.667 2 -28.667 6 -42s10.167 -25 18.5 -35s18.666 -18 30.999 -24s26.833 -9 43.5 -9c33.333 0 58.5 9.5 75.5 28.5s25.5 42.167 25.5 69.5v82h-104v99h218v-165c0 -33.333 -5 -63.666 -15 -90.999
s-24.167 -50.666 -42.5 -69.999s-40.833 -34.333 -67.5 -45s-56.667 -16 -90 -16c-36 0 -67.333 5.66699 -94 17s-48.834 27 -66.501 47s-30.834 43.5 -39.501 70.5s-13 56.167 -13 87.5v270c0 27.333 4.16699 54 12.5 80s21.333 49 39 69s39.834 36 66.501 48
s58.334 18 95.001 18zM209 749.999v108h106v-108h-106z" />
    <glyph glyph-name="gdotaccent" unicode="&#x121;" horiz-adv-x="454" 
d="M402 -6c0 -60 -15.666 -108.328 -46.999 -144.995s-79 -55 -143 -55c-34 0 -65 7 -93 21s-51 34.333 -69 61l16 12.5l25.5 20.5l25.5 20.5l16 12.5c9.33301 -14 20.833 -25.333 34.5 -34s29.167 -13 46.5 -13c24.667 0 43.667 7.5 57 22.5s20 35.167 20 60.5v71h-3
c-12.667 -16.667 -28.5 -29.167 -47.5 -37.5s-36.833 -12.5 -53.5 -12.5c-35.333 0 -63 7.33301 -83 22s-35.167 33.667 -45.5 57s-16.833 49.666 -19.5 78.999s-4 58.666 -4 87.999s1.33301 59.166 4 89.499s9.16699 57.666 19.5 81.999s25.666 44.333 45.999 60
s48.166 23.5 83.499 23.5c18.667 0 36.834 -3.83301 54.501 -11.5s33.167 -19.834 46.5 -36.501l2 2v41h111v-501zM219.001 105.005c16 0 28.6699 4.00391 38.0029 12.0039s16.666 18.667 21.999 32s8.83301 28.166 10.5 44.499s2.5 33.166 2.5 50.499
c0 19.333 -0.5 38.166 -1.5 56.499s-3.83301 34.5 -8.5 48.5s-11.834 25.333 -21.501 34s-23.167 13 -40.5 13c-16 0 -28.833 -4 -38.5 -12s-17 -18.667 -22 -32s-8.16699 -29.333 -9.5 -48s-2 -38.334 -2 -59.001c0 -20 0.833008 -38.5 2.5 -55.5s5 -31.833 10 -44.5
s12.167 -22.5 21.5 -29.5s21.666 -10.5 36.999 -10.5zM176.004 575.009v108h106v-108h-106z" />
    <glyph glyph-name="Gcommaaccent" unicode="&#x122;" horiz-adv-x="523" 
d="M263 701c28 0 53.5 -3.83398 76.5 -11.501s43.167 -18.5 60.5 -32.5s31.833 -30.5 43.5 -49.5s20.167 -39.5 25.5 -61.5l-109 -34c-2 10 -5.33301 19.667 -10 29s-11 17.666 -19 24.999s-17.667 13.333 -29 18s-24.333 7 -39 7c-17.333 0 -32.166 -3 -44.499 -9
s-22.5 -13.833 -30.5 -23.5s-14 -20.5 -18 -32.5s-6 -24 -6 -36v-278c0 -14.667 2 -28.667 6 -42s10.167 -25 18.5 -35s18.666 -18 30.999 -24s26.833 -9 43.5 -9c33.333 0 58.5 9.5 75.5 28.5s25.5 42.167 25.5 69.5v82h-104v99h218v-165c0 -33.333 -5 -63.666 -15 -90.999
s-24.167 -50.666 -42.5 -69.999s-40.833 -34.333 -67.5 -45s-56.667 -16 -90 -16c-36 0 -67.333 5.66699 -94 17s-48.834 27 -66.501 47s-30.834 43.5 -39.501 70.5s-13 56.167 -13 87.5v270c0 27.333 4.16699 54 12.5 80s21.333 49 39 69s39.834 36 66.501 48
s58.334 18 95.001 18zM198 -275.001l32 99h-29v117h116v-114l-62 -102h-57z" />
    <glyph glyph-name="gcommaaccent" unicode="&#x123;" horiz-adv-x="454" 
d="M402 -6c0 -60 -15.666 -108.328 -46.999 -144.995s-79 -55 -143 -55c-34 0 -65 7 -93 21s-51 34.333 -69 61l16 12.5l25.5 20.5l25.5 20.5l16 12.5c9.33301 -14 20.833 -25.333 34.5 -34s29.167 -13 46.5 -13c24.667 0 43.667 7.5 57 22.5s20 35.167 20 60.5v71h-3
c-12.667 -16.667 -28.5 -29.167 -47.5 -37.5s-36.833 -12.5 -53.5 -12.5c-35.333 0 -63 7.33301 -83 22s-35.167 33.667 -45.5 57s-16.833 49.666 -19.5 78.999s-4 58.666 -4 87.999s1.33301 59.166 4 89.499s9.16699 57.666 19.5 81.999s25.666 44.333 45.999 60
s48.166 23.5 83.499 23.5c18.667 0 36.834 -3.83301 54.501 -11.5s33.167 -19.834 46.5 -36.501l2 2v41h111v-501zM219.001 105.005c16 0 28.6699 4.00391 38.0029 12.0039s16.666 18.667 21.999 32s8.83301 28.166 10.5 44.499s2.5 33.166 2.5 50.499
c0 19.333 -0.5 38.166 -1.5 56.499s-3.83301 34.5 -8.5 48.5s-11.834 25.333 -21.501 34s-23.167 13 -40.5 13c-16 0 -28.833 -4 -38.5 -12s-17 -18.667 -22 -32s-8.16699 -29.333 -9.5 -48s-2 -38.334 -2 -59.001c0 -20 0.833008 -38.5 2.5 -55.5s5 -31.833 10 -44.5
s12.167 -22.5 21.5 -29.5s21.666 -10.5 36.999 -10.5zM230.004 785.009h56c-4 -16 -8.33301 -31.667 -13 -47s-9 -31 -13 -47h26v-117h-115v114z" />
    <glyph glyph-name="Hcircumflex" unicode="&#x124;" horiz-adv-x="550" 
d="M373 0v301h-196v-301h-115v696h115v-292h196v292h114v-696h-114zM270 808l-132 -80l-41 44l141 127h69l137 -126l-42 -45z" />
    <glyph glyph-name="hcircumflex" unicode="&#x125;" horiz-adv-x="460" 
d="M301 0l-0.00390625 317.999c0 24.667 -6.16699 43.5 -18.5 56.5s-29.166 19.5 -50.499 19.5s-38.666 -6.66699 -51.999 -20s-20 -32.666 -20 -57.999v-316h-110v726h110v-278h4c12.667 15.333 28.334 27.833 47.001 37.5s38.334 14.5 59.001 14.5
c42.667 0 77 -13.667 103 -41s39 -64.333 39 -111v-348h-111zM102.996 807.999l-132 -80l-41 44l141 127h69l137 -126l-42 -45z" />
    <glyph glyph-name="Hbar" unicode="&#x126;" horiz-adv-x="550" 
d="M373 0v301h-196v-301h-115v525h-47v70h47v101h115v-101h196v101h114v-101h46v-70h-46v-525h-114zM373 404v121h-196v-121h196z" />
    <glyph glyph-name="hbar" unicode="&#x127;" horiz-adv-x="460" 
d="M301 0l-0.00390625 317.999c0 24.667 -6.16699 43.5 -18.5 56.5s-29.166 19.5 -50.499 19.5s-38.666 -6.66699 -51.999 -20s-20 -32.666 -20 -57.999v-316h-110v573h-50v71h50v82h110v-82h158v-71h-158v-125h4c12.667 15.333 28.334 27.833 47.001 37.5
s38.334 14.5 59.001 14.5c42.667 0 77 -13.667 103 -41s39 -64.333 39 -111v-348h-111z" />
    <glyph glyph-name="Itilde" unicode="&#x128;" horiz-adv-x="243" 
d="M64 0v696h115v-696h-115zM59 864c11.333 0 22.3359 -2.16797 33.0029 -6.50098s21.167 -9.16602 31.5 -14.499s20.166 -10.166 29.499 -14.499s18 -6.5 26 -6.5c10 0 19.5 3.33301 28.5 10s19.167 17.667 30.5 33l56 -33c-15.333 -32.667 -31.833 -56.334 -49.5 -71.001
s-36.5 -22 -56.5 -22c-12 0 -23.5 2.16699 -34.5 6.5s-21.667 9 -32 14l-30 14c-9.66699 4.33301 -18.834 6.5 -27.501 6.5c-10 0 -19.833 -3 -29.5 -9s-20.5 -16.667 -32.5 -32l-27 16l-27 16c13.333 30 29.666 53 48.999 69s40 24 62 24z" />
    <glyph glyph-name="itilde" unicode="&#x129;" horiz-adv-x="281" 
d="M90 0v495h111v-495h-111zM81 694c11.333 0 22.3359 -2.16797 33.0029 -6.50098s21.167 -9.16602 31.5 -14.499s20.166 -10.166 29.499 -14.499s18 -6.5 26 -6.5c10 0 19.5 3.33301 28.5 10s19.167 17.667 30.5 33l56 -33c-15.333 -32.667 -31.833 -56.334 -49.5 -71.001
s-36.5 -22 -56.5 -22c-12 0 -23.5 2.16699 -34.5 6.5s-21.667 9 -32 14l-30 14c-9.66699 4.33301 -18.834 6.5 -27.501 6.5c-10 0 -19.833 -3 -29.5 -9s-20.5 -16.667 -32.5 -32l-27 16l-27 16c13.333 30 29.666 53 48.999 69s40 24 62 24z" />
    <glyph glyph-name="Imacron" unicode="&#x12a;" horiz-adv-x="243" 
d="M64 0v696h115v-696h-115zM-12 757v95h270v-95h-270z" />
    <glyph glyph-name="imacron" unicode="&#x12b;" horiz-adv-x="225" 
d="M57 0v495h111v-495h-111zM-22 580v95h271v-95h-271z" />
    <glyph glyph-name="Ibreve" unicode="&#x12c;" horiz-adv-x="243" 
d="M125 744c-28 0 -51.5 4.83301 -70.5 14.5s-34.333 21.834 -46 36.501s-20.167 30.5 -25.5 47.5s-8.33301 32.833 -9 47.5h86c0.666992 -6.66699 2.5 -14 5.5 -22s7.33301 -15.333 13 -22s12.334 -12.167 20.001 -16.5s16.5 -6.5 26.5 -6.5c10.667 0 20 2.16699 28 6.5
s14.667 9.83301 20 16.5s9.33301 14 12 22s4 15.333 4 22h85c-1.33301 -14.667 -4.83301 -30.5 -10.5 -47.5s-14.167 -32.833 -25.5 -47.5s-26.333 -26.834 -45 -36.501s-41.334 -14.5 -68.001 -14.5zM64 0v696h115v-696h-115z" />
    <glyph glyph-name="ibreve" unicode="&#x12d;" horiz-adv-x="260" 
d="M81 0v495h111v-495h-111zM132 557c-28 0 -51.5 5 -70.5 15s-34.333 22.333 -46 37s-20.167 30.667 -25.5 48s-8.33301 33.333 -9 48h86c0.666992 -7.33301 2.5 -14.833 5.5 -22.5s7.33301 -14.834 13 -21.501s12.334 -12.167 20.001 -16.5s16.5 -6.5 26.5 -6.5
c10.667 0 20 2.16699 28 6.5s14.667 9.83301 20 16.5s9.33301 13.834 12 21.501s4 15.167 4 22.5h85c-1.33301 -14.667 -4.83301 -30.667 -10.5 -48s-14.167 -33.333 -25.5 -48s-26.333 -27 -45 -37s-41.334 -15 -68.001 -15z" />
    <glyph glyph-name="Iogonek" unicode="&#x12e;" horiz-adv-x="243" 
d="M46 -100c0 13.333 3.00195 28.334 9.00195 45.001s15.667 35 29 55h-20v696h115v-696h-23c-22.667 -34 -34 -60.333 -34 -79c0 -15.333 3.16699 -26.833 9.5 -34.5s17.166 -11.5 32.499 -11.5c7.33301 0 15.666 1.16699 24.999 3.5s20.333 6.16602 33 11.499l22 -57
c-14.667 -8 -30.5 -14.5 -47.5 -19.5s-33.833 -7.5 -50.5 -7.5c-29.333 0 -53.333 9 -72 27s-28 40.333 -28 67z" />
    <glyph glyph-name="iogonek" unicode="&#x12f;" horiz-adv-x="225" 
d="M40 -99c0 13.333 3.00195 28.168 9.00195 44.501s15.667 34.5 29 54.5h-21v495h111v-495h-19c-22 -32 -33 -58 -33 -78c0 -15.333 3.16699 -26.833 9.5 -34.5s17.166 -11.5 32.499 -11.5c7.33301 0 15.666 1.16699 24.999 3.5s20.333 6.16602 33 11.499l22 -57
c-14.667 -8 -30.5 -14.5 -47.5 -19.5s-33.833 -7.5 -50.5 -7.5c-29.333 0 -53.333 9 -72 27s-28 40.333 -28 67zM57.002 592.002v104h111v-104h-111z" />
    <glyph glyph-name="Idotaccent" unicode="&#x130;" horiz-adv-x="243" 
d="M64 0v696h115v-696h-115zM68 750v108h106v-108h-106z" />
    <glyph glyph-name="dotlessi" unicode="&#x131;" horiz-adv-x="225" 
d="M57 0v495h111v-495h-111z" />
    <glyph glyph-name="IJ" unicode="&#x132;" horiz-adv-x="650" 
d="M64 0v696h115v-696h-115zM588 190c0 -34.667 -5.16797 -64.333 -15.501 -89s-24.5 -44.834 -42.5 -60.501s-39 -27.167 -63 -34.5s-49.333 -11 -76 -11c-34 0 -65.167 6.16699 -93.5 18.5s-52.833 32.5 -73.5 60.5l80 73c10.667 -15.333 23.834 -26.666 39.501 -33.999
s30.5 -11 44.5 -11c25.333 0 46 7.5 62 22.5s24 37.833 24 68.5v503h114v-506z" />
    <glyph glyph-name="ij" unicode="&#x133;" horiz-adv-x="461" 
d="M401 -58c0 -44 -13.499 -78.833 -40.499 -104.5s-64.5 -38.5 -112.5 -38.5h-31v100h22c19.333 0.666992 32.666 7.5 39.999 20.5s11 29.5 11 49.5v527h111v-554zM57.001 0v495h111v-495h-111zM290.001 592v104h111v-104h-111zM57.001 592v104h111v-104h-111z" />
    <glyph glyph-name="Jcircumflex" unicode="&#x134;" horiz-adv-x="421" 
d="M359 191c0 -34.667 -5.16797 -64.333 -15.501 -89s-24.5 -44.834 -42.5 -60.501s-39 -27.167 -63 -34.5s-49.333 -11 -76 -11c-34 0 -65.167 6.16699 -93.5 18.5s-52.833 32.5 -73.5 60.5l80 73c10.667 -15.333 23.834 -26.666 39.501 -33.999s30.5 -11 44.5 -11
c25.333 0 46 7.5 62 22.5s24 37.833 24 68.5v503h114v-506zM299.999 810.001l-132 -80l-41 44l141 127h69l137 -126l-42 -45z" />
    <glyph glyph-name="jcircumflex" unicode="&#x135;" horiz-adv-x="252" 
d="M181 -58c0 -44 -13.5 -78.833 -40.5 -104.5s-64.5 -38.5 -112.5 -38.5h-31v100h22c19.333 0.666992 32.833 7.5 40.5 20.5s11.5 29.5 11.5 49.5v527h110v-554zM127 635c-3.33301 -2 -11.167 -8 -23.5 -18l-40.5 -32.5l-41 -32l-23 -17.5l-45 40l141 152h70l136 -150
l-46 -42z" />
    <glyph glyph-name="Kcommaaccent" unicode="&#x136;" horiz-adv-x="534" 
d="M407 0l-75.5 155.5l-75.5 155.5l-40 -60.5l-40 -59.5v-191h-114v696h114v-315h3l204 315h131l-186 -278l103 -209.5l104 -208.5h-128zM217 -255l32 99h-29v117h116v-114l-62 -102h-57z" />
    <glyph glyph-name="kcommaaccent" unicode="&#x137;" horiz-adv-x="462" 
d="M167 304l140 190h136l-151 -192l169 -302h-129l-114 212l-54 -74v-138h-110v725h110v-421h3zM182 -275l32 99h-29v117h116v-114l-62 -102h-57z" />
    <glyph glyph-name="kgreenlandic" unicode="&#x138;" horiz-adv-x="459" 
d="M167 304l140 190h136l-151 -193l168 -301h-127l-113 213l-56 -76v-137h-110v494h110v-190h3z" />
    <glyph glyph-name="Lacute" unicode="&#x139;" horiz-adv-x="462" 
d="M63 0v696h114v-587h269v-109h-383zM73 780l159 124l69 -80l-185 -98z" />
    <glyph glyph-name="lacute" unicode="&#x13a;" horiz-adv-x="244" 
d="M190 -2c-43.333 0 -77 9.33203 -101 27.999s-36 52.334 -36 101.001v599h111v-577c0 -19.333 3.66699 -32.833 11 -40.5s19 -11.5 35 -11.5h16v-99h-36zM55 791.999l159 124l69 -80l-185 -98z" />
    <glyph glyph-name="Lcommaaccent" unicode="&#x13b;" horiz-adv-x="462" 
d="M63 0v696h114v-587h269v-109h-383zM190 -275l32 99h-29v117h116v-114l-62 -102h-57z" />
    <glyph glyph-name="lcommaaccent" unicode="&#x13c;" horiz-adv-x="244" 
d="M190 -2c-43.333 0 -77 9.33203 -101 27.999s-36 52.334 -36 101.001v599h111v-577c0 -19.333 3.66699 -32.833 11 -40.5s19 -11.5 35 -11.5h16v-99h-36zM69 -270.001l32 99h-29v117h116v-114l-62 -102h-57z" />
    <glyph glyph-name="Lcaron" unicode="&#x13d;" horiz-adv-x="462" 
d="M63 0v696h114v-587h269v-109h-383zM264 478l32 99h-29v117h116v-114l-62 -102h-57z" />
    <glyph glyph-name="lcaron" unicode="&#x13e;" horiz-adv-x="327" 
d="M207 506l32 99h-29v117h116v-114l-62 -102h-57zM190 -2c-43.333 0 -77 9.33203 -101 27.999s-36 52.334 -36 101.001v599h111v-577c0 -19.333 3.66699 -32.833 11 -40.5s19 -11.5 35 -11.5h16v-99h-36z" />
    <glyph glyph-name="Ldot" unicode="&#x13f;" horiz-adv-x="462" 
d="M63 0v696h114v-587h269v-109h-383zM293 304v108h106v-108h-106z" />
    <glyph glyph-name="ldot" unicode="&#x140;" horiz-adv-x="319" 
d="M212 327v108h106v-108h-106zM190 -2c-43.333 0 -77 9.33203 -101 27.999s-36 52.334 -36 101.001v599h111v-577c0 -19.333 3.66699 -32.833 11 -40.5s19 -11.5 35 -11.5h16v-99h-36z" />
    <glyph glyph-name="Lslash" unicode="&#x141;" horiz-adv-x="485" 
d="M86 0v238l-48 -29l-38 61l86 52v374h114v-304l94 58l37 -62l-131 -80v-199h269v-109h-383z" />
    <glyph glyph-name="lslash" unicode="&#x142;" horiz-adv-x="297" 
d="M226 -2c-43.333 0 -77 9.33203 -101 27.999s-36 52.334 -36 101.001v144l-46 -28l-39 61l85 52v370h111v-302l59 36l37 -61l-96 -59v-191c0 -19.333 3.66699 -32.833 11 -40.5s19 -11.5 35 -11.5h16v-99h-36z" />
    <glyph glyph-name="Nacute" unicode="&#x143;" horiz-adv-x="579" 
d="M416 0l-164 299l-73 143l-3 -1v-441h-115v696h105l154 -284l82 -156l4 1v439h114v-696h-104zM212 780l159 124l69 -80l-185 -98z" />
    <glyph glyph-name="nacute" unicode="&#x144;" horiz-adv-x="459" 
d="M300 0l-0.00292969 318.001c0 24.667 -6.66699 43.5 -20 56.5s-30 19.5 -50 19.5c-21.333 0 -38.666 -6.83301 -51.999 -20.5s-20 -32.834 -20 -57.501v-316h-110v495h111v-48h3c13.333 16 29.333 28.833 48 38.5s38.334 14.5 59.001 14.5
c44.667 0 79.334 -13.5 104.001 -40.5s37 -63.833 37 -110.5v-349h-110zM157.997 571.001l82 184l98 -37l-116 -175z" />
    <glyph glyph-name="Ncommaaccent" unicode="&#x145;" horiz-adv-x="579" 
d="M416 0l-164 299l-73 143l-3 -1v-441h-115v696h105l154 -284l82 -156l4 1v439h114v-696h-104zM226 -255l32 99h-29v117h116v-114l-62 -102h-57z" />
    <glyph glyph-name="ncommaaccent" unicode="&#x146;" horiz-adv-x="459" 
d="M300 0l-0.00292969 318.001c0 24.667 -6.66699 43.5 -20 56.5s-30 19.5 -50 19.5c-21.333 0 -38.666 -6.83301 -51.999 -20.5s-20 -32.834 -20 -57.501v-316h-110v495h111v-48h3c13.333 16 29.333 28.833 48 38.5s38.334 14.5 59.001 14.5
c44.667 0 79.334 -13.5 104.001 -40.5s37 -63.833 37 -110.5v-349h-110zM166.997 -274.999l32 99h-29v117h116v-114l-62 -102h-57z" />
    <glyph glyph-name="Ncaron" unicode="&#x147;" horiz-adv-x="579" 
d="M416 0l-164 299l-73 143l-3 -1v-441h-115v696h105l154 -284l82 -156l4 1v439h114v-696h-104zM426 901l42 -44l-137 -126h-70l-140 127l41 43l132 -80z" />
    <glyph glyph-name="ncaron" unicode="&#x148;" horiz-adv-x="459" 
d="M300 0l-0.00292969 318.001c0 24.667 -6.66699 43.5 -20 56.5s-30 19.5 -50 19.5c-21.333 0 -38.666 -6.83301 -51.999 -20.5s-20 -32.834 -20 -57.501v-316h-110v495h111v-48h3c13.333 16 29.333 28.833 48 38.5s38.334 14.5 59.001 14.5
c44.667 0 79.334 -13.5 104.001 -40.5s37 -63.833 37 -110.5v-349h-110zM344.997 727.001l46 -41l-136 -151h-71l-141 152l46 40l23 -17.5l40.5 -31.5l40.5 -32c12.667 -10 20.667 -16 24 -18z" />
    <glyph glyph-name="napostrophe" unicode="&#x149;" horiz-adv-x="527" 
d="M368 0l-0.00292969 318.001c0 24.667 -6.66699 43.5 -20 56.5s-30 19.5 -50 19.5c-21.333 0 -38.666 -6.83301 -51.999 -20.5s-20 -32.834 -20 -57.501v-316h-110v495h111v-48h3c13.333 16 29.333 28.833 48 38.5s38.334 14.5 59.001 14.5
c44.667 0 79.334 -13.5 104.001 -40.5s37 -63.833 37 -110.5v-349h-110zM-2.00293 452.001l32 99h-29v117h116v-114l-62 -102h-57z" />
    <glyph glyph-name="Eng" unicode="&#x14a;" horiz-adv-x="579" 
d="M519 -59c0 -22.667 -3.16309 -41.332 -9.49609 -55.999s-14.833 -26.5 -25.5 -35.5s-23.334 -15.333 -38.001 -19s-30.334 -5.5 -47.001 -5.5c-22.667 0 -46 4 -70 12l15 85c4 -0.666992 8 -1.16699 12 -1.5s7.66699 -0.5 11 -0.5c17.333 0 28.666 4.16699 33.999 12.5
s8 20.166 8 35.499v49l-23.5 44l-41 77l-50 93l-50 93l-41.5 77.5c-12 22.333 -20.333 37.5 -25 45.5h-3v-447h-114v696h104l116 -214l69 -129c9.33301 -16.667 18 -33.5 26 -50.5s16.667 -34.167 26 -51.5c0.666992 0 1.16699 0.166992 1.5 0.5s1.16602 0.5 2.49902 0.5
v444h113v-755z" />
    <glyph glyph-name="eng" unicode="&#x14b;" horiz-adv-x="459" 
d="M410 -59c0 -22 -3.00098 -40.498 -9.00098 -55.498s-14.167 -27.167 -24.5 -36.5s-22.333 -16 -36 -20s-28.5 -6 -44.5 -6c-25.333 0 -50.666 4.66699 -75.999 14l15 85c4 -0.666992 8 -1.16699 12 -1.5s7.66699 -0.5 11 -0.5c19.333 0 31.166 5.16699 35.499 15.5
s6.5 24.166 6.5 41.499v341c0 24.667 -6.33301 43.5 -19 56.5s-29.667 19.5 -51 19.5c-20.667 0 -37.834 -7 -51.501 -21s-20.5 -33.333 -20.5 -58v-315h-110v495h111v-48h3c13.333 16 30 28.833 50 38.5s40.333 14.5 61 14.5c25.333 0 46.833 -4.16699 64.5 -12.5
s31.834 -19.833 42.501 -34.5s18.334 -32.334 23.001 -53.001s7 -43 7 -67v-392z" />
    <glyph glyph-name="Omacron" unicode="&#x14c;" horiz-adv-x="516" 
d="M471 211c0 -33.333 -5.16895 -63.334 -15.502 -90.001s-25 -49.5 -44 -68.5s-41.5 -33.5 -67.5 -43.5s-54.667 -15 -86 -15c-38 0 -70.667 6.16699 -98 18.5s-49.5 29 -66.5 50s-29.5 45.333 -37.5 73s-12 56.834 -12 87.501v263c0 24.667 3.83301 49.667 11.5 75
s20 48.333 37 69s39 37.667 66 51s60.167 20 99.5 20c36.667 0 68.334 -6.33301 95.001 -19s48.834 -29.167 66.501 -49.5s30.667 -43.333 39 -69s12.5 -51.5 12.5 -77.5v-275zM354.998 487.999c0 8.66699 -1.50195 18.8301 -4.50195 30.4971s-8.16699 22.834 -15.5 33.501
s-17.166 19.834 -29.499 27.501s-28.166 11.5 -47.499 11.5s-35.5 -3.5 -48.5 -10.5s-23.333 -15.667 -31 -26s-13.167 -21.5 -16.5 -33.5s-5 -23.333 -5 -34l1 -266c0 -33.333 7.66699 -61.333 23 -84s41.333 -34 78 -34c26 0 48.5 8.83301 67.5 26.5
s28.5 41.834 28.5 72.501v286zM120.996 756.995v95h270v-95h-270z" />
    <glyph glyph-name="omacron" unicode="&#x14d;" horiz-adv-x="449" 
d="M228 502c42.667 0 76.3311 -8.5 100.998 -25.5s43.334 -38.167 56.001 -63.5c9.33301 -18.667 15.666 -43.167 18.999 -73.5s5 -61.5 5 -93.5c0 -26.667 -1.66699 -54.667 -5 -84s-8.66602 -53 -15.999 -71c-7.33301 -18.667 -16.833 -34.167 -28.5 -46.5
s-25 -22.333 -40 -30s-31.167 -13.167 -48.5 -16.5s-35 -5 -53 -5c-36 0 -66.167 6.66699 -90.5 20s-43.166 31 -56.499 53c-12 19.333 -20.5 44.333 -25.5 75s-7.5 65.334 -7.5 104.001c0 30 1.5 59.167 4.5 87.5s8.16699 51.166 15.5 68.499c13.333 31.333 34 56 62 74
s64 27 108 27zM225.997 400c-14.667 0 -27.999 -3.66992 -39.999 -11.0029s-20.667 -18.666 -26 -33.999c-4.66699 -12 -7.83398 -27.833 -9.50098 -47.5s-2.5 -42.167 -2.5 -67.5c0 -19.333 0.5 -37.666 1.5 -54.999s3.83301 -32.333 8.5 -45c11.333 -30 33 -45 65 -45
c15.333 0 29.333 3.83301 42 11.5s21.667 22.834 27 45.501c2.66699 9.33301 4.5 23 5.5 41s1.5 38.333 1.5 61c0 20 -0.666992 38.5 -2 55.5s-4 31.167 -8 42.5c-11.333 32 -32.333 48 -63 48zM84.998 579.997v95h271v-95h-271z" />
    <glyph glyph-name="Obreve" unicode="&#x14e;" horiz-adv-x="516" 
d="M471 211c0 -33.333 -5.16895 -63.334 -15.502 -90.001s-25 -49.5 -44 -68.5s-41.5 -33.5 -67.5 -43.5s-54.667 -15 -86 -15c-38 0 -70.667 6.16699 -98 18.5s-49.5 29 -66.5 50s-29.5 45.333 -37.5 73s-12 56.834 -12 87.501v263c0 24.667 3.83301 49.667 11.5 75
s20 48.333 37 69s39 37.667 66 51s60.167 20 99.5 20c36.667 0 68.334 -6.33301 95.001 -19s48.834 -29.167 66.501 -49.5s30.667 -43.333 39 -69s12.5 -51.5 12.5 -77.5v-275zM354.998 487.999c0 8.66699 -1.50195 18.8301 -4.50195 30.4971s-8.16699 22.834 -15.5 33.501
s-17.166 19.834 -29.499 27.501s-28.166 11.5 -47.499 11.5s-35.5 -3.5 -48.5 -10.5s-23.333 -15.667 -31 -26s-13.167 -21.5 -16.5 -33.5s-5 -23.333 -5 -34l1 -266c0 -33.333 7.66699 -61.333 23 -84s41.333 -34 78 -34c26 0 48.5 8.83301 67.5 26.5
s28.5 41.834 28.5 72.501v286zM253.996 738.995c-28 0 -51.5 4.83301 -70.5 14.5s-34.333 21.834 -46 36.501s-20.167 30.5 -25.5 47.5s-8.33301 32.833 -9 47.5h86c0.666992 -6.66699 2.5 -14 5.5 -22s7.33301 -15.333 13 -22s12.334 -12.167 20.001 -16.5
s16.5 -6.5 26.5 -6.5c10.667 0 20 2.16699 28 6.5s14.667 9.83301 20 16.5s9.33301 14 12 22s4 15.333 4 22h85c-1.33301 -14.667 -4.83301 -30.5 -10.5 -47.5s-14.167 -32.833 -25.5 -47.5s-26.333 -26.834 -45 -36.501s-41.334 -14.5 -68.001 -14.5z" />
    <glyph glyph-name="obreve" unicode="&#x14f;" horiz-adv-x="449" 
d="M228 502c42.667 0 76.3311 -8.5 100.998 -25.5s43.334 -38.167 56.001 -63.5c9.33301 -18.667 15.666 -43.167 18.999 -73.5s5 -61.5 5 -93.5c0 -26.667 -1.66699 -54.667 -5 -84s-8.66602 -53 -15.999 -71c-7.33301 -18.667 -16.833 -34.167 -28.5 -46.5
s-25 -22.333 -40 -30s-31.167 -13.167 -48.5 -16.5s-35 -5 -53 -5c-36 0 -66.167 6.66699 -90.5 20s-43.166 31 -56.499 53c-12 19.333 -20.5 44.333 -25.5 75s-7.5 65.334 -7.5 104.001c0 30 1.5 59.167 4.5 87.5s8.16699 51.166 15.5 68.499c13.333 31.333 34 56 62 74
s64 27 108 27zM225.997 400c-14.667 0 -27.999 -3.66992 -39.999 -11.0029s-20.667 -18.666 -26 -33.999c-4.66699 -12 -7.83398 -27.833 -9.50098 -47.5s-2.5 -42.167 -2.5 -67.5c0 -19.333 0.5 -37.666 1.5 -54.999s3.83301 -32.333 8.5 -45c11.333 -30 33 -45 65 -45
c15.333 0 29.333 3.83301 42 11.5s21.667 22.834 27 45.501c2.66699 9.33301 4.5 23 5.5 41s1.5 38.333 1.5 61c0 20 -0.666992 38.5 -2 55.5s-4 31.167 -8 42.5c-11.333 32 -32.333 48 -63 48zM225.998 556.997c-28 0 -51.5 5 -70.5 15s-34.333 22.333 -46 37
s-20.167 30.667 -25.5 48s-8.33301 33.333 -9 48h86c0.666992 -7.33301 2.5 -14.833 5.5 -22.5s7.33301 -14.834 13 -21.501s12.334 -12.167 20.001 -16.5s16.5 -6.5 26.5 -6.5c10.667 0 20 2.16699 28 6.5s14.667 9.83301 20 16.5s9.33301 13.834 12 21.501
s4 15.167 4 22.5h85c-1.33301 -14.667 -4.83301 -30.667 -10.5 -48s-14.167 -33.333 -25.5 -48s-26.333 -27 -45 -37s-41.334 -15 -68.001 -15z" />
    <glyph glyph-name="Ohungarumlaut" unicode="&#x150;" horiz-adv-x="516" 
d="M471 211c0 -33.333 -5.16895 -63.334 -15.502 -90.001s-25 -49.5 -44 -68.5s-41.5 -33.5 -67.5 -43.5s-54.667 -15 -86 -15c-38 0 -70.667 6.16699 -98 18.5s-49.5 29 -66.5 50s-29.5 45.333 -37.5 73s-12 56.834 -12 87.501v263c0 24.667 3.83301 49.667 11.5 75
s20 48.333 37 69s39 37.667 66 51s60.167 20 99.5 20c36.667 0 68.334 -6.33301 95.001 -19s48.834 -29.167 66.501 -49.5s30.667 -43.333 39 -69s12.5 -51.5 12.5 -77.5v-275zM354.998 487.999c0 8.66699 -1.50195 18.8301 -4.50195 30.4971s-8.16699 22.834 -15.5 33.501
s-17.166 19.834 -29.499 27.501s-28.166 11.5 -47.499 11.5s-35.5 -3.5 -48.5 -10.5s-23.333 -15.667 -31 -26s-13.167 -21.5 -16.5 -33.5s-5 -23.333 -5 -34l1 -266c0 -33.333 7.66699 -61.333 23 -84s41.333 -34 78 -34c26 0 48.5 8.83301 67.5 26.5
s28.5 41.834 28.5 72.501v286zM91.9961 773.995l152 132l73 -72l-179 -111zM279.996 774.995l154 130l71 -72l-179 -109z" />
    <glyph glyph-name="ohungarumlaut" unicode="&#x151;" horiz-adv-x="449" 
d="M228 502c42.667 0 76.3311 -8.5 100.998 -25.5s43.334 -38.167 56.001 -63.5c9.33301 -18.667 15.666 -43.167 18.999 -73.5s5 -61.5 5 -93.5c0 -26.667 -1.66699 -54.667 -5 -84s-8.66602 -53 -15.999 -71c-7.33301 -18.667 -16.833 -34.167 -28.5 -46.5
s-25 -22.333 -40 -30s-31.167 -13.167 -48.5 -16.5s-35 -5 -53 -5c-36 0 -66.167 6.66699 -90.5 20s-43.166 31 -56.499 53c-12 19.333 -20.5 44.333 -25.5 75s-7.5 65.334 -7.5 104.001c0 30 1.5 59.167 4.5 87.5s8.16699 51.166 15.5 68.499c13.333 31.333 34 56 62 74
s64 27 108 27zM225.997 400c-14.667 0 -27.999 -3.66992 -39.999 -11.0029s-20.667 -18.666 -26 -33.999c-4.66699 -12 -7.83398 -27.833 -9.50098 -47.5s-2.5 -42.167 -2.5 -67.5c0 -19.333 0.5 -37.666 1.5 -54.999s3.83301 -32.333 8.5 -45c11.333 -30 33 -45 65 -45
c15.333 0 29.333 3.83301 42 11.5s21.667 22.834 27 45.501c2.66699 9.33301 4.5 23 5.5 41s1.5 38.333 1.5 61c0 20 -0.666992 38.5 -2 55.5s-4 31.167 -8 42.5c-11.333 32 -32.333 48 -63 48zM106.998 577.997l82 184l98 -36l-117 -176zM250.998 570.997l82 184l98 -37
l-117 -175z" />
    <glyph glyph-name="OE" unicode="&#x152;" horiz-adv-x="729" 
d="M314 0c-17.333 -4 -36 -6 -56 -6c-38 0 -70.667 6.16699 -98 18.5s-49.5 29 -66.5 50s-29.5 45.167 -37.5 72.5s-12 56.333 -12 87v265c0 24.667 3.83301 49.667 11.5 75s20 48.333 37 69s39 37.5 66 50.5s60.167 19.5 99.5 19.5c9.33301 0 18.333 -0.5 27 -1.5
s17 -2.16699 25 -3.5h384v-106h-273v-186h234v-104h-234v-191h273v-109h-380zM258 103c16.667 0 33.001 4.33301 49.001 13v463c-6.66699 3.33301 -14 6.16602 -22 8.49902s-17 3.5 -27 3.5c-18.667 0 -34.334 -3.33301 -47.001 -10s-23 -15 -31 -25
s-13.667 -20.833 -17 -32.5s-5 -22.5 -5 -32.5v-271c0 -33.333 7.5 -61.166 22.5 -83.499s40.833 -33.5 77.5 -33.5z" />
    <glyph glyph-name="oe" unicode="&#x153;" horiz-adv-x="707" 
d="M570 145l45.502 -23.9971l45.5 -25c-15.333 -33.333 -38 -58.5 -68 -75.5s-63.333 -25.5 -100 -25.5c-31.333 0 -58.166 4 -80.499 12s-41.166 20.667 -56.499 38c-17.333 -19.333 -38 -32.833 -62 -40.5s-49.667 -11.5 -77 -11.5c-31.333 0 -58 5 -80 15
s-40.333 23.667 -55 41c-20.667 25.333 -33.334 53.666 -38.001 84.999s-7 68.333 -7 111c0 30 1.66699 59.167 5 87.5s8.66602 51.166 15.999 68.499c13.333 31.333 34.5 55.833 63.5 73.5s64.5 26.5 106.5 26.5c30 0 55.667 -4.66699 77 -14s39.333 -21.666 54 -36.999
c14 16 31.5 28.5 52.5 37.5s46.5 13.5 76.5 13.5c37.333 0 68 -6.16699 92 -18.5s42.833 -29.166 56.5 -50.499s23 -46.333 28 -75s7.5 -59.334 7.5 -92.001v-47h-259c0 -14.667 0.833008 -29.334 2.5 -44.001s5.16699 -27.834 10.5 -39.501s13.166 -21.167 23.499 -28.5
s24.166 -11 41.499 -11c16 0 30.667 4.5 44 13.5s25 21.167 35 36.5zM226.002 400.003c-15.333 0 -28.667 -3.66895 -40 -11.002s-20.333 -18.666 -27 -33.999c-4.66699 -11.333 -7.83398 -27 -9.50098 -47s-2.5 -43 -2.5 -69c0 -19.333 0.5 -37.666 1.5 -54.999
s4.16699 -32 9.5 -44c12.667 -30.667 34.334 -46 65.001 -46c15.333 0 29.333 4.33301 42 13s21.667 24.334 27 47.001c2.66699 9.33301 4.5 22.666 5.5 39.999s1.5 37.333 1.5 60c0 20 -0.666992 38.5 -2 55.5s-4 31.167 -8 42.5c-5.33301 14 -13.333 25.5 -24 34.5
s-23.667 13.5 -39 13.5zM559.001 295.001c0 31.333 -5.5 56.5 -16.5 75.5s-29.833 28.5 -56.5 28.5s-45 -10 -55 -30s-15.667 -44.667 -17 -74h145z" />
    <glyph glyph-name="Racute" unicode="&#x154;" horiz-adv-x="528" 
d="M370 0l-104.001 290h-89v-290h-114v696h224c28.667 0 55.334 -4.16699 80.001 -12.5s45.834 -20.833 63.501 -37.5s31.5 -37.5 41.5 -62.5s15 -54.167 15 -87.5c0 -44 -9.33301 -82 -28 -114s-46.334 -56.333 -83.001 -73l119 -309h-125zM374.999 496
c0 32.667 -8.33301 56.833 -25 72.5s-40.667 23.5 -72 23.5h-101v-199h100c30 0 53.833 8.66699 71.5 26s26.5 43 26.5 77zM159.999 779.999l159 124l69 -80l-185 -98z" />
    <glyph glyph-name="racute" unicode="&#x155;" horiz-adv-x="338" 
d="M259 391c-28 0 -50.166 -7.50098 -66.499 -22.501s-24.5 -39.167 -24.5 -72.5v-297h-111v496h110v-57l3 -1c13.333 24 29.666 40.5 48.999 49.5s41 13.5 65 13.5c10 0 19.333 -0.833008 28 -2.5s16.667 -5.16699 24 -10.5l-22 -108
c-9.33301 4.66699 -18.5 7.83398 -27.5 9.50098s-18.167 2.5 -27.5 2.5zM125.001 570.999l82 184l98 -37l-116 -175z" />
    <glyph glyph-name="Rcommaaccent" unicode="&#x156;" horiz-adv-x="528" 
d="M370 0l-104.001 290h-89v-290h-114v696h224c28.667 0 55.334 -4.16699 80.001 -12.5s45.834 -20.833 63.501 -37.5s31.5 -37.5 41.5 -62.5s15 -54.167 15 -87.5c0 -44 -9.33301 -82 -28 -114s-46.334 -56.333 -83.001 -73l119 -309h-125zM374.999 496
c0 32.667 -8.33301 56.833 -25 72.5s-40.667 23.5 -72 23.5h-101v-199h100c30 0 53.833 8.66699 71.5 26s26.5 43 26.5 77zM207.999 -255.001l32 99h-29v117h116v-114l-62 -102h-57z" />
    <glyph glyph-name="rcommaaccent" unicode="&#x157;" horiz-adv-x="338" 
d="M259 391c-28 0 -50.166 -7.50098 -66.499 -22.501s-24.5 -39.167 -24.5 -72.5v-297h-111v496h110v-57l3 -1c13.333 24 29.666 40.5 48.999 49.5s41 13.5 65 13.5c10 0 19.333 -0.833008 28 -2.5s16.667 -5.16699 24 -10.5l-22 -108
c-9.33301 4.66699 -18.5 7.83398 -27.5 9.50098s-18.167 2.5 -27.5 2.5zM51.001 -275.001l32 99h-29v117h116v-114l-62 -102h-57z" />
    <glyph glyph-name="Rcaron" unicode="&#x158;" horiz-adv-x="528" 
d="M370 0l-104.001 290h-89v-290h-114v696h224c28.667 0 55.334 -4.16699 80.001 -12.5s45.834 -20.833 63.501 -37.5s31.5 -37.5 41.5 -62.5s15 -54.167 15 -87.5c0 -44 -9.33301 -82 -28 -114s-46.334 -56.333 -83.001 -73l119 -309h-125zM374.999 496
c0 32.667 -8.33301 56.833 -25 72.5s-40.667 23.5 -72 23.5h-101v-199h100c30 0 53.833 8.66699 71.5 26s26.5 43 26.5 77zM367.999 900.999l42 -44l-137 -126h-70l-140 127l41 43l132 -80z" />
    <glyph glyph-name="rcaron" unicode="&#x159;" horiz-adv-x="338" 
d="M259 391c-28 0 -50.166 -7.50098 -66.499 -22.501s-24.5 -39.167 -24.5 -72.5v-297h-111v496h110v-57l3 -1c13.333 24 29.666 40.5 48.999 49.5s41 13.5 65 13.5c10 0 19.333 -0.833008 28 -2.5s16.667 -5.16699 24 -10.5l-22 -108
c-9.33301 4.66699 -18.5 7.83398 -27.5 9.50098s-18.167 2.5 -27.5 2.5zM299.001 726.999l46 -41l-136 -151h-71l-141 152l46 40l23 -17.5l40.5 -31.5l40.5 -32c12.667 -10 20.667 -16 24 -18z" />
    <glyph glyph-name="Sacute" unicode="&#x15a;" horiz-adv-x="504" 
d="M474 198c0 -63.333 -19.333 -113.165 -58 -149.498s-93.334 -54.5 -164.001 -54.5c-56 0 -102.333 11.167 -139 33.5s-65.334 51.166 -86.001 86.499l94 68c15.333 -24 33.666 -43.167 54.999 -57.5s47.333 -21.5 78 -21.5c36.667 0 62.5 8.83301 77.5 26.5
s22.5 39.5 22.5 65.5c0 16 -3 29.667 -9 41s-14.333 21.166 -25 29.499s-23.667 15.5 -39 21.5s-32 11.667 -50 17c-33.333 10.667 -61.666 22 -84.999 34s-42.5 25.833 -57.5 41.5s-25.833 33.667 -32.5 54s-10 43.5 -10 69.5c0 28.667 5 55.167 15 79.5
s24.333 45.333 43 63s40.834 31.334 66.501 41.001s54.5 14.5 86.5 14.5c52 0 94.167 -8.66699 126.5 -26s58.166 -41 77.499 -71l-87 -73c-15.333 21.333 -32.666 37 -51.999 47s-41.666 15 -66.999 15c-30 0 -53 -8.16699 -69 -24.5s-24 -36.833 -24 -61.5
c0 -14 3.66699 -26.167 11 -36.5s17.333 -19.5 30 -27.5s27.667 -15.167 45 -21.5s35.666 -12.5 54.999 -18.5c32.667 -10 59.834 -21.5 81.501 -34.5s39.167 -27.833 52.5 -44.5s22.833 -35.334 28.5 -56.001s8.5 -44 8.5 -70zM180 780.001l159 124l69 -80l-185 -98z" />
    <glyph glyph-name="sacute" unicode="&#x15b;" horiz-adv-x="424" 
d="M395 147c0 -46 -16.333 -83 -49 -111s-77.667 -42 -135 -42c-44 0 -81 7.83301 -111 23.5s-54.667 40.167 -74 73.5l82 60c22.667 -39.333 56.667 -59 102 -59c22.667 0 40.5 5 53.5 15s19.5 23.667 19.5 41c0 18 -6.16699 30.667 -18.5 38s-29.5 13.666 -51.5 18.999
c-23.333 5.33301 -45.5 11.5 -66.5 18.5s-39.5 16 -55.5 27s-28.833 24.833 -38.5 41.5s-14.5 37 -14.5 61c0 22.667 4.5 43.167 13.5 61.5s21.167 33.833 36.5 46.5s33.666 22.334 54.999 29.001s44.333 10 69 10c44.667 0 80.5 -7.5 107.5 -22.5s48.833 -35.5 65.5 -61.5
l-74 -64c-22 34 -54 51 -96 51c-24.667 0 -41.834 -5.16699 -51.501 -15.5s-14.5 -21.5 -14.5 -33.5c0 -8 2.5 -14.833 7.5 -20.5s11.833 -10.5 20.5 -14.5s18.334 -7.5 29.001 -10.5s21.667 -5.83301 33 -8.5c22.667 -5.33301 43.667 -11.5 63 -18.5
s35.833 -16.333 49.5 -28s24.334 -26.167 32.001 -43.5s11.5 -38.333 11.5 -63zM152 571l82 184l98 -37l-116 -175z" />
    <glyph glyph-name="Scircumflex" unicode="&#x15c;" horiz-adv-x="504" 
d="M474 198c0 -63.333 -19.333 -113.165 -58 -149.498s-93.334 -54.5 -164.001 -54.5c-56 0 -102.333 11.167 -139 33.5s-65.334 51.166 -86.001 86.499l94 68c15.333 -24 33.666 -43.167 54.999 -57.5s47.333 -21.5 78 -21.5c36.667 0 62.5 8.83301 77.5 26.5
s22.5 39.5 22.5 65.5c0 16 -3 29.667 -9 41s-14.333 21.166 -25 29.499s-23.667 15.5 -39 21.5s-32 11.667 -50 17c-33.333 10.667 -61.666 22 -84.999 34s-42.5 25.833 -57.5 41.5s-25.833 33.667 -32.5 54s-10 43.5 -10 69.5c0 28.667 5 55.167 15 79.5
s24.333 45.333 43 63s40.834 31.334 66.501 41.001s54.5 14.5 86.5 14.5c52 0 94.167 -8.66699 126.5 -26s58.166 -41 77.499 -71l-87 -73c-15.333 21.333 -32.666 37 -51.999 47s-41.666 15 -66.999 15c-30 0 -53 -8.16699 -69 -24.5s-24 -36.833 -24 -61.5
c0 -14 3.66699 -26.167 11 -36.5s17.333 -19.5 30 -27.5s27.667 -15.167 45 -21.5s35.666 -12.5 54.999 -18.5c32.667 -10 59.834 -21.5 81.501 -34.5s39.167 -27.833 52.5 -44.5s22.833 -35.334 28.5 -56.001s8.5 -44 8.5 -70zM255 808.001l-132 -80l-41 44l141 127h69
l137 -126l-42 -45z" />
    <glyph glyph-name="scircumflex" unicode="&#x15d;" horiz-adv-x="424" 
d="M395 147c0 -46 -16.333 -83 -49 -111s-77.667 -42 -135 -42c-44 0 -81 7.83301 -111 23.5s-54.667 40.167 -74 73.5l82 60c22.667 -39.333 56.667 -59 102 -59c22.667 0 40.5 5 53.5 15s19.5 23.667 19.5 41c0 18 -6.16699 30.667 -18.5 38s-29.5 13.666 -51.5 18.999
c-23.333 5.33301 -45.5 11.5 -66.5 18.5s-39.5 16 -55.5 27s-28.833 24.833 -38.5 41.5s-14.5 37 -14.5 61c0 22.667 4.5 43.167 13.5 61.5s21.167 33.833 36.5 46.5s33.666 22.334 54.999 29.001s44.333 10 69 10c44.667 0 80.5 -7.5 107.5 -22.5s48.833 -35.5 65.5 -61.5
l-74 -64c-22 34 -54 51 -96 51c-24.667 0 -41.834 -5.16699 -51.501 -15.5s-14.5 -21.5 -14.5 -33.5c0 -8 2.5 -14.833 7.5 -20.5s11.833 -10.5 20.5 -14.5s18.334 -7.5 29.001 -10.5s21.667 -5.83301 33 -8.5c22.667 -5.33301 43.667 -11.5 63 -18.5
s35.833 -16.333 49.5 -28s24.334 -26.167 32.001 -43.5s11.5 -38.333 11.5 -63zM215 635c-3.33301 -2 -11.167 -8 -23.5 -18l-40.5 -32.5l-41 -32l-23 -17.5l-45 40l141 152h71l135 -150l-46 -42z" />
    <glyph glyph-name="Scedilla" unicode="&#x15e;" horiz-adv-x="504" 
d="M474 198c0 -60.667 -18.002 -108.999 -54.002 -144.999s-86.667 -55.333 -152 -58l-11 -36c17.333 -2 31.833 -6 43.5 -12s21 -13 28 -21s12 -16.667 15 -26s4.5 -18 4.5 -26c0 -10 -1.83301 -20 -5.5 -30s-9.66699 -19 -18 -27s-18.833 -14.5 -31.5 -19.5
s-28 -7.5 -46 -7.5c-11.333 0 -26.5 1.16699 -45.5 3.5s-36.5 7.83301 -52.5 16.5c3.33301 8 6.5 16.167 9.5 24.5s6.16699 16.5 9.5 24.5c14 -7.33301 26.333 -11.666 37 -12.999s20.667 -2 30 -2c11.333 0 20.833 3.16699 28.5 9.5s11.5 14.166 11.5 23.499
c0 11.333 -3.83301 19.833 -11.5 25.5s-17.5 8.5 -29.5 8.5c-5.33301 0 -9.33301 -0.333008 -12 -1l-13.5 9.5l-13.5 9.5l20 67c-46 4.66699 -84.167 17.5 -114.5 38.5s-54.833 47.5 -73.5 79.5l94 68c15.333 -24 33.666 -43.167 54.999 -57.5s47.333 -21.5 78 -21.5
c36.667 0 62.5 8.83301 77.5 26.5s22.5 39.5 22.5 65.5c0 16 -3 29.667 -9 41s-14.333 21.166 -25 29.499s-23.667 15.5 -39 21.5s-32 11.667 -50 17c-33.333 10.667 -61.666 22 -84.999 34s-42.5 25.833 -57.5 41.5s-25.833 33.667 -32.5 54s-10 43.5 -10 69.5
c0 28.667 5 55.167 15 79.5s24.333 45.333 43 63s40.834 31.334 66.501 41.001s54.5 14.5 86.5 14.5c52 0 94.167 -8.66699 126.5 -26s58.166 -41 77.499 -71l-87 -73c-15.333 21.333 -32.666 37 -51.999 47s-41.666 15 -66.999 15c-30 0 -53 -8.16699 -69 -24.5
s-24 -36.833 -24 -61.5c0 -14 3.66699 -26.167 11 -36.5s17.333 -19.5 30 -27.5s27.667 -15.167 45 -21.5s35.666 -12.5 54.999 -18.5c32.667 -10 59.834 -21.5 81.501 -34.5s39.167 -27.833 52.5 -44.5s22.833 -35.334 28.5 -56.001s8.5 -44 8.5 -70z" />
    <glyph glyph-name="scedilla" unicode="&#x15f;" horiz-adv-x="424" 
d="M395 147c0 -42.667 -13.832 -77.499 -41.499 -104.499s-66.167 -42.833 -115.5 -47.5l-12 -36c17.333 -2 31.833 -6 43.5 -12s21 -13 28 -21s12 -16.667 15 -26s4.5 -18 4.5 -26c0 -10 -1.83301 -20 -5.5 -30s-9.66699 -19 -18 -27s-18.833 -14.5 -31.5 -19.5
s-28 -7.5 -46 -7.5c-11.333 0 -26.5 1.16699 -45.5 3.5s-36.5 7.83301 -52.5 16.5c3.33301 8 6.5 16.167 9.5 24.5s6.16699 16.5 9.5 24.5c14 -7.33301 26.333 -11.666 37 -12.999s20.667 -2 30 -2c11.333 0 20.833 3.16699 28.5 9.5s11.5 14.166 11.5 23.499
c0 11.333 -3.83301 19.833 -11.5 25.5s-17.5 8.5 -29.5 8.5c-5.33301 0 -9.33301 -0.333008 -12 -1l-13.5 9.5l-13.5 9.5l20 66c-36.667 3.33301 -67.834 12.666 -93.501 27.999s-47.167 38 -64.5 68l82 60c22.667 -39.333 56.667 -59 102 -59c22.667 0 40.5 5 53.5 15
s19.5 23.667 19.5 41c0 18 -6.16699 30.667 -18.5 38s-29.5 13.666 -51.5 18.999c-23.333 5.33301 -45.5 11.5 -66.5 18.5s-39.5 16 -55.5 27s-28.833 24.833 -38.5 41.5s-14.5 37 -14.5 61c0 22.667 4.5 43.167 13.5 61.5s21.167 33.833 36.5 46.5
s33.666 22.334 54.999 29.001s44.333 10 69 10c44.667 0 80.5 -7.5 107.5 -22.5s48.833 -35.5 65.5 -61.5l-74 -64c-22 34 -54 51 -96 51c-24.667 0 -41.834 -5.16699 -51.501 -15.5s-14.5 -21.5 -14.5 -33.5c0 -8 2.5 -14.833 7.5 -20.5s11.833 -10.5 20.5 -14.5
s18.334 -7.5 29.001 -10.5s21.667 -5.83301 33 -8.5c22.667 -5.33301 43.667 -11.5 63 -18.5s35.833 -16.333 49.5 -28s24.334 -26.167 32.001 -43.5s11.5 -38.333 11.5 -63z" />
    <glyph glyph-name="Scaron" unicode="&#x160;" horiz-adv-x="504" 
d="M474 198c0 -63.333 -19.333 -113.165 -58 -149.498s-93.334 -54.5 -164.001 -54.5c-56 0 -102.333 11.167 -139 33.5s-65.334 51.166 -86.001 86.499l94 68c15.333 -24 33.666 -43.167 54.999 -57.5s47.333 -21.5 78 -21.5c36.667 0 62.5 8.83301 77.5 26.5
s22.5 39.5 22.5 65.5c0 16 -3 29.667 -9 41s-14.333 21.166 -25 29.499s-23.667 15.5 -39 21.5s-32 11.667 -50 17c-33.333 10.667 -61.666 22 -84.999 34s-42.5 25.833 -57.5 41.5s-25.833 33.667 -32.5 54s-10 43.5 -10 69.5c0 28.667 5 55.167 15 79.5
s24.333 45.333 43 63s40.834 31.334 66.501 41.001s54.5 14.5 86.5 14.5c52 0 94.167 -8.66699 126.5 -26s58.166 -41 77.499 -71l-87 -73c-15.333 21.333 -32.666 37 -51.999 47s-41.666 15 -66.999 15c-30 0 -53 -8.16699 -69 -24.5s-24 -36.833 -24 -61.5
c0 -14 3.66699 -26.167 11 -36.5s17.333 -19.5 30 -27.5s27.667 -15.167 45 -21.5s35.666 -12.5 54.999 -18.5c32.667 -10 59.834 -21.5 81.501 -34.5s39.167 -27.833 52.5 -44.5s22.833 -35.334 28.5 -56.001s8.5 -44 8.5 -70zM379 901.001l42 -44l-137 -126h-70l-140 127
l41 43l132 -80z" />
    <glyph glyph-name="scaron" unicode="&#x161;" horiz-adv-x="424" 
d="M395 147c0 -46 -16.333 -83 -49 -111s-77.667 -42 -135 -42c-44 0 -81 7.83301 -111 23.5s-54.667 40.167 -74 73.5l82 60c22.667 -39.333 56.667 -59 102 -59c22.667 0 40.5 5 53.5 15s19.5 23.667 19.5 41c0 18 -6.16699 30.667 -18.5 38s-29.5 13.666 -51.5 18.999
c-23.333 5.33301 -45.5 11.5 -66.5 18.5s-39.5 16 -55.5 27s-28.833 24.833 -38.5 41.5s-14.5 37 -14.5 61c0 22.667 4.5 43.167 13.5 61.5s21.167 33.833 36.5 46.5s33.666 22.334 54.999 29.001s44.333 10 69 10c44.667 0 80.5 -7.5 107.5 -22.5s48.833 -35.5 65.5 -61.5
l-74 -64c-22 34 -54 51 -96 51c-24.667 0 -41.834 -5.16699 -51.501 -15.5s-14.5 -21.5 -14.5 -33.5c0 -8 2.5 -14.833 7.5 -20.5s11.833 -10.5 20.5 -14.5s18.334 -7.5 29.001 -10.5s21.667 -5.83301 33 -8.5c22.667 -5.33301 43.667 -11.5 63 -18.5
s35.833 -16.333 49.5 -28s24.334 -26.167 32.001 -43.5s11.5 -38.333 11.5 -63zM337 727l46 -41l-136 -151h-71l-141 152l46 40l23 -17.5l40.5 -31.5l40.5 -32c12.667 -10 20.667 -16 24 -18z" />
    <glyph glyph-name="Tcommaaccent" unicode="&#x162;" horiz-adv-x="431" 
d="M271 592v-592h-114v592h-153v104h421v-104h-154zM156 -275l32 99h-29v117h116v-114l-62 -102h-57z" />
    <glyph glyph-name="tcommaaccent" unicode="&#x163;" horiz-adv-x="277" 
d="M196 0c-41.333 0 -72.332 11.667 -92.999 35s-31 52 -31 86v286h-52v88h52v130h108v-130h68v-88h-68v-253c0 -17.333 3.66699 -30.833 11 -40.5s19.666 -14.5 36.999 -14.5h24v-99h-56zM79.001 -275l32 99h-29v117h116v-114l-62 -102h-57z" />
    <glyph glyph-name="Tcaron" unicode="&#x164;" horiz-adv-x="431" 
d="M271 592v-592h-114v592h-153v104h421v-104h-154zM349 901l42 -44l-137 -126h-70l-140 127l41 43l132 -80z" />
    <glyph glyph-name="tcaron" unicode="&#x165;" horiz-adv-x="349" 
d="M230 554l32 99h-29v117h116v-114l-62 -102h-57zM196 0c-41.333 0 -72.332 11.667 -92.999 35s-31 52 -31 86v286h-52v88h52v130h108v-130h68v-88h-68v-253c0 -17.333 3.66699 -30.833 11 -40.5s19.666 -14.5 36.999 -14.5h24v-99h-56z" />
    <glyph glyph-name="Tbar" unicode="&#x166;" horiz-adv-x="431" 
d="M271 592v-193h125v-80h-125v-319h-114v319h-120v80h120v193h-153v104h421v-104h-154z" />
    <glyph glyph-name="tbar" unicode="&#x167;" horiz-adv-x="277" 
d="M196 0c-41.333 0 -72.332 11.667 -92.999 35s-31 52 -31 86v129h-52v73h52v84h-52v88h52v130h108v-130h68v-88h-68v-84h68v-73h-68v-96c0 -17.333 3.66699 -30.833 11 -40.5s19.666 -14.5 36.999 -14.5h24v-99h-56z" />
    <glyph glyph-name="Utilde" unicode="&#x168;" horiz-adv-x="535" 
d="M482 696v-484.999c0 -33.333 -5.16699 -63.5 -15.5 -90.5s-25 -49.833 -44 -68.5s-41.5 -33 -67.5 -43s-54.667 -15 -86 -15c-36 0 -67.5 5.83301 -94.5 17.5s-49.333 27.5 -67 47.5s-31 43.5 -40 70.5s-13.5 55.833 -13.5 86.5v480h114v-483c0 -30 8.5 -55.667 25.5 -77
s42.167 -32 75.5 -32c28 0 51.167 9.16699 69.5 27.5s27.5 43.166 27.5 74.499v490h116zM206 866.001c11.333 0 22.3359 -2.16797 33.0029 -6.50098s21.167 -9.16602 31.5 -14.499s20.166 -10.166 29.499 -14.499s18 -6.5 26 -6.5c10 0 19.5 3.33301 28.5 10
s19.167 17.667 30.5 33l56 -33c-15.333 -32.667 -31.833 -56.334 -49.5 -71.001s-36.5 -22 -56.5 -22c-12 0 -23.5 2.16699 -34.5 6.5s-21.667 9 -32 14l-30 14c-9.66699 4.33301 -18.834 6.5 -27.501 6.5c-10 0 -19.833 -3 -29.5 -9s-20.5 -16.667 -32.5 -32l-27 16l-27 16
c13.333 30 29.666 53 48.999 69s40 24 62 24z" />
    <glyph glyph-name="utilde" unicode="&#x169;" horiz-adv-x="462" 
d="M301 0l0.00195312 45.999c-0.666992 0 -1.33398 0.166992 -2.00098 0.5s-1.33398 0.5 -2.00098 0.5c-12.667 -16.667 -28.5 -29.5 -47.5 -38.5s-38.5 -13.5 -58.5 -13.5c-45.333 0 -80.333 13.333 -105 40s-37 63.334 -37 110.001v349h110v-318
c0 -24.667 6.83301 -43.667 20.5 -57s30.167 -20 49.5 -20c26 0 44.5 9.5 55.5 28.5s16.5 44.5 16.5 76.5v290h110v-494h-110zM164.002 693.999c11.333 0 22.3359 -2.16797 33.0029 -6.50098s21.167 -9.16602 31.5 -14.499s20.166 -10.166 29.499 -14.499s18 -6.5 26 -6.5
c10 0 19.5 3.33301 28.5 10s19.167 17.667 30.5 33l56 -33c-15.333 -32.667 -31.833 -56.334 -49.5 -71.001s-36.5 -22 -56.5 -22c-12 0 -23.5 2.16699 -34.5 6.5s-21.667 9 -32 14l-30 14c-9.66699 4.33301 -18.834 6.5 -27.501 6.5c-10 0 -19.833 -3 -29.5 -9
s-20.5 -16.667 -32.5 -32l-27 16l-27 16c13.333 30 29.666 53 48.999 69s40 24 62 24z" />
    <glyph glyph-name="Umacron" unicode="&#x16a;" horiz-adv-x="535" 
d="M482 696v-484.999c0 -33.333 -5.16699 -63.5 -15.5 -90.5s-25 -49.833 -44 -68.5s-41.5 -33 -67.5 -43s-54.667 -15 -86 -15c-36 0 -67.5 5.83301 -94.5 17.5s-49.333 27.5 -67 47.5s-31 43.5 -40 70.5s-13.5 55.833 -13.5 86.5v480h114v-483c0 -30 8.5 -55.667 25.5 -77
s42.167 -32 75.5 -32c28 0 51.167 9.16699 69.5 27.5s27.5 43.166 27.5 74.499v490h116zM135 757.001v95h270v-95h-270z" />
    <glyph glyph-name="umacron" unicode="&#x16b;" horiz-adv-x="462" 
d="M301 0l0.00195312 45.999c-0.666992 0 -1.33398 0.166992 -2.00098 0.5s-1.33398 0.5 -2.00098 0.5c-12.667 -16.667 -28.5 -29.5 -47.5 -38.5s-38.5 -13.5 -58.5 -13.5c-45.333 0 -80.333 13.333 -105 40s-37 63.334 -37 110.001v349h110v-318
c0 -24.667 6.83301 -43.667 20.5 -57s30.167 -20 49.5 -20c26 0 44.5 9.5 55.5 28.5s16.5 44.5 16.5 76.5v290h110v-494h-110zM97.002 579.999v95h271v-95h-271z" />
    <glyph glyph-name="Ubreve" unicode="&#x16c;" horiz-adv-x="535" 
d="M482 696v-484.999c0 -33.333 -5.16699 -63.5 -15.5 -90.5s-25 -49.833 -44 -68.5s-41.5 -33 -67.5 -43s-54.667 -15 -86 -15c-36 0 -67.5 5.83301 -94.5 17.5s-49.333 27.5 -67 47.5s-31 43.5 -40 70.5s-13.5 55.833 -13.5 86.5v480h114v-483c0 -30 8.5 -55.667 25.5 -77
s42.167 -32 75.5 -32c28 0 51.167 9.16699 69.5 27.5s27.5 43.166 27.5 74.499v490h116zM274 725.001c-28 0 -51.5 5 -70.5 15s-34.333 22.333 -46 37s-20.167 30.667 -25.5 48s-8.33301 33.333 -9 48h86c0.666992 -7.33301 2.5 -14.833 5.5 -22.5
s7.33301 -14.834 13 -21.501s12.334 -12.167 20.001 -16.5s16.5 -6.5 26.5 -6.5c10.667 0 20 2.16699 28 6.5s14.667 9.83301 20 16.5s9.33301 13.834 12 21.501s4 15.167 4 22.5h85c-1.33301 -14.667 -4.83301 -30.667 -10.5 -48s-14.167 -33.333 -25.5 -48
s-26.333 -27 -45 -37s-41.334 -15 -68.001 -15z" />
    <glyph glyph-name="ubreve" unicode="&#x16d;" horiz-adv-x="462" 
d="M301 0l0.00195312 45.999c-0.666992 0 -1.33398 0.166992 -2.00098 0.5s-1.33398 0.5 -2.00098 0.5c-12.667 -16.667 -28.5 -29.5 -47.5 -38.5s-38.5 -13.5 -58.5 -13.5c-45.333 0 -80.333 13.333 -105 40s-37 63.334 -37 110.001v349h110v-318
c0 -24.667 6.83301 -43.667 20.5 -57s30.167 -20 49.5 -20c26 0 44.5 9.5 55.5 28.5s16.5 44.5 16.5 76.5v290h110v-494h-110zM236.002 556.999c-28 0 -51.5 5 -70.5 15s-34.333 22.333 -46 37s-20.167 30.667 -25.5 48s-8.33301 33.333 -9 48h86
c0.666992 -7.33301 2.5 -14.833 5.5 -22.5s7.33301 -14.834 13 -21.501s12.334 -12.167 20.001 -16.5s16.5 -6.5 26.5 -6.5c10.667 0 20 2.16699 28 6.5s14.667 9.83301 20 16.5s9.33301 13.834 12 21.501s4 15.167 4 22.5h85c-1.33301 -14.667 -4.83301 -30.667 -10.5 -48
s-14.167 -33.333 -25.5 -48s-26.333 -27 -45 -37s-41.334 -15 -68.001 -15z" />
    <glyph glyph-name="Uring" unicode="&#x16e;" horiz-adv-x="535" 
d="M482 696v-484.999c0 -33.333 -5.16699 -63.5 -15.5 -90.5s-25 -49.833 -44 -68.5s-41.5 -33 -67.5 -43s-54.667 -15 -86 -15c-36 0 -67.5 5.83301 -94.5 17.5s-49.333 27.5 -67 47.5s-31 43.5 -40 70.5s-13.5 55.833 -13.5 86.5v480h114v-483c0 -30 8.5 -55.667 25.5 -77
s42.167 -32 75.5 -32c28 0 51.167 9.16699 69.5 27.5s27.5 43.166 27.5 74.499v490h116zM308 807.001c0 11.333 -3.83301 20.666 -11.5 27.999s-17.167 11 -28.5 11s-21 -3.66699 -29 -11s-12 -16.666 -12 -27.999c0 -10.667 4 -19.667 12 -27s17.667 -11 29 -11
s20.833 3.66699 28.5 11s11.5 16.333 11.5 27zM167 807.001c0 13.333 2.66699 26 8 38s12.5 22.5 21.5 31.5s19.667 16 32 21s25.5 7.5 39.5 7.5c28 0 51.5 -9.5 70.5 -28.5s28.5 -42.167 28.5 -69.5c0 -13.333 -2.5 -25.833 -7.5 -37.5s-12 -21.834 -21 -30.501
s-19.5 -15.5 -31.5 -20.5s-25 -7.5 -39 -7.5s-27.167 2.5 -39.5 7.5s-23 11.833 -32 20.5s-16.167 18.834 -21.5 30.501s-8 24.167 -8 37.5z" />
    <glyph glyph-name="uring" unicode="&#x16f;" horiz-adv-x="462" 
d="M301 0l0.00195312 45.999c-0.666992 0 -1.33398 0.166992 -2.00098 0.5s-1.33398 0.5 -2.00098 0.5c-12.667 -16.667 -28.5 -29.5 -47.5 -38.5s-38.5 -13.5 -58.5 -13.5c-45.333 0 -80.333 13.333 -105 40s-37 63.334 -37 110.001v349h110v-318
c0 -24.667 6.83301 -43.667 20.5 -57s30.167 -20 49.5 -20c26 0 44.5 9.5 55.5 28.5s16.5 44.5 16.5 76.5v290h110v-494h-110zM276.002 632.999c0 11.333 -3.83301 20.666 -11.5 27.999s-17.167 11 -28.5 11s-21 -3.66699 -29 -11s-12 -16.666 -12 -27.999
c0 -10.667 4 -19.667 12 -27s17.667 -11 29 -11s20.833 3.66699 28.5 11s11.5 16.333 11.5 27zM135.002 632.999c0 13.333 2.66699 26 8 38s12.5 22.5 21.5 31.5s19.667 16 32 21s25.5 7.5 39.5 7.5c28 0 51.5 -9.5 70.5 -28.5s28.5 -42.167 28.5 -69.5
c0 -13.333 -2.5 -25.833 -7.5 -37.5s-12 -21.834 -21 -30.501s-19.5 -15.5 -31.5 -20.5s-25 -7.5 -39 -7.5s-27.167 2.5 -39.5 7.5s-23 11.833 -32 20.5s-16.167 18.834 -21.5 30.501s-8 24.167 -8 37.5z" />
    <glyph glyph-name="Uhungarumlaut" unicode="&#x170;" horiz-adv-x="535" 
d="M482 696v-484.999c0 -33.333 -5.16699 -63.5 -15.5 -90.5s-25 -49.833 -44 -68.5s-41.5 -33 -67.5 -43s-54.667 -15 -86 -15c-36 0 -67.5 5.83301 -94.5 17.5s-49.333 27.5 -67 47.5s-31 43.5 -40 70.5s-13.5 55.833 -13.5 86.5v480h114v-483c0 -30 8.5 -55.667 25.5 -77
s42.167 -32 75.5 -32c28 0 51.167 9.16699 69.5 27.5s27.5 43.166 27.5 74.499v490h116zM104 774.001l152 132l73 -72l-179 -111zM292 775.001l154 130l71 -72l-179 -109z" />
    <glyph glyph-name="uhungarumlaut" unicode="&#x171;" horiz-adv-x="462" 
d="M301 0l0.00195312 45.999c-0.666992 0 -1.33398 0.166992 -2.00098 0.5s-1.33398 0.5 -2.00098 0.5c-12.667 -16.667 -28.5 -29.5 -47.5 -38.5s-38.5 -13.5 -58.5 -13.5c-45.333 0 -80.333 13.333 -105 40s-37 63.334 -37 110.001v349h110v-318
c0 -24.667 6.83301 -43.667 20.5 -57s30.167 -20 49.5 -20c26 0 44.5 9.5 55.5 28.5s16.5 44.5 16.5 76.5v290h110v-494h-110zM101.002 577.999l82 184l98 -36l-117 -176zM245.002 570.999l82 184l98 -37l-117 -175z" />
    <glyph glyph-name="Uogonek" unicode="&#x172;" horiz-adv-x="535" 
d="M198 -100c0 13.333 2.66992 27.835 8.00293 43.502s14.666 33.167 27.999 52.5c-30 4 -56.333 12.333 -79 25s-41.5 28.667 -56.5 48s-26.167 41.666 -33.5 66.999s-11 52 -11 80v480h114v-483c0 -30 8.5 -55.667 25.5 -77s42.167 -32 75.5 -32
c28 0 51.167 9.16699 69.5 27.5s27.5 43.166 27.5 74.499v490h116v-485c0 -60.667 -16.167 -109.667 -48.5 -147s-74.833 -59.666 -127.5 -66.999c-10.667 -16 -18.667 -30.167 -24 -42.5s-8 -23.5 -8 -33.5c0 -15.333 3.16699 -26.833 9.5 -34.5s17.166 -11.5 32.499 -11.5
c7.33301 0 15.666 1.16699 24.999 3.5s20.333 6.16602 33 11.499l22 -57c-14.667 -8 -30.5 -14.5 -47.5 -19.5s-33.833 -7.5 -50.5 -7.5c-29.333 0 -53.333 9 -72 27s-28 40.333 -28 67z" />
    <glyph glyph-name="uogonek" unicode="&#x173;" horiz-adv-x="462" 
d="M262 -98c0 13.333 3.00391 28.333 9.00391 45s16 35 30 55v44c-0.666992 0 -1.33398 0.166992 -2.00098 0.5s-1.33398 0.5 -2.00098 0.5c-12.667 -16.667 -28.5 -29.5 -47.5 -38.5s-38.5 -13.5 -58.5 -13.5c-45.333 0 -80.333 13.333 -105 40s-37 63.334 -37 110.001v349
h110v-318c0 -24.667 6.83301 -43.667 20.5 -57s30.167 -20 49.5 -20c26 0 44.5 9.5 55.5 28.5s16.5 44.5 16.5 76.5v290h110v-494h-40c-22 -32 -33 -57.667 -33 -77c0 -15.333 3.16699 -26.833 9.5 -34.5s17.166 -11.5 32.499 -11.5c7.33301 0 15.666 1.16699 24.999 3.5
s20.333 6.16602 33 11.499l22 -57c-14.667 -8 -30.5 -14.5 -47.5 -19.5s-33.833 -7.5 -50.5 -7.5c-29.333 0 -53.333 9 -72 27s-28 40.333 -28 67z" />
    <glyph glyph-name="Wcircumflex" unicode="&#x174;" horiz-adv-x="725" 
d="M571 0l-101.998 0.000976562c-11.333 50 -23.333 100.167 -36 150.5s-24.667 100.833 -36 151.5l-33 145h-3l-16 -72l-16 -72c-11.333 -50.667 -23.5 -101.334 -36.5 -152.001s-25.167 -101 -36.5 -151h-102l-143 695h123c8 -48 16.333 -95.5 25 -142.5
s17 -94.5 25 -142.5c5.33301 -28 10 -56.167 14 -84.5s8.33301 -56.5 13 -84.5h4c4.66699 21.333 9.16699 43 13.5 65s9.16602 43.667 14.499 65l37 162l37 162h92l75 -326l13.5 -65c4.33301 -21.333 9.16602 -43 14.499 -65h4l25 166l26.5 157l22.5 133h123z
M360.002 808.001l-132 -80l-41 44l141 127h69l137 -126l-42 -45z" />
    <glyph glyph-name="wcircumflex" unicode="&#x175;" horiz-adv-x="652" 
d="M642 495l-65.999 -247.498l-67 -247.5h-107l-30 115l-46 185h-3c-7.33301 -28 -14.333 -57 -21 -87s-13.667 -58.333 -21 -85l-18.5 -70.5l-14.5 -57.5h-108l-66 247.5l-67 247.5h118l32 -152l18 -87c6 -28.667 12.667 -57.667 20 -87h4
c7.33301 29.333 14.166 58 20.499 86l20.5 87l18 76.5c6 25.667 11.667 51.167 17 76.5h101l31 -138l46 -191h4c2 6.66699 3.83301 13.667 5.5 21l6.5 30l10 49l16 77c5.33301 25.333 10.333 50.666 15 75.999s10 50.666 16 75.999h116zM322.001 635.002
c-3.33301 -2 -11.167 -8 -23.5 -18l-40.5 -32.5l-41 -32l-23 -17.5l-45 40l141 152h71l135 -150l-46 -42z" />
    <glyph glyph-name="Ycircumflex" unicode="&#x176;" horiz-adv-x="476" 
d="M241 404c7.33301 22.667 15.001 45.001 23.001 67.001l24 67l61 158h121l-176 -412v-284h-112v284l-176 413h124l30.5 -81c10.333 -26.667 20.166 -53.334 29.499 -80.001l22.5 -66l22.5 -66h6zM240.001 808.001l-132 -80l-41 44l141 127h69l137 -126l-42 -45z" />
    <glyph glyph-name="ycircumflex" unicode="&#x177;" horiz-adv-x="413" 
d="M230 -93c-11.333 -37.333 -29.167 -64.667 -53.5 -82s-53.5 -26 -87.5 -26h-37v95h26c29.333 0 49.333 20.333 60 61l18 64l-155 476h118l48 -179l39 -152h4l38 152l48 179h116zM203.999 634.999c-3.33301 -2 -11.167 -8 -23.5 -18l-40.5 -32.5l-41 -32l-23 -17.5l-45 40
l141 152h71l135 -150l-46 -42z" />
    <glyph glyph-name="Ydieresis" unicode="&#x178;" horiz-adv-x="476" 
d="M241 404c7.33301 22.667 15.001 45.001 23.001 67.001l24 67l61 158h121l-176 -412v-284h-112v284l-176 413h124l30.5 -81c10.333 -26.667 20.166 -53.334 29.499 -80.001l22.5 -66l22.5 -66h6zM95.001 742.001v108h108v-108h-108zM277.001 742.001v108h106v-108h-106z
" />
    <glyph glyph-name="Zacute" unicode="&#x179;" horiz-adv-x="434" 
d="M26 0v102l253 490h-242v104h372v-97l-253 -491h253v-108h-383zM143 780l159 124l69 -80l-185 -98z" />
    <glyph glyph-name="zacute" unicode="&#x17a;" horiz-adv-x="389" 
d="M28 0v96l203 302h-189v97h318v-92l-203 -301h203v-102h-332zM153 571l82 184l98 -37l-116 -175z" />
    <glyph glyph-name="Zdotaccent" unicode="&#x17b;" horiz-adv-x="434" 
d="M26 0v102l253 490h-242v104h372v-97l-253 -491h253v-108h-383zM174 750v108h106v-108h-106z" />
    <glyph glyph-name="zdotaccent" unicode="&#x17c;" horiz-adv-x="389" 
d="M28 0v96l203 302h-189v97h318v-92l-203 -301h203v-102h-332zM157 575v108h106v-108h-106z" />
    <glyph glyph-name="Zcaron" unicode="&#x17d;" horiz-adv-x="434" 
d="M26 0v102l253 490h-242v104h372v-97l-253 -491h253v-108h-383zM359 901l42 -44l-137 -126h-70l-140 127l41 43l132 -80z" />
    <glyph glyph-name="zcaron" unicode="&#x17e;" horiz-adv-x="389" 
d="M28 0v96l203 302h-189v97h318v-92l-203 -301h203v-102h-332zM326 727l46 -41l-136 -151h-71l-141 152l46 40l23 -17.5l40.5 -31.5l40.5 -32c12.667 -10 20.667 -16 24 -18z" />
    <glyph glyph-name="florin" unicode="&#x192;" horiz-adv-x="465" 
d="M106 427h86.9941c0 0.666992 0.5 4.66699 1.5 12l3 23c1 8 2 15.5 3 22.5s1.5 11.167 1.5 12.5c2.66699 24 7.33398 48 14.001 72s16.667 45.667 30 65s30.333 35 51 47s46.667 18 78 18c14.667 0 29.667 -1.33301 45 -4s29 -6.66699 41 -12l-23 -93
c-12 5.33301 -22.833 8.66602 -32.5 9.99902s-19.167 2 -28.5 2c-11.333 0 -20.833 -2.83301 -28.5 -8.5s-14.167 -13.167 -19.5 -22.5s-9.66602 -20.166 -12.999 -32.499s-5.66602 -24.833 -6.99902 -37.5l-10 -74h88v-93h-100l-27 -217
c-4 -31.333 -9.5 -59.833 -16.5 -85.5s-16.667 -47.667 -29 -66s-27.666 -32.5 -45.999 -42.5s-40.5 -15 -66.5 -15c-13.333 0 -29.166 1.83301 -47.499 5.5s-35.166 9.16699 -50.499 16.5l28 87c12.667 -5.33301 23.167 -8.83301 31.5 -10.5s15.833 -2.5 22.5 -2.5
c20.667 0 35.667 9.33301 45 28s16.333 47 21 85l27 217h-72z" />
    <glyph glyph-name="Ohorn" unicode="&#x1a0;" horiz-adv-x="538" 
d="M471 211c0 -33.333 -5.16699 -63.333 -15.5 -90s-25 -49.5 -44 -68.5s-41.5 -33.5 -67.5 -43.5s-54.667 -15 -86 -15c-38 0 -70.667 6.16699 -98 18.5s-49.5 29 -66.5 50s-29.5 45.333 -37.5 73s-12 56.834 -12 87.501v263c0 24.667 3.83301 49.667 11.5 75
s20 48.333 37 69s39 37.667 66 51s60.167 20 99.5 20c32 0 60 -4.83301 84 -14.5s44.667 -22.5 62 -38.5c16.667 3.33301 28.5 12 35.5 26s10.5 36.333 10.5 67v48h89v-61c0 -80.667 -28.333 -131.667 -85 -153c6 -14.667 10.333 -29.334 13 -44.001s4 -29.667 4 -45v-275z
M355 488c0 8.66699 -1.50195 18.8301 -4.50195 30.4971s-8.16699 22.834 -15.5 33.501s-17.166 19.834 -29.499 27.501s-28.166 11.5 -47.499 11.5s-35.5 -3.5 -48.5 -10.5s-23.333 -15.667 -31 -26s-13.167 -21.5 -16.5 -33.5s-5 -23.333 -5 -34l1 -266
c0 -33.333 7.66699 -61.333 23 -84s41.333 -34 78 -34c26 0 48.5 8.83301 67.5 26.5s28.5 41.834 28.5 72.501v286z" />
    <glyph glyph-name="ohorn" unicode="&#x1a1;" horiz-adv-x="489" 
d="M228 502c30.667 0 56.498 -4.66895 77.498 -14.002s38.5 -21.666 52.5 -36.999c16.667 4 28.5 13 35.5 27s10.5 36 10.5 66v47h88v-60c0 -85.333 -31.333 -137.666 -94 -156.999c4 -18 6.83301 -38.167 8.5 -60.5s2.5 -44.833 2.5 -67.5
c0 -26.667 -1.66699 -54.667 -5 -84s-8.66602 -53 -15.999 -71c-7.33301 -18.667 -16.833 -34.167 -28.5 -46.5s-25 -22.333 -40 -30s-31.167 -13.167 -48.5 -16.5s-35 -5 -53 -5c-36 0 -66.167 6.66699 -90.5 20s-43.166 31 -56.499 53c-12 19.333 -20.5 44.333 -25.5 75
s-7.5 65.334 -7.5 104.001c0 30 1.5 59.167 4.5 87.5s8.16699 51.166 15.5 68.499c13.333 31.333 34 56 62 74s64 27 108 27zM225.998 399.998c-14.667 0 -27.999 -3.66992 -39.999 -11.0029s-20.667 -18.666 -26 -33.999c-4.66699 -12 -7.83398 -27.833 -9.50098 -47.5
s-2.5 -42.167 -2.5 -67.5c0 -19.333 0.5 -37.666 1.5 -54.999s3.83301 -32.333 8.5 -45c11.333 -30 33 -45 65 -45c15.333 0 29.333 3.83301 42 11.5s21.667 22.834 27 45.501c2.66699 9.33301 4.5 23 5.5 41s1.5 38.333 1.5 61c0 20 -0.666992 38.5 -2 55.5
s-4 31.167 -8 42.5c-11.333 32 -32.333 48 -63 48z" />
    <glyph glyph-name="Uhorn" unicode="&#x1af;" horiz-adv-x="597" 
d="M482 696v-47.998c18 3.33301 30.833 11.833 38.5 25.5s11.5 36.5 11.5 68.5v47h88v-61c0 -51.333 -11.5 -90.833 -34.5 -118.5s-57.5 -42.834 -103.5 -45.501v-353c0 -33.333 -5.16699 -63.5 -15.5 -90.5s-25 -49.833 -44 -68.5s-41.5 -33 -67.5 -43s-54.667 -15 -86 -15
c-36 0 -67.5 5.83301 -94.5 17.5s-49.333 27.5 -67 47.5s-31 43.5 -40 70.5s-13.5 55.833 -13.5 86.5v480h114v-483c0 -30 8.5 -55.667 25.5 -77s42.167 -32 75.5 -32c28 0 51.167 9.16699 69.5 27.5s27.5 43.166 27.5 74.499v490h116z" />
    <glyph glyph-name="uhorn" unicode="&#x1b0;" horiz-adv-x="539" 
d="M301 0l0.00292969 45.998c-0.666992 0 -1.33398 0.166992 -2.00098 0.5s-1.33398 0.5 -2.00098 0.5c-12.667 -16.667 -28.5 -29.5 -47.5 -38.5s-38.5 -13.5 -58.5 -13.5c-45.333 0 -80.333 13.333 -105 40s-37 63.334 -37 110.001v349h110v-318
c0 -24.667 6.83301 -43.667 20.5 -57s30.167 -20 49.5 -20c26 0 44.5 9.5 55.5 28.5s16.5 44.5 16.5 76.5v290h110v-43c17.333 3.33301 29.666 11.833 36.999 25.5s11 36.167 11 67.5v47h89v-46v-14.5c0 -4.33301 -0.333008 -9.16602 -1 -14.499
c-1.33301 -46 -13.833 -81.667 -37.5 -107s-56.5 -39 -98.5 -41v-368h-110z" />
    <glyph glyph-name="AEacute" unicode="&#x1fc;" horiz-adv-x="834" 
d="M797 696v-106h-274v-186h235v-104h-235v-191h274v-109h-388v171h-189l-17 -35.5l-22.5 -50l-22.5 -50l-17 -35.5h-124l40 84l57.5 122.5l66 141.5l66 141.5l57.5 122.5l40 84h453zM406 589c-7.33301 -14.667 -17.333 -36.5 -30 -65.5l-40.5 -91.5l-41 -91.5l-29.5 -65.5
h144v314h-3zM457 780l159 124l69 -80l-185 -98z" />
    <glyph glyph-name="aeacute" unicode="&#x1fd;" horiz-adv-x="699" 
d="M652 92c-15.333 -33.333 -37.665 -57.8359 -66.998 -73.5029s-62.333 -23.5 -99 -23.5c-70 0 -120 21 -150 63c-15.333 -16 -30.833 -28.167 -46.5 -36.5s-30.5 -14.5 -44.5 -18.5s-26.833 -6.33301 -38.5 -7s-21.5 -1 -29.5 -1c-48.667 0 -84.667 13.667 -108 41
s-35 63 -35 107c0 21.333 3.33301 41.333 10 60s17 34.834 31 48.501s31.667 24.5 53 32.5s46.666 12 75.999 12h86v40c0 17.333 -6.16699 31.833 -18.5 43.5s-30.833 17.5 -55.5 17.5c-16.667 0 -33.167 -2.66699 -49.5 -8s-28.166 -16 -35.499 -32
c-14 8 -27.833 16.333 -41.5 25l-40.5 26c15.333 32 37.833 55.333 67.5 70s63.5 22 101.5 22c28.667 0 55.167 -3.16699 79.5 -9.5s44.166 -19.166 59.499 -38.499c26.667 32.667 67 49 121 49c36 0 66 -6.16699 90 -18.5s43 -29.333 57 -51s23.833 -47.334 29.5 -77.001
s8.5 -62.167 8.5 -97.5v-44h-259c0 -17.333 1 -33.166 3 -47.499s5.83301 -26.666 11.5 -36.999s13.667 -18.5 24 -24.5s23.5 -9 39.5 -9c33.333 0 59.666 15.667 78.999 47zM311.001 570.997l82 184l98 -37l-116 -175zM290.001 211.997h-79
c-22.667 0 -40.167 -5.16699 -52.5 -15.5s-18.5 -25.5 -18.5 -45.5c0 -16 5.5 -29.667 16.5 -41s29.167 -17 54.5 -17c22 0 40.667 5.5 56 16.5s23 28.833 23 53.5v49zM551.001 294.997c0 31.333 -5.66699 56.5 -17 75.5s-30.333 28.5 -57 28.5
c-13.333 0 -24.5 -2.66699 -33.5 -8s-16.333 -12.666 -22 -21.999s-9.66699 -20.333 -12 -33s-3.83301 -26.334 -4.5 -41.001h146z" />
    <glyph glyph-name="Oslashacute" unicode="&#x1fe;" horiz-adv-x="516" 
d="M471 211c0 -33.333 -5.16895 -63.333 -15.502 -90s-25 -49.5 -44 -68.5s-41.5 -33.5 -67.5 -43.5s-54.667 -15 -86 -15s-58.666 4 -81.999 12s-43.666 19.333 -60.999 34l-28 -50l-48 31l37 67c-11.333 19.333 -19.5 40.333 -24.5 63s-7.5 46.667 -7.5 72v263
c0 24.667 3.83301 49.667 11.5 75s20 48.333 37 69s39 37.667 66 51s60.167 20 99.5 20c28 0 53.167 -3.83301 75.5 -11.5s41.833 -18.167 58.5 -31.5l24 43l50 -30l-32 -57c12.667 -19.333 22 -40 28 -62s9 -44 9 -66v-275zM354.998 471l-181 -324.001
c8 -13.333 18.833 -24 32.5 -32s31.167 -12 52.5 -12c26 0 48.5 8.83301 67.5 26.5s28.5 41.834 28.5 72.501v269zM257.998 590.999c-19.333 0 -35.501 -3.5 -48.501 -10.5s-23.333 -15.667 -31 -26s-13.167 -21.5 -16.5 -33.5s-5 -23.333 -5 -34l1 -252l176 319
c-7.33301 10.667 -17.166 19.5 -29.499 26.5s-27.833 10.5 -46.5 10.5zM172.997 779.999l159 124l69 -80l-185 -98z" />
    <glyph glyph-name="oslashacute" unicode="&#x1ff;" horiz-adv-x="449" 
d="M228 502c22 0 41.3311 -2.33301 57.998 -7s31.667 -11.334 45 -20.001l21 35l40 -22l-27 -45c4 -4.66699 7.5 -9.5 10.5 -14.5l9.5 -15.5c9.33301 -18.667 15.666 -43.167 18.999 -73.5s5 -61.5 5 -93.5c0 -26.667 -1.66699 -54.667 -5 -84s-8.66602 -53 -15.999 -71
c-7.33301 -18.667 -16.833 -34.167 -28.5 -46.5s-25 -22.333 -40 -30s-31.167 -13.167 -48.5 -16.5s-35 -5 -53 -5c-21.333 0 -40.666 2.33301 -57.999 7s-32.666 11.334 -45.999 20.001l-18 -31l-38 22l23 40l-5.5 7.5c-1.66699 2.33301 -3.16699 4.83301 -4.5 7.5
c-12 19.333 -20.5 44.333 -25.5 75s-7.5 65.334 -7.5 104.001c0 30 1.5 59.167 4.5 87.5s8.16699 51.166 15.5 68.499c13.333 31.333 34 56 62 74s64 27 108 27zM171.998 571l82 184l98 -37l-116 -175zM298.998 254c0 13.333 -0.333008 25.999 -1 37.999s-1.66699 23 -3 33
l-124 -209c12 -14 29.333 -21 52 -21c15.333 0 29.333 3.83301 42 11.5s21.667 22.834 27 45.501c2.66699 9.33301 4.5 23 5.5 41s1.5 38.333 1.5 61zM225.998 399.999c-14.667 0 -27.998 -3.66699 -39.998 -11s-20.667 -18.666 -26 -33.999
c-4.66699 -12 -7.83398 -27.833 -9.50098 -47.5s-2.5 -42.167 -2.5 -67.5c0 -13.333 0.166992 -25.833 0.5 -37.5s1.16602 -22.834 2.49902 -33.501l123 209c-12 14.667 -28 22 -48 22z" />
    <glyph glyph-name="Scommaaccent" unicode="&#x218;" horiz-adv-x="504" 
d="M474 198c0 -63.333 -19.333 -113.165 -58 -149.498s-93.334 -54.5 -164.001 -54.5c-56 0 -102.333 11.167 -139 33.5s-65.334 51.166 -86.001 86.499l94 68c15.333 -24 33.666 -43.167 54.999 -57.5s47.333 -21.5 78 -21.5c36.667 0 62.5 8.83301 77.5 26.5
s22.5 39.5 22.5 65.5c0 16 -3 29.667 -9 41s-14.333 21.166 -25 29.499s-23.667 15.5 -39 21.5s-32 11.667 -50 17c-33.333 10.667 -61.666 22 -84.999 34s-42.5 25.833 -57.5 41.5s-25.833 33.667 -32.5 54s-10 43.5 -10 69.5c0 28.667 5 55.167 15 79.5
s24.333 45.333 43 63s40.834 31.334 66.501 41.001s54.5 14.5 86.5 14.5c52 0 94.167 -8.66699 126.5 -26s58.166 -41 77.499 -71l-87 -73c-15.333 21.333 -32.666 37 -51.999 47s-41.666 15 -66.999 15c-30 0 -53 -8.16699 -69 -24.5s-24 -36.833 -24 -61.5
c0 -14 3.66699 -26.167 11 -36.5s17.333 -19.5 30 -27.5s27.667 -15.167 45 -21.5s35.666 -12.5 54.999 -18.5c32.667 -10 59.834 -21.5 81.501 -34.5s39.167 -27.833 52.5 -44.5s22.833 -35.334 28.5 -56.001s8.5 -44 8.5 -70zM185 -274.999l32 99h-29v117h116v-114
l-62 -102h-57z" />
    <glyph glyph-name="scommaaccent" unicode="&#x219;" horiz-adv-x="424" 
d="M395 147c0 -46 -16.333 -83 -49 -111s-77.667 -42 -135 -42c-44 0 -81 7.83301 -111 23.5s-54.667 40.167 -74 73.5l82 60c22.667 -39.333 56.667 -59 102 -59c22.667 0 40.5 5 53.5 15s19.5 23.667 19.5 41c0 18 -6.16699 30.667 -18.5 38s-29.5 13.666 -51.5 18.999
c-23.333 5.33301 -45.5 11.5 -66.5 18.5s-39.5 16 -55.5 27s-28.833 24.833 -38.5 41.5s-14.5 37 -14.5 61c0 22.667 4.5 43.167 13.5 61.5s21.167 33.833 36.5 46.5s33.666 22.334 54.999 29.001s44.333 10 69 10c44.667 0 80.5 -7.5 107.5 -22.5s48.833 -35.5 65.5 -61.5
l-74 -64c-22 34 -54 51 -96 51c-24.667 0 -41.834 -5.16699 -51.501 -15.5s-14.5 -21.5 -14.5 -33.5c0 -8 2.5 -14.833 7.5 -20.5s11.833 -10.5 20.5 -14.5s18.334 -7.5 29.001 -10.5s21.667 -5.83301 33 -8.5c22.667 -5.33301 43.667 -11.5 63 -18.5
s35.833 -16.333 49.5 -28s24.334 -26.167 32.001 -43.5s11.5 -38.333 11.5 -63zM142 -275l32 99h-29v117h116v-114l-62 -102h-57z" />
    <glyph glyph-name="schwa" unicode="&#x259;" horiz-adv-x="442" 
d="M49 403c17.333 32 40.5 56.333 69.5 73s61.833 25 98.5 25c68 0 116.333 -20.833 145 -62.5s43 -104.834 43 -189.501c0 -35.333 -2.83301 -68.333 -8.5 -99s-15.667 -57.5 -30 -80.5s-33.5 -41.167 -57.5 -54.5s-54.333 -20 -91 -20c-36 0 -65.833 6.16699 -89.5 18.5
s-42.5 29.333 -56.5 51s-23.833 47.334 -29.5 77.001s-8.5 62.167 -8.5 97.5v38h260c0 16 -1.16699 31.5 -3.5 46.5s-6.5 28.167 -12.5 39.5s-14.167 20.5 -24.5 27.5s-23.833 10.5 -40.5 10.5c-16 0 -31.333 -4.66699 -46 -14s-27 -22 -37 -38zM148 201
c0 -32 5.50098 -57.333 16.501 -76s29.5 -28 55.5 -28c26.667 0 45.167 10 55.5 30s16.166 44.667 17.499 74h-145z" />
    <glyph glyph-name="primemod" unicode="&#x2b9;" horiz-adv-x="258" 
d="M268 686l-144 -287l-79 25l106 299z" />
    <glyph glyph-name="circumflex" unicode="&#x2c6;" horiz-adv-x="471" 
d="M241 635c-3.33301 -2 -11.167 -8 -23.5 -18l-40.5 -32.5l-41 -32l-23 -17.5l-45 40l141 152h71l135 -150l-46 -42z" />
    <glyph glyph-name="caron" unicode="&#x2c7;" horiz-adv-x="439" 
d="M354 727l46 -41l-136 -151h-71l-141 152l46 40l23 -17.5l40.5 -31.5l40.5 -32c12.667 -10 20.667 -16 24 -18z" />
    <glyph glyph-name="breve" unicode="&#x2d8;" horiz-adv-x="468" 
d="M237 557c-28 0 -51.5 5 -70.5 15s-34.333 22.333 -46 37s-20.167 30.667 -25.5 48s-8.33301 33.333 -9 48h86c0.666992 -7.33301 2.5 -14.833 5.5 -22.5s7.33301 -14.834 13 -21.501s12.334 -12.167 20.001 -16.5s16.5 -6.5 26.5 -6.5c10.667 0 20 2.16699 28 6.5
s14.667 9.83301 20 16.5s9.33301 13.834 12 21.501s4 15.167 4 22.5h85c-1.33301 -14.667 -4.83301 -30.667 -10.5 -48s-14.167 -33.333 -25.5 -48s-26.333 -27 -45 -37s-41.334 -15 -68.001 -15z" />
    <glyph glyph-name="dotaccent" unicode="&#x2d9;" horiz-adv-x="399" 
d="M159 575v108h106v-108h-106z" />
    <glyph glyph-name="ring" unicode="&#x2da;" horiz-adv-x="444" 
d="M280 633c0 11.333 -3.83301 20.666 -11.5 27.999s-17.167 11 -28.5 11s-21 -3.66699 -29 -11s-12 -16.666 -12 -27.999c0 -10.667 4 -19.667 12 -27s17.667 -11 29 -11s20.833 3.66699 28.5 11s11.5 16.333 11.5 27zM139 633c0 13.333 2.66699 26 8 38
s12.5 22.5 21.5 31.5s19.667 16 32 21s25.5 7.5 39.5 7.5c28 0 51.5 -9.5 70.5 -28.5s28.5 -42.167 28.5 -69.5c0 -13.333 -2.5 -25.833 -7.5 -37.5s-12 -21.834 -21 -30.501s-19.5 -15.5 -31.5 -20.5s-25 -7.5 -39 -7.5s-27.167 2.5 -39.5 7.5s-23 11.833 -32 20.5
s-16.167 18.834 -21.5 30.501s-8 24.167 -8 37.5z" />
    <glyph glyph-name="ogonek" unicode="&#x2db;" horiz-adv-x="313" 
d="M102 -100c0 14 3.16992 29.6689 9.50293 47.002s17.166 36.666 32.499 57.999h70c0 -0.666992 0.333008 -1 1 -1c-24.667 -36 -37 -63.667 -37 -83c0 -15.333 3.16699 -26.833 9.5 -34.5s17.166 -11.5 32.499 -11.5c7.33301 0 15.666 1.16699 24.999 3.5
s20.333 6.16602 33 11.499l22 -57c-14.667 -8 -30.5 -14.5 -47.5 -19.5s-33.833 -7.5 -50.5 -7.5c-29.333 0 -53.333 9 -72 27s-28 40.333 -28 67z" />
    <glyph glyph-name="tilde" unicode="&#x2dc;" horiz-adv-x="433" 
d="M157 694c11.333 0 22.3359 -2.16797 33.0029 -6.50098s21.167 -9.16602 31.5 -14.499s20.166 -10.166 29.499 -14.499s18 -6.5 26 -6.5c10 0 19.5 3.33301 28.5 10s19.167 17.667 30.5 33l56 -33c-15.333 -32.667 -31.833 -56.334 -49.5 -71.001s-36.5 -22 -56.5 -22
c-12 0 -23.5 2.16699 -34.5 6.5s-21.667 9 -32 14l-30 14c-9.66699 4.33301 -18.834 6.5 -27.501 6.5c-10 0 -19.833 -3 -29.5 -9s-20.5 -16.667 -32.5 -32l-27 16l-27 16c13.333 30 29.666 53 48.999 69s40 24 62 24z" />
    <glyph glyph-name="hungarumlaut" unicode="&#x2dd;" horiz-adv-x="459" 
d="M113 578l82 184l98 -36l-117 -176zM257 571l82 184l98 -37l-117 -175z" />
    <glyph glyph-name="tonos" unicode="&#x384;" horiz-adv-x="439" 
d="M179 571l81 184l99 -37l-117 -175z" />
    <glyph glyph-name="dieresistonos" unicode="&#x385;" horiz-adv-x="484" 
d="M320 575v106h106v-106h-106zM53 575v106h106v-106h-106zM169 560l60 193l103 -24l-97 -187z" />
    <glyph glyph-name="Alphatonos" unicode="&#x386;" horiz-adv-x="526" 
d="M359 150h-193c-1.33301 -6 -4 -16 -8 -30l-12.5 -45l-12 -45c-3.66699 -14 -6.5 -24 -8.5 -30h-119l201 696h110l202 -696h-121zM227 392l-36 -140h142l-35 139l-6.5 30c-3 14 -6.33301 28.667 -10 44l-10.5 43.5c-3.33301 13.667 -5.33301 23.5 -6 29.5h-5zM-57 549
l81 184l99 -37l-117 -175z" />
    <glyph glyph-name="anoteleia" unicode="&#x387;" horiz-adv-x="241" 
d="M57 278v130h124v-130h-124z" />
    <glyph glyph-name="Epsilontonos" unicode="&#x388;" horiz-adv-x="473" 
d="M63 0v696h387v-106h-273v-186h235v-104h-235v-191h273v-109h-387zM-145 554l81 184l99 -37l-117 -175z" />
    <glyph glyph-name="Etatonos" unicode="&#x389;" horiz-adv-x="550" 
d="M373 0v301h-196v-301h-115v696h115v-292h196v292h114v-696h-114zM-143 549l81 184l99 -37l-117 -175z" />
    <glyph glyph-name="Iotatonos" unicode="&#x38a;" horiz-adv-x="243" 
d="M64 0v696h115v-696h-115zM-147 549l81 184l99 -37l-117 -175z" />
    <glyph glyph-name="Omicrontonos" unicode="&#x38c;" horiz-adv-x="516" 
d="M471 211c0 -33.333 -5.16895 -63.334 -15.502 -90.001s-25 -49.5 -44 -68.5s-41.5 -33.5 -67.5 -43.5s-54.667 -15 -86 -15c-38 0 -70.667 6.16699 -98 18.5s-49.5 29 -66.5 50s-29.5 45.333 -37.5 73s-12 56.834 -12 87.501v263c0 24.667 3.83301 49.667 11.5 75
s20 48.333 37 69s39 37.667 66 51s60.167 20 99.5 20c36.667 0 68.334 -6.33301 95.001 -19s48.834 -29.167 66.501 -49.5s30.667 -43.333 39 -69s12.5 -51.5 12.5 -77.5v-275zM354.998 487.999c0 8.66699 -1.50195 18.8301 -4.50195 30.4971s-8.16699 22.834 -15.5 33.501
s-17.166 19.834 -29.499 27.501s-28.166 11.5 -47.499 11.5s-35.5 -3.5 -48.5 -10.5s-23.333 -15.667 -31 -26s-13.167 -21.5 -16.5 -33.5s-5 -23.333 -5 -34l1 -266c0 -33.333 7.66699 -61.333 23 -84s41.333 -34 78 -34c26 0 48.5 8.83301 67.5 26.5
s28.5 41.834 28.5 72.501v286zM-124.004 548.995l81 184l99 -37l-117 -175z" />
    <glyph glyph-name="Upsilontonos" unicode="&#x38e;" horiz-adv-x="476" 
d="M241 404c7.33301 22.667 15.001 45.001 23.001 67.001l24 67l61 158h121l-176 -412v-284h-112v284l-176 413h124l30.5 -81c10.333 -26.667 20.166 -53.334 29.499 -80.001l22.5 -66l22.5 -66h6zM-184.999 549.001l81 184l99 -37l-117 -175z" />
    </font>
</defs>
</svg>
